M48
; DRILL file {KiCad (6.0.1-0)} date Monday, June 13, 2022 at 09:57:43 AM
; FORMAT={-:-/ absolute / metric / decimal}
; #@! TF.CreationDate,2022-06-13T09:57:43-07:00
; #@! TF.GenerationSoftware,Kicad,Pcbnew,(6.0.1-0)
; #@! TF.FileFunction,MixedPlating,1,2
FMAT,2
METRIC
; #@! TA.AperFunction,Plated,PTH,ComponentDrill
T1C0.800
; #@! TA.AperFunction,Plated,PTH,ComponentDrill
T2C1.000
%
G90
G05
T1
X166.9Y-50.65
X168.85Y-63.85
X168.85Y-65.85
X168.85Y-67.85
X168.85Y-69.85
X168.9Y-50.65
X168.95Y-75.15
X168.95Y-77.15
X168.95Y-79.15
X183.9Y-50.25
X185.9Y-50.25
X187.9Y-50.25
X196.45Y-50.05
X198.45Y-50.05
X200.45Y-50.05
X207.0Y-50.3
X209.0Y-50.3
X210.55Y-73.1
X210.55Y-75.1
X210.55Y-77.1
X211.0Y-50.3
T2
X173.14Y-69.4
X173.14Y-74.48
X173.14Y-77.02
X173.14Y-79.56
X173.14Y-82.1
X173.14Y-84.64
X175.68Y-69.4
X175.68Y-84.64
X178.22Y-69.4
X178.22Y-84.64
X180.76Y-84.64
X183.3Y-69.4
X183.3Y-84.64
X185.84Y-69.4
X185.84Y-84.64
X188.38Y-84.64
X190.92Y-69.4
X190.92Y-84.64
X193.46Y-69.4
X193.46Y-84.64
X196.0Y-69.4
X196.0Y-84.64
X198.54Y-69.4
X198.54Y-84.64
X201.08Y-69.4
X201.08Y-84.64
X203.62Y-69.4
X203.62Y-84.64
X206.16Y-69.4
X206.16Y-84.64
T0
M30
