%TF.GenerationSoftware,KiCad,Pcbnew,(6.0.1-0)*%
%TF.CreationDate,2022-06-13T09:57:48-07:00*%
%TF.ProjectId,BBEcent,42424563-656e-4742-9e6b-696361645f70,rev?*%
%TF.SameCoordinates,Original*%
%TF.FileFunction,Copper,L1,Top*%
%TF.FilePolarity,Positive*%
%FSLAX46Y46*%
G04 Gerber Fmt 4.6, Leading zero omitted, Abs format (unit mm)*
G04 Created by KiCad (PCBNEW (6.0.1-0)) date 2022-06-13 09:57:48*
%MOMM*%
%LPD*%
G01*
G04 APERTURE LIST*
G04 Aperture macros list*
%AMRoundRect*
0 Rectangle with rounded corners*
0 $1 Rounding radius*
0 $2 $3 $4 $5 $6 $7 $8 $9 X,Y pos of 4 corners*
0 Add a 4 corners polygon primitive as box body*
4,1,4,$2,$3,$4,$5,$6,$7,$8,$9,$2,$3,0*
0 Add four circle primitives for the rounded corners*
1,1,$1+$1,$2,$3*
1,1,$1+$1,$4,$5*
1,1,$1+$1,$6,$7*
1,1,$1+$1,$8,$9*
0 Add four rect primitives between the rounded corners*
20,1,$1+$1,$2,$3,$4,$5,0*
20,1,$1+$1,$4,$5,$6,$7,0*
20,1,$1+$1,$6,$7,$8,$9,0*
20,1,$1+$1,$8,$9,$2,$3,0*%
G04 Aperture macros list end*
%TA.AperFunction,SMDPad,CuDef*%
%ADD10R,1.300000X0.600000*%
%TD*%
%TA.AperFunction,SMDPad,CuDef*%
%ADD11RoundRect,0.250000X0.312500X0.625000X-0.312500X0.625000X-0.312500X-0.625000X0.312500X-0.625000X0*%
%TD*%
%TA.AperFunction,SMDPad,CuDef*%
%ADD12RoundRect,0.250000X0.250000X0.475000X-0.250000X0.475000X-0.250000X-0.475000X0.250000X-0.475000X0*%
%TD*%
%TA.AperFunction,SMDPad,CuDef*%
%ADD13RoundRect,0.250000X0.625000X-0.312500X0.625000X0.312500X-0.625000X0.312500X-0.625000X-0.312500X0*%
%TD*%
%TA.AperFunction,SMDPad,CuDef*%
%ADD14R,1.500000X2.000000*%
%TD*%
%TA.AperFunction,SMDPad,CuDef*%
%ADD15R,3.800000X2.000000*%
%TD*%
%TA.AperFunction,SMDPad,CuDef*%
%ADD16RoundRect,0.250000X-0.250000X-0.475000X0.250000X-0.475000X0.250000X0.475000X-0.250000X0.475000X0*%
%TD*%
%TA.AperFunction,SMDPad,CuDef*%
%ADD17RoundRect,0.250000X-0.312500X-0.625000X0.312500X-0.625000X0.312500X0.625000X-0.312500X0.625000X0*%
%TD*%
%TA.AperFunction,SMDPad,CuDef*%
%ADD18RoundRect,0.250000X-0.475000X0.250000X-0.475000X-0.250000X0.475000X-0.250000X0.475000X0.250000X0*%
%TD*%
%TA.AperFunction,SMDPad,CuDef*%
%ADD19RoundRect,0.250000X-0.625000X0.312500X-0.625000X-0.312500X0.625000X-0.312500X0.625000X0.312500X0*%
%TD*%
%TA.AperFunction,ComponentPad*%
%ADD20C,1.676400*%
%TD*%
%TA.AperFunction,ComponentPad*%
%ADD21RoundRect,0.250000X0.350000X0.625000X-0.350000X0.625000X-0.350000X-0.625000X0.350000X-0.625000X0*%
%TD*%
%TA.AperFunction,ComponentPad*%
%ADD22O,1.200000X1.750000*%
%TD*%
%TA.AperFunction,ComponentPad*%
%ADD23RoundRect,0.250000X0.625000X-0.350000X0.625000X0.350000X-0.625000X0.350000X-0.625000X-0.350000X0*%
%TD*%
%TA.AperFunction,ComponentPad*%
%ADD24O,1.750000X1.200000*%
%TD*%
%TA.AperFunction,ComponentPad*%
%ADD25RoundRect,0.250000X-0.625000X0.350000X-0.625000X-0.350000X0.625000X-0.350000X0.625000X0.350000X0*%
%TD*%
%TA.AperFunction,ComponentPad*%
%ADD26C,1.778000*%
%TD*%
%TA.AperFunction,Conductor*%
%ADD27C,0.250000*%
%TD*%
G04 APERTURE END LIST*
D10*
%TO.P,Q3,1,G*%
%TO.N,LV*%
X188690000Y-77600000D03*
%TO.P,Q3,2,S*%
%TO.N,/A3*%
X188690000Y-79500000D03*
%TO.P,Q3,3,D*%
%TO.N,Net-(P1-Pad3)*%
X190790000Y-78550000D03*
%TD*%
%TO.P,Q2,1,G*%
%TO.N,LV*%
X195150000Y-59050000D03*
%TO.P,Q2,2,S*%
%TO.N,/D11*%
X195150000Y-60950000D03*
%TO.P,Q2,3,D*%
%TO.N,Net-(F1-C1-Pad3)*%
X197250000Y-60000000D03*
%TD*%
D11*
%TO.P,R4,1,1*%
%TO.N,/D11*%
X196412500Y-63300000D03*
%TO.P,R4,2,2*%
%TO.N,LV*%
X193487500Y-63300000D03*
%TD*%
D12*
%TO.P,C2,1,1*%
%TO.N,HV*%
X179450000Y-54300000D03*
%TO.P,C2,2,2*%
%TO.N,GND*%
X177550000Y-54300000D03*
%TD*%
D11*
%TO.P,R8,1,1*%
%TO.N,/D7*%
X186262500Y-64200000D03*
%TO.P,R8,2,2*%
%TO.N,LV*%
X183337500Y-64200000D03*
%TD*%
D13*
%TO.P,R5,1,1*%
%TO.N,Net-(F1-C1-Pad3)*%
X199450000Y-61412500D03*
%TO.P,R5,2,2*%
%TO.N,HV*%
X199450000Y-58487500D03*
%TD*%
D14*
%TO.P,U4,1,VI*%
%TO.N,HV*%
X178900000Y-57550000D03*
D15*
%TO.P,U4,2,GND*%
%TO.N,GND*%
X176600000Y-63850000D03*
D14*
X176600000Y-57550000D03*
%TO.P,U4,3,VO*%
%TO.N,+3V3*%
X174300000Y-57550000D03*
%TD*%
D16*
%TO.P,C1,1,1*%
%TO.N,+3V3*%
X173800000Y-54250000D03*
%TO.P,C1,2,2*%
%TO.N,GND*%
X175700000Y-54250000D03*
%TD*%
D17*
%TO.P,R6,1,1*%
%TO.N,/A3*%
X187327500Y-74950000D03*
%TO.P,R6,2,2*%
%TO.N,LV*%
X190252500Y-74950000D03*
%TD*%
D13*
%TO.P,R9,1,1*%
%TO.N,Net-(Q4-Pad3)*%
X189200000Y-62012500D03*
%TO.P,R9,2,2*%
%TO.N,HV*%
X189200000Y-59087500D03*
%TD*%
D10*
%TO.P,Q4,1,G*%
%TO.N,LV*%
X184800000Y-59550000D03*
%TO.P,Q4,2,S*%
%TO.N,/D7*%
X184800000Y-61450000D03*
%TO.P,Q4,3,D*%
%TO.N,Net-(Q4-Pad3)*%
X186900000Y-60500000D03*
%TD*%
%TO.P,Q1,1,G*%
%TO.N,LV*%
X205650000Y-58850000D03*
%TO.P,Q1,2,S*%
%TO.N,/D13*%
X205650000Y-60750000D03*
%TO.P,Q1,3,D*%
%TO.N,Net-(FM-OEM-C1-Pad3)*%
X207750000Y-59800000D03*
%TD*%
D18*
%TO.P,C3,1,1*%
%TO.N,HV*%
X173400000Y-48450000D03*
%TO.P,C3,2,2*%
%TO.N,GND*%
X173400000Y-50350000D03*
%TD*%
D19*
%TO.P,R7,1,1*%
%TO.N,Net-(P1-Pad3)*%
X193240000Y-77037500D03*
%TO.P,R7,2,2*%
%TO.N,HV*%
X193240000Y-79962500D03*
%TD*%
D11*
%TO.P,R2,1,1*%
%TO.N,/D13*%
X206762500Y-62950000D03*
%TO.P,R2,2,2*%
%TO.N,LV*%
X203837500Y-62950000D03*
%TD*%
D13*
%TO.P,R3,1,1*%
%TO.N,Net-(FM-OEM-C1-Pad3)*%
X210050000Y-61362500D03*
%TO.P,R3,2,2*%
%TO.N,HV*%
X210050000Y-58437500D03*
%TD*%
D20*
%TO.P,,12*%
%TO.N,N/C*%
X178220000Y-69400000D03*
%TD*%
D21*
%TO.P,PWR1,1,Pin_1*%
%TO.N,GND*%
X168900000Y-50650000D03*
D22*
%TO.P,PWR1,2,Pin_2*%
%TO.N,HV*%
X166900000Y-50650000D03*
%TD*%
D21*
%TO.P,CapSensor1,1,Pin_1*%
%TO.N,GND*%
X187900000Y-50250000D03*
D22*
%TO.P,CapSensor1,2,Pin_2*%
%TO.N,HV*%
X185900000Y-50250000D03*
%TO.P,CapSensor1,3,Pin_3*%
%TO.N,Net-(Q4-Pad3)*%
X183900000Y-50250000D03*
%TD*%
D20*
%TO.P,,4*%
%TO.N,/D13*%
X198540000Y-69400000D03*
%TD*%
%TO.P,,7*%
%TO.N,/D10*%
X190920000Y-69400000D03*
%TD*%
D23*
%TO.P,TS1,1,1*%
%TO.N,GND*%
X168950000Y-79150000D03*
D24*
%TO.P,TS1,2,2*%
%TO.N,+3V3*%
X168950000Y-77150000D03*
%TO.P,TS1,3,3*%
%TO.N,N/C*%
X168950000Y-75150000D03*
%TD*%
D20*
%TO.P,,5*%
%TO.N,N/C*%
X196000000Y-69400000D03*
%TD*%
D25*
%TO.P,P1,1,Pin_1*%
%TO.N,GND*%
X210550000Y-73100000D03*
D24*
%TO.P,P1,2,Pin_2*%
%TO.N,HV*%
X210550000Y-75100000D03*
%TO.P,P1,3,Pin_3*%
%TO.N,Net-(P1-Pad3)*%
X210550000Y-77100000D03*
%TD*%
D20*
%TO.P,,1*%
%TO.N,HV*%
X206160000Y-69400000D03*
%TD*%
%TO.P,,4*%
%TO.N,N/C*%
X180760000Y-84640000D03*
%TD*%
%TO.P,,10*%
%TO.N,N/C*%
X196000000Y-84640000D03*
%TD*%
%TO.P,,2*%
%TO.N,N/C*%
X175680000Y-84640000D03*
%TD*%
%TO.P,,14*%
%TO.N,/RX*%
X173140000Y-69400000D03*
%TD*%
%TO.P,,12*%
%TO.N,+3V3*%
X201080000Y-84640000D03*
%TD*%
%TO.P,,11*%
%TO.N,N/C*%
X198540000Y-84640000D03*
%TD*%
%TO.P,,5*%
%TO.N,N/C*%
X183300000Y-84640000D03*
%TD*%
%TO.P,,6*%
%TO.N,/D11*%
X193460000Y-69400000D03*
%TD*%
%TO.P,,3*%
%TO.N,N/C*%
X201080000Y-69400000D03*
%TD*%
D26*
%TO.P,,2*%
%TO.N,N/C*%
X173140000Y-79560000D03*
%TD*%
D20*
%TO.P,,2*%
%TO.N,GND*%
X203620000Y-69400000D03*
%TD*%
D23*
%TO.P,J1,1,Pin_1*%
%TO.N,GND*%
X168850000Y-69850000D03*
D24*
%TO.P,J1,2,Pin_2*%
%TO.N,HV*%
X168850000Y-67850000D03*
%TO.P,J1,3,Pin_3*%
%TO.N,/TX*%
X168850000Y-65850000D03*
%TO.P,J1,4,Pin_4*%
%TO.N,/RX*%
X168850000Y-63850000D03*
%TD*%
D20*
%TO.P,,1*%
%TO.N,N/C*%
X173140000Y-84640000D03*
%TD*%
D21*
%TO.P,FM-OEM-C1,1,Pin_1*%
%TO.N,GND*%
X211000000Y-50300000D03*
D22*
%TO.P,FM-OEM-C1,2,Pin_2*%
%TO.N,HV*%
X209000000Y-50300000D03*
%TO.P,FM-OEM-C1,3,Pin_3*%
%TO.N,Net-(FM-OEM-C1-Pad3)*%
X207000000Y-50300000D03*
%TD*%
D20*
%TO.P,,10*%
%TO.N,N/C*%
X183300000Y-69400000D03*
%TD*%
%TO.P,,3*%
%TO.N,N/C*%
X178220000Y-84640000D03*
%TD*%
%TO.P,,9*%
%TO.N,N/C*%
X193460000Y-84640000D03*
%TD*%
D26*
%TO.P,,4*%
%TO.N,N/C*%
X173140000Y-74480000D03*
%TD*%
%TO.P,,1*%
%TO.N,N/C*%
X173140000Y-82100000D03*
%TD*%
D20*
%TO.P,,13*%
%TO.N,+3V3*%
X203620000Y-84640000D03*
%TD*%
D21*
%TO.P,F1-C1,1,Pin_1*%
%TO.N,GND*%
X200450000Y-50050000D03*
D22*
%TO.P,F1-C1,2,Pin_2*%
%TO.N,HV*%
X198450000Y-50050000D03*
%TO.P,F1-C1,3,Pin_3*%
%TO.N,Net-(F1-C1-Pad3)*%
X196450000Y-50050000D03*
%TD*%
D20*
%TO.P,,14*%
%TO.N,N/C*%
X206160000Y-84640000D03*
%TD*%
%TO.P,,9*%
%TO.N,/D7*%
X185840000Y-69400000D03*
%TD*%
%TO.P,,13*%
%TO.N,/TX*%
X175680000Y-69400000D03*
%TD*%
%TO.P,,8*%
%TO.N,N/C*%
X190920000Y-84640000D03*
%TD*%
%TO.P,,6*%
%TO.N,N/C*%
X185840000Y-84640000D03*
%TD*%
D26*
%TO.P,,3*%
%TO.N,N/C*%
X173140000Y-77020000D03*
%TD*%
D20*
%TO.P,,7*%
%TO.N,/A3*%
X188380000Y-84640000D03*
%TD*%
D27*
%TO.N,*%
X168950000Y-75150000D02*
X170300000Y-75150000D01*
X170300000Y-75150000D02*
X170970000Y-74480000D01*
X170970000Y-74480000D02*
X173140000Y-74480000D01*
%TO.N,HV*%
X206160000Y-72810000D02*
X206160000Y-69400000D01*
X198450000Y-50050000D02*
X198450000Y-57487500D01*
X212450000Y-63110000D02*
X212450000Y-59800000D01*
X176500000Y-48450000D02*
X179650000Y-51600000D01*
X179700000Y-71250000D02*
X181450000Y-69500000D01*
X166900000Y-50650000D02*
X166900000Y-49300000D01*
X176500000Y-48450000D02*
X177850000Y-47100000D01*
X181450000Y-69500000D02*
X181450000Y-56300000D01*
X210550000Y-75100000D02*
X211900000Y-75100000D01*
X167750000Y-48450000D02*
X173400000Y-48450000D01*
X210150000Y-58337500D02*
X210050000Y-58437500D01*
X179650000Y-51600000D02*
X179650000Y-54100000D01*
X203650000Y-54287500D02*
X199450000Y-58487500D01*
X212550000Y-77650000D02*
X210237500Y-79962500D01*
X209000000Y-56250000D02*
X210150000Y-57400000D01*
X208450000Y-75100000D02*
X206160000Y-72810000D01*
X178900000Y-57550000D02*
X178900000Y-54850000D01*
X185800000Y-47100000D02*
X192550000Y-47100000D01*
X173400000Y-48450000D02*
X176500000Y-48450000D01*
X171400000Y-70400000D02*
X172250000Y-71250000D01*
X211900000Y-75100000D02*
X212550000Y-75750000D01*
X207900000Y-46550000D02*
X209000000Y-47650000D01*
X206160000Y-69400000D02*
X212450000Y-63110000D01*
X181450000Y-56300000D02*
X179450000Y-54300000D01*
X185900000Y-51500000D02*
X189200000Y-54800000D01*
X185900000Y-50250000D02*
X185900000Y-51500000D01*
X209000000Y-47650000D02*
X209000000Y-50300000D01*
X171400000Y-69150000D02*
X171400000Y-70400000D01*
X209000000Y-50300000D02*
X209000000Y-56250000D01*
X185800000Y-47100000D02*
X185900000Y-47200000D01*
X178900000Y-54850000D02*
X179450000Y-54300000D01*
X170100000Y-67850000D02*
X171400000Y-69150000D01*
X212550000Y-75750000D02*
X212550000Y-77650000D01*
X185900000Y-47200000D02*
X185900000Y-50250000D01*
X203650000Y-46550000D02*
X203650000Y-54287500D01*
X168850000Y-67850000D02*
X170100000Y-67850000D01*
X210150000Y-57400000D02*
X210150000Y-58337500D01*
X212450000Y-59800000D02*
X211087500Y-58437500D01*
X179650000Y-54100000D02*
X179450000Y-54300000D01*
X210237500Y-79962500D02*
X193240000Y-79962500D01*
X211087500Y-58437500D02*
X210050000Y-58437500D01*
X198450000Y-57487500D02*
X199450000Y-58487500D01*
X203650000Y-46550000D02*
X207900000Y-46550000D01*
X177850000Y-47100000D02*
X185800000Y-47100000D01*
X192550000Y-47100000D02*
X192500000Y-47050000D01*
X166900000Y-49300000D02*
X167750000Y-48450000D01*
X193000000Y-46550000D02*
X192500000Y-47050000D01*
X210550000Y-75100000D02*
X208450000Y-75100000D01*
X203650000Y-46550000D02*
X193000000Y-46550000D01*
X189200000Y-54800000D02*
X189200000Y-59087500D01*
X172250000Y-71250000D02*
X179700000Y-71250000D01*
%TO.N,+3V3*%
X167050000Y-77150000D02*
X168950000Y-77150000D01*
X174300000Y-54750000D02*
X173800000Y-54250000D01*
X174300000Y-57550000D02*
X174300000Y-54750000D01*
X164850000Y-74950000D02*
X167050000Y-77150000D01*
X173800000Y-54250000D02*
X170700000Y-54250000D01*
X164850000Y-60100000D02*
X164850000Y-74950000D01*
X170700000Y-54250000D02*
X164850000Y-60100000D01*
%TO.N,LV*%
X195150000Y-59050000D02*
X193487500Y-60712500D01*
X203837500Y-60662500D02*
X203837500Y-62950000D01*
X188690000Y-76512500D02*
X190252500Y-74950000D01*
X188690000Y-77600000D02*
X188690000Y-76512500D01*
X193487500Y-60712500D02*
X193487500Y-63300000D01*
X205650000Y-58850000D02*
X203837500Y-60662500D01*
X183337500Y-61012500D02*
X183337500Y-64200000D01*
X184800000Y-59550000D02*
X183337500Y-61012500D01*
%TO.N,/D13*%
X198540000Y-69400000D02*
X201290000Y-66650000D01*
X201290000Y-66650000D02*
X205550000Y-66650000D01*
X205550000Y-66650000D02*
X206762500Y-65437500D01*
X206762500Y-65437500D02*
X206762500Y-62950000D01*
X205650000Y-61837500D02*
X206762500Y-62950000D01*
X205650000Y-60750000D02*
X205650000Y-61837500D01*
%TO.N,/D11*%
X195150000Y-62037500D02*
X196412500Y-63300000D01*
X196412500Y-64987500D02*
X193460000Y-67940000D01*
X193460000Y-67940000D02*
X193460000Y-69400000D01*
X196412500Y-63300000D02*
X196412500Y-64987500D01*
X195150000Y-60950000D02*
X195150000Y-62037500D01*
%TO.N,/A3*%
X188690000Y-79500000D02*
X188690000Y-84330000D01*
X188690000Y-79500000D02*
X187327500Y-78137500D01*
X187327500Y-78137500D02*
X187327500Y-74950000D01*
X188690000Y-84330000D02*
X188380000Y-84640000D01*
%TO.N,Net-(FM-OEM-C1-Pad3)*%
X207750000Y-59800000D02*
X208487500Y-59800000D01*
X207000000Y-56800000D02*
X207750000Y-57550000D01*
X207750000Y-57550000D02*
X207750000Y-59800000D01*
X208487500Y-59800000D02*
X210050000Y-61362500D01*
X207000000Y-50300000D02*
X207000000Y-56800000D01*
%TO.N,Net-(F1-C1-Pad3)*%
X196450000Y-50050000D02*
X196450000Y-57250000D01*
X198037500Y-60000000D02*
X199450000Y-61412500D01*
X197250000Y-60000000D02*
X198037500Y-60000000D01*
X196450000Y-57250000D02*
X197250000Y-58050000D01*
X197250000Y-58050000D02*
X197250000Y-60000000D01*
%TO.N,/TX*%
X168850000Y-65850000D02*
X167150000Y-64150000D01*
X171100000Y-61950000D02*
X173100000Y-63950000D01*
X173100000Y-66820000D02*
X175680000Y-69400000D01*
X173100000Y-63950000D02*
X173100000Y-66820000D01*
X167150000Y-63350000D02*
X168550000Y-61950000D01*
X168550000Y-61950000D02*
X171100000Y-61950000D01*
X167150000Y-64150000D02*
X167150000Y-63350000D01*
%TO.N,/RX*%
X168850000Y-63850000D02*
X171050000Y-63850000D01*
X171700000Y-64500000D02*
X171700000Y-67960000D01*
X171700000Y-67960000D02*
X173140000Y-69400000D01*
X171050000Y-63850000D02*
X171700000Y-64500000D01*
%TO.N,Net-(P1-Pad3)*%
X191727500Y-78550000D02*
X193240000Y-77037500D01*
X210550000Y-77100000D02*
X209500000Y-78150000D01*
X194352500Y-78150000D02*
X193240000Y-77037500D01*
X190790000Y-78550000D02*
X191727500Y-78550000D01*
X209500000Y-78150000D02*
X194352500Y-78150000D01*
%TO.N,Net-(Q4-Pad3)*%
X183900000Y-50250000D02*
X183900000Y-53950000D01*
X186900000Y-60500000D02*
X187687500Y-60500000D01*
X183900000Y-53950000D02*
X186900000Y-56950000D01*
X186900000Y-56950000D02*
X186900000Y-60500000D01*
X187687500Y-60500000D02*
X189200000Y-62012500D01*
%TO.N,/D7*%
X184800000Y-61450000D02*
X184800000Y-62737500D01*
X185840000Y-66610000D02*
X185840000Y-69400000D01*
X184800000Y-62737500D02*
X186262500Y-64200000D01*
X186262500Y-66187500D02*
X185840000Y-66610000D01*
X186262500Y-64200000D02*
X186262500Y-66187500D01*
%TD*%
%TA.AperFunction,Conductor*%
%TO.N,GND*%
G36*
X216284121Y-45378002D02*
G01*
X216330614Y-45431658D01*
X216342000Y-45484000D01*
X216342000Y-87316000D01*
X216321998Y-87384121D01*
X216268342Y-87430614D01*
X216216000Y-87442000D01*
X163334000Y-87442000D01*
X163265879Y-87421998D01*
X163219386Y-87368342D01*
X163208000Y-87316000D01*
X163208000Y-79547095D01*
X167567001Y-79547095D01*
X167567338Y-79553614D01*
X167577257Y-79649206D01*
X167580149Y-79662600D01*
X167631588Y-79816784D01*
X167637761Y-79829962D01*
X167723063Y-79967807D01*
X167732099Y-79979208D01*
X167846829Y-80093739D01*
X167858240Y-80102751D01*
X167996243Y-80187816D01*
X168009424Y-80193963D01*
X168163710Y-80245138D01*
X168177086Y-80248005D01*
X168271438Y-80257672D01*
X168277854Y-80258000D01*
X168677885Y-80258000D01*
X168693124Y-80253525D01*
X168694329Y-80252135D01*
X168696000Y-80244452D01*
X168696000Y-80239884D01*
X169204000Y-80239884D01*
X169208475Y-80255123D01*
X169209865Y-80256328D01*
X169217548Y-80257999D01*
X169622095Y-80257999D01*
X169628614Y-80257662D01*
X169724206Y-80247743D01*
X169737600Y-80244851D01*
X169891784Y-80193412D01*
X169904962Y-80187239D01*
X170042807Y-80101937D01*
X170054208Y-80092901D01*
X170168739Y-79978171D01*
X170177751Y-79966760D01*
X170262816Y-79828757D01*
X170268963Y-79815576D01*
X170320138Y-79661290D01*
X170323005Y-79647914D01*
X170332672Y-79553562D01*
X170333000Y-79547146D01*
X170333000Y-79422115D01*
X170328525Y-79406876D01*
X170327135Y-79405671D01*
X170319452Y-79404000D01*
X169222115Y-79404000D01*
X169206876Y-79408475D01*
X169205671Y-79409865D01*
X169204000Y-79417548D01*
X169204000Y-80239884D01*
X168696000Y-80239884D01*
X168696000Y-79422115D01*
X168691525Y-79406876D01*
X168690135Y-79405671D01*
X168682452Y-79404000D01*
X167585116Y-79404000D01*
X167569877Y-79408475D01*
X167568672Y-79409865D01*
X167567001Y-79417548D01*
X167567001Y-79547095D01*
X163208000Y-79547095D01*
X163208000Y-74901297D01*
X163920677Y-74901297D01*
X163921022Y-74907884D01*
X163921022Y-74907889D01*
X163924327Y-74970942D01*
X163924500Y-74977536D01*
X163924500Y-74998504D01*
X163924844Y-75001776D01*
X163924844Y-75001778D01*
X163926692Y-75019364D01*
X163927209Y-75025938D01*
X163929190Y-75063727D01*
X163930859Y-75095578D01*
X163934618Y-75109607D01*
X163938221Y-75129049D01*
X163939738Y-75143482D01*
X163959124Y-75203145D01*
X163961285Y-75209797D01*
X163963157Y-75216115D01*
X163981212Y-75283497D01*
X163984208Y-75289377D01*
X163987805Y-75296437D01*
X163995370Y-75314700D01*
X163999856Y-75328508D01*
X164003156Y-75334224D01*
X164003157Y-75334226D01*
X164034734Y-75388919D01*
X164037882Y-75394717D01*
X164048982Y-75416503D01*
X164069535Y-75456840D01*
X164073690Y-75461972D01*
X164073692Y-75461974D01*
X164078674Y-75468127D01*
X164089867Y-75484412D01*
X164097130Y-75496992D01*
X164101550Y-75501901D01*
X164101553Y-75501905D01*
X164143796Y-75548821D01*
X164148080Y-75553836D01*
X164150252Y-75556518D01*
X164161275Y-75570130D01*
X164176090Y-75584945D01*
X164180631Y-75589729D01*
X164227308Y-75641569D01*
X164239064Y-75650110D01*
X164254092Y-75662947D01*
X166337054Y-77745909D01*
X166349893Y-77760941D01*
X166358431Y-77772692D01*
X166363333Y-77777105D01*
X166363334Y-77777107D01*
X166410271Y-77819369D01*
X166415055Y-77823910D01*
X166429870Y-77838725D01*
X166437525Y-77844924D01*
X166446164Y-77851920D01*
X166451179Y-77856204D01*
X166498095Y-77898447D01*
X166498099Y-77898450D01*
X166503008Y-77902870D01*
X166515588Y-77910133D01*
X166531873Y-77921326D01*
X166537883Y-77926192D01*
X166543160Y-77930465D01*
X166549044Y-77933463D01*
X166605283Y-77962118D01*
X166611081Y-77965266D01*
X166665774Y-77996843D01*
X166665776Y-77996844D01*
X166671492Y-78000144D01*
X166685299Y-78004630D01*
X166703563Y-78012195D01*
X166708482Y-78014701D01*
X166716503Y-78018788D01*
X166722876Y-78020496D01*
X166722877Y-78020496D01*
X166741598Y-78025512D01*
X166783885Y-78036843D01*
X166790196Y-78038713D01*
X166856518Y-78060262D01*
X166870951Y-78061779D01*
X166890393Y-78065382D01*
X166904422Y-78069141D01*
X166911012Y-78069486D01*
X166911016Y-78069487D01*
X166974064Y-78072791D01*
X166980639Y-78073308D01*
X166985077Y-78073774D01*
X167001496Y-78075500D01*
X167022465Y-78075500D01*
X167029059Y-78075673D01*
X167092112Y-78078978D01*
X167092117Y-78078978D01*
X167098704Y-78079323D01*
X167113050Y-78077051D01*
X167132759Y-78075500D01*
X167566304Y-78075500D01*
X167634425Y-78095502D01*
X167661469Y-78118919D01*
X167695090Y-78157664D01*
X167699221Y-78161051D01*
X167700072Y-78161749D01*
X167700335Y-78162134D01*
X167703041Y-78164766D01*
X167702505Y-78165317D01*
X167740067Y-78220409D01*
X167741998Y-78291379D01*
X167724637Y-78326113D01*
X167726090Y-78327009D01*
X167637184Y-78471243D01*
X167631037Y-78484424D01*
X167579862Y-78638710D01*
X167576995Y-78652086D01*
X167567328Y-78746438D01*
X167567000Y-78752855D01*
X167567000Y-78877885D01*
X167571475Y-78893124D01*
X167572865Y-78894329D01*
X167580548Y-78896000D01*
X170314884Y-78896000D01*
X170330123Y-78891525D01*
X170331328Y-78890135D01*
X170332999Y-78882452D01*
X170332999Y-78752905D01*
X170332662Y-78746386D01*
X170322743Y-78650794D01*
X170319851Y-78637400D01*
X170268412Y-78483216D01*
X170262239Y-78470038D01*
X170173083Y-78325965D01*
X170174765Y-78324924D01*
X170151876Y-78268366D01*
X170165049Y-78198603D01*
X170190288Y-78164747D01*
X170273843Y-78085040D01*
X170273848Y-78085035D01*
X170277705Y-78081355D01*
X170286793Y-78069141D01*
X170309430Y-78038715D01*
X170419579Y-77890670D01*
X170527295Y-77678807D01*
X170551363Y-77601297D01*
X170596193Y-77456919D01*
X170597775Y-77451824D01*
X170610855Y-77353139D01*
X170628304Y-77221494D01*
X170628304Y-77221491D01*
X170629004Y-77216211D01*
X170620087Y-76978705D01*
X170571281Y-76746096D01*
X170569322Y-76741135D01*
X170485941Y-76530002D01*
X170485940Y-76530000D01*
X170483980Y-76525037D01*
X170455496Y-76478096D01*
X170363448Y-76326407D01*
X170360681Y-76321847D01*
X170323753Y-76279291D01*
X170294214Y-76214731D01*
X170304268Y-76144450D01*
X170350723Y-76090762D01*
X170412324Y-76070884D01*
X170438983Y-76069487D01*
X170438986Y-76069486D01*
X170445578Y-76069141D01*
X170459607Y-76065382D01*
X170479049Y-76061779D01*
X170493482Y-76060262D01*
X170559804Y-76038713D01*
X170566115Y-76036843D01*
X170633497Y-76018788D01*
X170645218Y-76012816D01*
X170646437Y-76012195D01*
X170664701Y-76004630D01*
X170678508Y-76000144D01*
X170684224Y-75996844D01*
X170684226Y-75996843D01*
X170738919Y-75965266D01*
X170744717Y-75962118D01*
X170800956Y-75933463D01*
X170806840Y-75930465D01*
X170811974Y-75926308D01*
X170818127Y-75921326D01*
X170834412Y-75910133D01*
X170846992Y-75902870D01*
X170851901Y-75898450D01*
X170851905Y-75898447D01*
X170898821Y-75856204D01*
X170903836Y-75851920D01*
X170917566Y-75840801D01*
X170920130Y-75838725D01*
X170934945Y-75823910D01*
X170939729Y-75819369D01*
X170986666Y-75777107D01*
X170986667Y-75777105D01*
X170991569Y-75772692D01*
X171000110Y-75760936D01*
X171012947Y-75745908D01*
X171316450Y-75442405D01*
X171378762Y-75408379D01*
X171405545Y-75405500D01*
X171659271Y-75405500D01*
X171727392Y-75425502D01*
X171760229Y-75456111D01*
X171858551Y-75587781D01*
X171858556Y-75587787D01*
X171861343Y-75591519D01*
X171864658Y-75594805D01*
X171928149Y-75657745D01*
X171962446Y-75719908D01*
X171957690Y-75790745D01*
X171927091Y-75835726D01*
X171928004Y-75836608D01*
X171924761Y-75839967D01*
X171921268Y-75843084D01*
X171760695Y-76036152D01*
X171630424Y-76250832D01*
X171628615Y-76255146D01*
X171628614Y-76255148D01*
X171563389Y-76410693D01*
X171533315Y-76482411D01*
X171532164Y-76486943D01*
X171532163Y-76486946D01*
X171497587Y-76623091D01*
X171471502Y-76725799D01*
X171446344Y-76975650D01*
X171446568Y-76980316D01*
X171446568Y-76980322D01*
X171452018Y-77093773D01*
X171458392Y-77226476D01*
X171459305Y-77231064D01*
X171503217Y-77451824D01*
X171507382Y-77472765D01*
X171508961Y-77477163D01*
X171508963Y-77477170D01*
X171555896Y-77607889D01*
X171592237Y-77709108D01*
X171711095Y-77930313D01*
X171713890Y-77934056D01*
X171713892Y-77934059D01*
X171858551Y-78127781D01*
X171858556Y-78127787D01*
X171861343Y-78131519D01*
X171864658Y-78134805D01*
X171928149Y-78197745D01*
X171962446Y-78259908D01*
X171957690Y-78330745D01*
X171927091Y-78375726D01*
X171928004Y-78376608D01*
X171924761Y-78379967D01*
X171921268Y-78383084D01*
X171760695Y-78576152D01*
X171630424Y-78790832D01*
X171628615Y-78795146D01*
X171628614Y-78795148D01*
X171549809Y-78983078D01*
X171533315Y-79022411D01*
X171532164Y-79026943D01*
X171532163Y-79026946D01*
X171521430Y-79069210D01*
X171471502Y-79265799D01*
X171446344Y-79515650D01*
X171446568Y-79520316D01*
X171446568Y-79520322D01*
X171448323Y-79556851D01*
X171458392Y-79766476D01*
X171507382Y-80012765D01*
X171508961Y-80017163D01*
X171508963Y-80017170D01*
X171570024Y-80187239D01*
X171592237Y-80249108D01*
X171711095Y-80470313D01*
X171713890Y-80474056D01*
X171713892Y-80474059D01*
X171858551Y-80667781D01*
X171858556Y-80667787D01*
X171861343Y-80671519D01*
X171864658Y-80674805D01*
X171928149Y-80737745D01*
X171962446Y-80799908D01*
X171957690Y-80870745D01*
X171927091Y-80915726D01*
X171928004Y-80916608D01*
X171924761Y-80919967D01*
X171921268Y-80923084D01*
X171760695Y-81116152D01*
X171630424Y-81330832D01*
X171628615Y-81335146D01*
X171628614Y-81335148D01*
X171611918Y-81374965D01*
X171533315Y-81562411D01*
X171532164Y-81566943D01*
X171532163Y-81566946D01*
X171521430Y-81609210D01*
X171471502Y-81805799D01*
X171446344Y-82055650D01*
X171458392Y-82306476D01*
X171507382Y-82552765D01*
X171508961Y-82557163D01*
X171508963Y-82557170D01*
X171590654Y-82784699D01*
X171592237Y-82789108D01*
X171711095Y-83010313D01*
X171713890Y-83014056D01*
X171713892Y-83014059D01*
X171858551Y-83207781D01*
X171858556Y-83207787D01*
X171861343Y-83211519D01*
X171864652Y-83214799D01*
X171864657Y-83214805D01*
X171964362Y-83313643D01*
X171998658Y-83375806D01*
X171993903Y-83446643D01*
X171971467Y-83484956D01*
X171965809Y-83491581D01*
X171810165Y-83673818D01*
X171675393Y-83893745D01*
X171673500Y-83898315D01*
X171673498Y-83898319D01*
X171578577Y-84127479D01*
X171578575Y-84127485D01*
X171576685Y-84132048D01*
X171516470Y-84382858D01*
X171496233Y-84640000D01*
X171516470Y-84897142D01*
X171576685Y-85147952D01*
X171578575Y-85152515D01*
X171578577Y-85152521D01*
X171673498Y-85381681D01*
X171675393Y-85386255D01*
X171810165Y-85606182D01*
X171977681Y-85802319D01*
X172173818Y-85969835D01*
X172393745Y-86104607D01*
X172398315Y-86106500D01*
X172398319Y-86106502D01*
X172627479Y-86201423D01*
X172627485Y-86201425D01*
X172632048Y-86203315D01*
X172636848Y-86204467D01*
X172636853Y-86204469D01*
X172751825Y-86232071D01*
X172882858Y-86263530D01*
X173140000Y-86283767D01*
X173397142Y-86263530D01*
X173528175Y-86232071D01*
X173643147Y-86204469D01*
X173643152Y-86204467D01*
X173647952Y-86203315D01*
X173652515Y-86201425D01*
X173652521Y-86201423D01*
X173881681Y-86106502D01*
X173881685Y-86106500D01*
X173886255Y-86104607D01*
X174106182Y-85969835D01*
X174302319Y-85802319D01*
X174314189Y-85788421D01*
X174373639Y-85749611D01*
X174444634Y-85749104D01*
X174505811Y-85788421D01*
X174517681Y-85802319D01*
X174713818Y-85969835D01*
X174933745Y-86104607D01*
X174938315Y-86106500D01*
X174938319Y-86106502D01*
X175167479Y-86201423D01*
X175167485Y-86201425D01*
X175172048Y-86203315D01*
X175176848Y-86204467D01*
X175176853Y-86204469D01*
X175291825Y-86232071D01*
X175422858Y-86263530D01*
X175680000Y-86283767D01*
X175937142Y-86263530D01*
X176068175Y-86232071D01*
X176183147Y-86204469D01*
X176183152Y-86204467D01*
X176187952Y-86203315D01*
X176192515Y-86201425D01*
X176192521Y-86201423D01*
X176421681Y-86106502D01*
X176421685Y-86106500D01*
X176426255Y-86104607D01*
X176646182Y-85969835D01*
X176842319Y-85802319D01*
X176854189Y-85788421D01*
X176913639Y-85749611D01*
X176984634Y-85749104D01*
X177045811Y-85788421D01*
X177057681Y-85802319D01*
X177253818Y-85969835D01*
X177473745Y-86104607D01*
X177478315Y-86106500D01*
X177478319Y-86106502D01*
X177707479Y-86201423D01*
X177707485Y-86201425D01*
X177712048Y-86203315D01*
X177716848Y-86204467D01*
X177716853Y-86204469D01*
X177831825Y-86232071D01*
X177962858Y-86263530D01*
X178220000Y-86283767D01*
X178477142Y-86263530D01*
X178608175Y-86232071D01*
X178723147Y-86204469D01*
X178723152Y-86204467D01*
X178727952Y-86203315D01*
X178732515Y-86201425D01*
X178732521Y-86201423D01*
X178961681Y-86106502D01*
X178961685Y-86106500D01*
X178966255Y-86104607D01*
X179186182Y-85969835D01*
X179382319Y-85802319D01*
X179394189Y-85788421D01*
X179453639Y-85749611D01*
X179524634Y-85749104D01*
X179585811Y-85788421D01*
X179597681Y-85802319D01*
X179793818Y-85969835D01*
X180013745Y-86104607D01*
X180018315Y-86106500D01*
X180018319Y-86106502D01*
X180247479Y-86201423D01*
X180247485Y-86201425D01*
X180252048Y-86203315D01*
X180256848Y-86204467D01*
X180256853Y-86204469D01*
X180371825Y-86232071D01*
X180502858Y-86263530D01*
X180760000Y-86283767D01*
X181017142Y-86263530D01*
X181148175Y-86232071D01*
X181263147Y-86204469D01*
X181263152Y-86204467D01*
X181267952Y-86203315D01*
X181272515Y-86201425D01*
X181272521Y-86201423D01*
X181501681Y-86106502D01*
X181501685Y-86106500D01*
X181506255Y-86104607D01*
X181726182Y-85969835D01*
X181922319Y-85802319D01*
X181934189Y-85788421D01*
X181993639Y-85749611D01*
X182064634Y-85749104D01*
X182125811Y-85788421D01*
X182137681Y-85802319D01*
X182333818Y-85969835D01*
X182553745Y-86104607D01*
X182558315Y-86106500D01*
X182558319Y-86106502D01*
X182787479Y-86201423D01*
X182787485Y-86201425D01*
X182792048Y-86203315D01*
X182796848Y-86204467D01*
X182796853Y-86204469D01*
X182911825Y-86232071D01*
X183042858Y-86263530D01*
X183300000Y-86283767D01*
X183557142Y-86263530D01*
X183688175Y-86232071D01*
X183803147Y-86204469D01*
X183803152Y-86204467D01*
X183807952Y-86203315D01*
X183812515Y-86201425D01*
X183812521Y-86201423D01*
X184041681Y-86106502D01*
X184041685Y-86106500D01*
X184046255Y-86104607D01*
X184266182Y-85969835D01*
X184462319Y-85802319D01*
X184474189Y-85788421D01*
X184533639Y-85749611D01*
X184604634Y-85749104D01*
X184665811Y-85788421D01*
X184677681Y-85802319D01*
X184873818Y-85969835D01*
X185093745Y-86104607D01*
X185098315Y-86106500D01*
X185098319Y-86106502D01*
X185327479Y-86201423D01*
X185327485Y-86201425D01*
X185332048Y-86203315D01*
X185336848Y-86204467D01*
X185336853Y-86204469D01*
X185451825Y-86232071D01*
X185582858Y-86263530D01*
X185840000Y-86283767D01*
X186097142Y-86263530D01*
X186228175Y-86232071D01*
X186343147Y-86204469D01*
X186343152Y-86204467D01*
X186347952Y-86203315D01*
X186352515Y-86201425D01*
X186352521Y-86201423D01*
X186581681Y-86106502D01*
X186581685Y-86106500D01*
X186586255Y-86104607D01*
X186806182Y-85969835D01*
X187002319Y-85802319D01*
X187014189Y-85788421D01*
X187073639Y-85749611D01*
X187144634Y-85749104D01*
X187205811Y-85788421D01*
X187217681Y-85802319D01*
X187413818Y-85969835D01*
X187633745Y-86104607D01*
X187638315Y-86106500D01*
X187638319Y-86106502D01*
X187867479Y-86201423D01*
X187867485Y-86201425D01*
X187872048Y-86203315D01*
X187876848Y-86204467D01*
X187876853Y-86204469D01*
X187991825Y-86232071D01*
X188122858Y-86263530D01*
X188380000Y-86283767D01*
X188637142Y-86263530D01*
X188768175Y-86232071D01*
X188883147Y-86204469D01*
X188883152Y-86204467D01*
X188887952Y-86203315D01*
X188892515Y-86201425D01*
X188892521Y-86201423D01*
X189121681Y-86106502D01*
X189121685Y-86106500D01*
X189126255Y-86104607D01*
X189346182Y-85969835D01*
X189542319Y-85802319D01*
X189554189Y-85788421D01*
X189613639Y-85749611D01*
X189684634Y-85749104D01*
X189745811Y-85788421D01*
X189757681Y-85802319D01*
X189953818Y-85969835D01*
X190173745Y-86104607D01*
X190178315Y-86106500D01*
X190178319Y-86106502D01*
X190407479Y-86201423D01*
X190407485Y-86201425D01*
X190412048Y-86203315D01*
X190416848Y-86204467D01*
X190416853Y-86204469D01*
X190531825Y-86232071D01*
X190662858Y-86263530D01*
X190920000Y-86283767D01*
X191177142Y-86263530D01*
X191308175Y-86232071D01*
X191423147Y-86204469D01*
X191423152Y-86204467D01*
X191427952Y-86203315D01*
X191432515Y-86201425D01*
X191432521Y-86201423D01*
X191661681Y-86106502D01*
X191661685Y-86106500D01*
X191666255Y-86104607D01*
X191886182Y-85969835D01*
X192082319Y-85802319D01*
X192094189Y-85788421D01*
X192153639Y-85749611D01*
X192224634Y-85749104D01*
X192285811Y-85788421D01*
X192297681Y-85802319D01*
X192493818Y-85969835D01*
X192713745Y-86104607D01*
X192718315Y-86106500D01*
X192718319Y-86106502D01*
X192947479Y-86201423D01*
X192947485Y-86201425D01*
X192952048Y-86203315D01*
X192956848Y-86204467D01*
X192956853Y-86204469D01*
X193071825Y-86232071D01*
X193202858Y-86263530D01*
X193460000Y-86283767D01*
X193717142Y-86263530D01*
X193848175Y-86232071D01*
X193963147Y-86204469D01*
X193963152Y-86204467D01*
X193967952Y-86203315D01*
X193972515Y-86201425D01*
X193972521Y-86201423D01*
X194201681Y-86106502D01*
X194201685Y-86106500D01*
X194206255Y-86104607D01*
X194426182Y-85969835D01*
X194622319Y-85802319D01*
X194634189Y-85788421D01*
X194693639Y-85749611D01*
X194764634Y-85749104D01*
X194825811Y-85788421D01*
X194837681Y-85802319D01*
X195033818Y-85969835D01*
X195253745Y-86104607D01*
X195258315Y-86106500D01*
X195258319Y-86106502D01*
X195487479Y-86201423D01*
X195487485Y-86201425D01*
X195492048Y-86203315D01*
X195496848Y-86204467D01*
X195496853Y-86204469D01*
X195611825Y-86232071D01*
X195742858Y-86263530D01*
X196000000Y-86283767D01*
X196257142Y-86263530D01*
X196388175Y-86232071D01*
X196503147Y-86204469D01*
X196503152Y-86204467D01*
X196507952Y-86203315D01*
X196512515Y-86201425D01*
X196512521Y-86201423D01*
X196741681Y-86106502D01*
X196741685Y-86106500D01*
X196746255Y-86104607D01*
X196966182Y-85969835D01*
X197162319Y-85802319D01*
X197174189Y-85788421D01*
X197233639Y-85749611D01*
X197304634Y-85749104D01*
X197365811Y-85788421D01*
X197377681Y-85802319D01*
X197573818Y-85969835D01*
X197793745Y-86104607D01*
X197798315Y-86106500D01*
X197798319Y-86106502D01*
X198027479Y-86201423D01*
X198027485Y-86201425D01*
X198032048Y-86203315D01*
X198036848Y-86204467D01*
X198036853Y-86204469D01*
X198151825Y-86232071D01*
X198282858Y-86263530D01*
X198540000Y-86283767D01*
X198797142Y-86263530D01*
X198928175Y-86232071D01*
X199043147Y-86204469D01*
X199043152Y-86204467D01*
X199047952Y-86203315D01*
X199052515Y-86201425D01*
X199052521Y-86201423D01*
X199281681Y-86106502D01*
X199281685Y-86106500D01*
X199286255Y-86104607D01*
X199506182Y-85969835D01*
X199702319Y-85802319D01*
X199714189Y-85788421D01*
X199773639Y-85749611D01*
X199844634Y-85749104D01*
X199905811Y-85788421D01*
X199917681Y-85802319D01*
X200113818Y-85969835D01*
X200333745Y-86104607D01*
X200338315Y-86106500D01*
X200338319Y-86106502D01*
X200567479Y-86201423D01*
X200567485Y-86201425D01*
X200572048Y-86203315D01*
X200576848Y-86204467D01*
X200576853Y-86204469D01*
X200691825Y-86232071D01*
X200822858Y-86263530D01*
X201080000Y-86283767D01*
X201337142Y-86263530D01*
X201468175Y-86232071D01*
X201583147Y-86204469D01*
X201583152Y-86204467D01*
X201587952Y-86203315D01*
X201592515Y-86201425D01*
X201592521Y-86201423D01*
X201821681Y-86106502D01*
X201821685Y-86106500D01*
X201826255Y-86104607D01*
X202046182Y-85969835D01*
X202242319Y-85802319D01*
X202254189Y-85788421D01*
X202313639Y-85749611D01*
X202384634Y-85749104D01*
X202445811Y-85788421D01*
X202457681Y-85802319D01*
X202653818Y-85969835D01*
X202873745Y-86104607D01*
X202878315Y-86106500D01*
X202878319Y-86106502D01*
X203107479Y-86201423D01*
X203107485Y-86201425D01*
X203112048Y-86203315D01*
X203116848Y-86204467D01*
X203116853Y-86204469D01*
X203231825Y-86232071D01*
X203362858Y-86263530D01*
X203620000Y-86283767D01*
X203877142Y-86263530D01*
X204008175Y-86232071D01*
X204123147Y-86204469D01*
X204123152Y-86204467D01*
X204127952Y-86203315D01*
X204132515Y-86201425D01*
X204132521Y-86201423D01*
X204361681Y-86106502D01*
X204361685Y-86106500D01*
X204366255Y-86104607D01*
X204586182Y-85969835D01*
X204782319Y-85802319D01*
X204794189Y-85788421D01*
X204853639Y-85749611D01*
X204924634Y-85749104D01*
X204985811Y-85788421D01*
X204997681Y-85802319D01*
X205193818Y-85969835D01*
X205413745Y-86104607D01*
X205418315Y-86106500D01*
X205418319Y-86106502D01*
X205647479Y-86201423D01*
X205647485Y-86201425D01*
X205652048Y-86203315D01*
X205656848Y-86204467D01*
X205656853Y-86204469D01*
X205771825Y-86232071D01*
X205902858Y-86263530D01*
X206160000Y-86283767D01*
X206417142Y-86263530D01*
X206548175Y-86232071D01*
X206663147Y-86204469D01*
X206663152Y-86204467D01*
X206667952Y-86203315D01*
X206672515Y-86201425D01*
X206672521Y-86201423D01*
X206901681Y-86106502D01*
X206901685Y-86106500D01*
X206906255Y-86104607D01*
X207126182Y-85969835D01*
X207322319Y-85802319D01*
X207489835Y-85606182D01*
X207624607Y-85386255D01*
X207626502Y-85381681D01*
X207721423Y-85152521D01*
X207721425Y-85152515D01*
X207723315Y-85147952D01*
X207783530Y-84897142D01*
X207803767Y-84640000D01*
X207783530Y-84382858D01*
X207723315Y-84132048D01*
X207721425Y-84127485D01*
X207721423Y-84127479D01*
X207626502Y-83898319D01*
X207626500Y-83898315D01*
X207624607Y-83893745D01*
X207489835Y-83673818D01*
X207322319Y-83477681D01*
X207126182Y-83310165D01*
X206906255Y-83175393D01*
X206901685Y-83173500D01*
X206901681Y-83173498D01*
X206672521Y-83078577D01*
X206672515Y-83078575D01*
X206667952Y-83076685D01*
X206663152Y-83075533D01*
X206663147Y-83075531D01*
X206502829Y-83037042D01*
X206417142Y-83016470D01*
X206160000Y-82996233D01*
X205902858Y-83016470D01*
X205817171Y-83037042D01*
X205656853Y-83075531D01*
X205656848Y-83075533D01*
X205652048Y-83076685D01*
X205647485Y-83078575D01*
X205647479Y-83078577D01*
X205418319Y-83173498D01*
X205418315Y-83173500D01*
X205413745Y-83175393D01*
X205193818Y-83310165D01*
X204997681Y-83477681D01*
X204994468Y-83481443D01*
X204985811Y-83491579D01*
X204926361Y-83530389D01*
X204855366Y-83530896D01*
X204794189Y-83491579D01*
X204785532Y-83481443D01*
X204782319Y-83477681D01*
X204586182Y-83310165D01*
X204366255Y-83175393D01*
X204361685Y-83173500D01*
X204361681Y-83173498D01*
X204132521Y-83078577D01*
X204132515Y-83078575D01*
X204127952Y-83076685D01*
X204123152Y-83075533D01*
X204123147Y-83075531D01*
X203962829Y-83037042D01*
X203877142Y-83016470D01*
X203620000Y-82996233D01*
X203362858Y-83016470D01*
X203277171Y-83037042D01*
X203116853Y-83075531D01*
X203116848Y-83075533D01*
X203112048Y-83076685D01*
X203107485Y-83078575D01*
X203107479Y-83078577D01*
X202878319Y-83173498D01*
X202878315Y-83173500D01*
X202873745Y-83175393D01*
X202653818Y-83310165D01*
X202457681Y-83477681D01*
X202454468Y-83481443D01*
X202445811Y-83491579D01*
X202386361Y-83530389D01*
X202315366Y-83530896D01*
X202254189Y-83491579D01*
X202245532Y-83481443D01*
X202242319Y-83477681D01*
X202046182Y-83310165D01*
X201826255Y-83175393D01*
X201821685Y-83173500D01*
X201821681Y-83173498D01*
X201592521Y-83078577D01*
X201592515Y-83078575D01*
X201587952Y-83076685D01*
X201583152Y-83075533D01*
X201583147Y-83075531D01*
X201422829Y-83037042D01*
X201337142Y-83016470D01*
X201080000Y-82996233D01*
X200822858Y-83016470D01*
X200737171Y-83037042D01*
X200576853Y-83075531D01*
X200576848Y-83075533D01*
X200572048Y-83076685D01*
X200567485Y-83078575D01*
X200567479Y-83078577D01*
X200338319Y-83173498D01*
X200338315Y-83173500D01*
X200333745Y-83175393D01*
X200113818Y-83310165D01*
X199917681Y-83477681D01*
X199914468Y-83481443D01*
X199905811Y-83491579D01*
X199846361Y-83530389D01*
X199775366Y-83530896D01*
X199714189Y-83491579D01*
X199705532Y-83481443D01*
X199702319Y-83477681D01*
X199506182Y-83310165D01*
X199286255Y-83175393D01*
X199281685Y-83173500D01*
X199281681Y-83173498D01*
X199052521Y-83078577D01*
X199052515Y-83078575D01*
X199047952Y-83076685D01*
X199043152Y-83075533D01*
X199043147Y-83075531D01*
X198882829Y-83037042D01*
X198797142Y-83016470D01*
X198540000Y-82996233D01*
X198282858Y-83016470D01*
X198197171Y-83037042D01*
X198036853Y-83075531D01*
X198036848Y-83075533D01*
X198032048Y-83076685D01*
X198027485Y-83078575D01*
X198027479Y-83078577D01*
X197798319Y-83173498D01*
X197798315Y-83173500D01*
X197793745Y-83175393D01*
X197573818Y-83310165D01*
X197377681Y-83477681D01*
X197374468Y-83481443D01*
X197365811Y-83491579D01*
X197306361Y-83530389D01*
X197235366Y-83530896D01*
X197174189Y-83491579D01*
X197165532Y-83481443D01*
X197162319Y-83477681D01*
X196966182Y-83310165D01*
X196746255Y-83175393D01*
X196741685Y-83173500D01*
X196741681Y-83173498D01*
X196512521Y-83078577D01*
X196512515Y-83078575D01*
X196507952Y-83076685D01*
X196503152Y-83075533D01*
X196503147Y-83075531D01*
X196342829Y-83037042D01*
X196257142Y-83016470D01*
X196000000Y-82996233D01*
X195742858Y-83016470D01*
X195657171Y-83037042D01*
X195496853Y-83075531D01*
X195496848Y-83075533D01*
X195492048Y-83076685D01*
X195487485Y-83078575D01*
X195487479Y-83078577D01*
X195258319Y-83173498D01*
X195258315Y-83173500D01*
X195253745Y-83175393D01*
X195033818Y-83310165D01*
X194837681Y-83477681D01*
X194834468Y-83481443D01*
X194825811Y-83491579D01*
X194766361Y-83530389D01*
X194695366Y-83530896D01*
X194634189Y-83491579D01*
X194625532Y-83481443D01*
X194622319Y-83477681D01*
X194426182Y-83310165D01*
X194206255Y-83175393D01*
X194201685Y-83173500D01*
X194201681Y-83173498D01*
X193972521Y-83078577D01*
X193972515Y-83078575D01*
X193967952Y-83076685D01*
X193963152Y-83075533D01*
X193963147Y-83075531D01*
X193802829Y-83037042D01*
X193717142Y-83016470D01*
X193460000Y-82996233D01*
X193202858Y-83016470D01*
X193117171Y-83037042D01*
X192956853Y-83075531D01*
X192956848Y-83075533D01*
X192952048Y-83076685D01*
X192947485Y-83078575D01*
X192947479Y-83078577D01*
X192718319Y-83173498D01*
X192718315Y-83173500D01*
X192713745Y-83175393D01*
X192493818Y-83310165D01*
X192297681Y-83477681D01*
X192294468Y-83481443D01*
X192285811Y-83491579D01*
X192226361Y-83530389D01*
X192155366Y-83530896D01*
X192094189Y-83491579D01*
X192085532Y-83481443D01*
X192082319Y-83477681D01*
X191886182Y-83310165D01*
X191666255Y-83175393D01*
X191661685Y-83173500D01*
X191661681Y-83173498D01*
X191432521Y-83078577D01*
X191432515Y-83078575D01*
X191427952Y-83076685D01*
X191423152Y-83075533D01*
X191423147Y-83075531D01*
X191262829Y-83037042D01*
X191177142Y-83016470D01*
X190920000Y-82996233D01*
X190662858Y-83016470D01*
X190577171Y-83037042D01*
X190416853Y-83075531D01*
X190416848Y-83075533D01*
X190412048Y-83076685D01*
X190407485Y-83078575D01*
X190407479Y-83078577D01*
X190178319Y-83173498D01*
X190178315Y-83173500D01*
X190173745Y-83175393D01*
X189953818Y-83310165D01*
X189823330Y-83421612D01*
X189758541Y-83450643D01*
X189688341Y-83440038D01*
X189635018Y-83393163D01*
X189615500Y-83325801D01*
X189615500Y-80635037D01*
X189635502Y-80566916D01*
X189686661Y-80521597D01*
X189731339Y-80499998D01*
X189769266Y-80481664D01*
X189909620Y-80369620D01*
X190021664Y-80229266D01*
X190038997Y-80193412D01*
X190096761Y-80073919D01*
X190099827Y-80067577D01*
X190122861Y-79967807D01*
X190139026Y-79897788D01*
X190139028Y-79897777D01*
X190140226Y-79892589D01*
X190140500Y-79887837D01*
X190140500Y-79776499D01*
X190160502Y-79708379D01*
X190214158Y-79661886D01*
X190266500Y-79650500D01*
X190952275Y-79650499D01*
X191438500Y-79650499D01*
X191506621Y-79670501D01*
X191553114Y-79724157D01*
X191564500Y-79776499D01*
X191564501Y-80092901D01*
X191564501Y-80375336D01*
X191564821Y-80381673D01*
X191605541Y-80583623D01*
X191684711Y-80773817D01*
X191799316Y-80945011D01*
X191944989Y-81090684D01*
X192116183Y-81205289D01*
X192306377Y-81284459D01*
X192508327Y-81325179D01*
X192512993Y-81325415D01*
X192512998Y-81325416D01*
X192513075Y-81325420D01*
X192513093Y-81325420D01*
X192514663Y-81325500D01*
X192516260Y-81325500D01*
X193243422Y-81325499D01*
X193965336Y-81325499D01*
X193966892Y-81325420D01*
X193966909Y-81325420D01*
X193967003Y-81325415D01*
X193967005Y-81325415D01*
X193971673Y-81325179D01*
X194173623Y-81284459D01*
X194363817Y-81205289D01*
X194535011Y-81090684D01*
X194680684Y-80945011D01*
X194684111Y-80939893D01*
X194688027Y-80935125D01*
X194690001Y-80936746D01*
X194735960Y-80898418D01*
X194786128Y-80888000D01*
X210154742Y-80888000D01*
X210174451Y-80889551D01*
X210188797Y-80891823D01*
X210195384Y-80891478D01*
X210195389Y-80891478D01*
X210258442Y-80888173D01*
X210265036Y-80888000D01*
X210286004Y-80888000D01*
X210289276Y-80887656D01*
X210289278Y-80887656D01*
X210306864Y-80885808D01*
X210313438Y-80885291D01*
X210376483Y-80881987D01*
X210376486Y-80881986D01*
X210383078Y-80881641D01*
X210397107Y-80877882D01*
X210416549Y-80874279D01*
X210430982Y-80872762D01*
X210497304Y-80851213D01*
X210503615Y-80849343D01*
X210570997Y-80831288D01*
X210576877Y-80828292D01*
X210583937Y-80824695D01*
X210602201Y-80817130D01*
X210616008Y-80812644D01*
X210621724Y-80809344D01*
X210621726Y-80809343D01*
X210676419Y-80777766D01*
X210682217Y-80774618D01*
X210738456Y-80745963D01*
X210744340Y-80742965D01*
X210749474Y-80738808D01*
X210755627Y-80733826D01*
X210771912Y-80722633D01*
X210784492Y-80715370D01*
X210789401Y-80710950D01*
X210789405Y-80710947D01*
X210836321Y-80668704D01*
X210841336Y-80664420D01*
X210855066Y-80653301D01*
X210857630Y-80651225D01*
X210872445Y-80636410D01*
X210877229Y-80631869D01*
X210924166Y-80589607D01*
X210924167Y-80589605D01*
X210929069Y-80585192D01*
X210937610Y-80573436D01*
X210950447Y-80558408D01*
X213145908Y-78362947D01*
X213160936Y-78350110D01*
X213172692Y-78341569D01*
X213219369Y-78289729D01*
X213223910Y-78284945D01*
X213238725Y-78270130D01*
X213251920Y-78253836D01*
X213256204Y-78248821D01*
X213298447Y-78201905D01*
X213298450Y-78201901D01*
X213302870Y-78196992D01*
X213310133Y-78184412D01*
X213321326Y-78168127D01*
X213326308Y-78161974D01*
X213326310Y-78161972D01*
X213330465Y-78156840D01*
X213362118Y-78094717D01*
X213365266Y-78088919D01*
X213396843Y-78034226D01*
X213396844Y-78034224D01*
X213400144Y-78028508D01*
X213404630Y-78014700D01*
X213412195Y-77996437D01*
X213415792Y-77989377D01*
X213418788Y-77983497D01*
X213436843Y-77916115D01*
X213438715Y-77909797D01*
X213439894Y-77906170D01*
X213449568Y-77876394D01*
X213458222Y-77849761D01*
X213458222Y-77849760D01*
X213460262Y-77843482D01*
X213461779Y-77829049D01*
X213465382Y-77809607D01*
X213469141Y-77795578D01*
X213470341Y-77772692D01*
X213472791Y-77725938D01*
X213473308Y-77719364D01*
X213475156Y-77701778D01*
X213475156Y-77701776D01*
X213475500Y-77698504D01*
X213475500Y-77677536D01*
X213475673Y-77670942D01*
X213478978Y-77607889D01*
X213478978Y-77607884D01*
X213479323Y-77601297D01*
X213477051Y-77586951D01*
X213475500Y-77567242D01*
X213475500Y-75832759D01*
X213477051Y-75813048D01*
X213478291Y-75805220D01*
X213479323Y-75798704D01*
X213475673Y-75729059D01*
X213475500Y-75722465D01*
X213475500Y-75701496D01*
X213473308Y-75680639D01*
X213472791Y-75674064D01*
X213469487Y-75611016D01*
X213469486Y-75611012D01*
X213469141Y-75604422D01*
X213465382Y-75590393D01*
X213461779Y-75570951D01*
X213460952Y-75563084D01*
X213460262Y-75556518D01*
X213438713Y-75490196D01*
X213436841Y-75483878D01*
X213420496Y-75422877D01*
X213420496Y-75422876D01*
X213418788Y-75416503D01*
X213412195Y-75403563D01*
X213404630Y-75385299D01*
X213400144Y-75371492D01*
X213396843Y-75365774D01*
X213365266Y-75311081D01*
X213362118Y-75305283D01*
X213333463Y-75249044D01*
X213330465Y-75243160D01*
X213326308Y-75238026D01*
X213321326Y-75231873D01*
X213310131Y-75215585D01*
X213302870Y-75203008D01*
X213298450Y-75198099D01*
X213298447Y-75198095D01*
X213256204Y-75151179D01*
X213251920Y-75146164D01*
X213240801Y-75132434D01*
X213238725Y-75129870D01*
X213223910Y-75115055D01*
X213219369Y-75110271D01*
X213177107Y-75063334D01*
X213177105Y-75063333D01*
X213172692Y-75058431D01*
X213160941Y-75049893D01*
X213145909Y-75037054D01*
X212612946Y-74504091D01*
X212600104Y-74489056D01*
X212591569Y-74477308D01*
X212539729Y-74430631D01*
X212534945Y-74426090D01*
X212520130Y-74411275D01*
X212512438Y-74405046D01*
X212503836Y-74398080D01*
X212498821Y-74393796D01*
X212451905Y-74351553D01*
X212451901Y-74351550D01*
X212446992Y-74347130D01*
X212434412Y-74339867D01*
X212418127Y-74328674D01*
X212411974Y-74323692D01*
X212411972Y-74323690D01*
X212406840Y-74319535D01*
X212344717Y-74287882D01*
X212338919Y-74284734D01*
X212284226Y-74253157D01*
X212284224Y-74253156D01*
X212278508Y-74249856D01*
X212264700Y-74245370D01*
X212246437Y-74237805D01*
X212239377Y-74234208D01*
X212233497Y-74231212D01*
X212166115Y-74213157D01*
X212159804Y-74211287D01*
X212093482Y-74189738D01*
X212079049Y-74188221D01*
X212059607Y-74184618D01*
X212045578Y-74180859D01*
X212038986Y-74180514D01*
X212038983Y-74180513D01*
X211975938Y-74177209D01*
X211969364Y-74176692D01*
X211951778Y-74174844D01*
X211951776Y-74174844D01*
X211948504Y-74174500D01*
X211933696Y-74174500D01*
X211865575Y-74154498D01*
X211838530Y-74131080D01*
X211808410Y-74096369D01*
X211808407Y-74096367D01*
X211804910Y-74092336D01*
X211799928Y-74088251D01*
X211799665Y-74087866D01*
X211796959Y-74085234D01*
X211797495Y-74084683D01*
X211759933Y-74029591D01*
X211758002Y-73958621D01*
X211775363Y-73923887D01*
X211773910Y-73922991D01*
X211862816Y-73778757D01*
X211868963Y-73765576D01*
X211920138Y-73611290D01*
X211923005Y-73597914D01*
X211932672Y-73503562D01*
X211933000Y-73497146D01*
X211933000Y-73372115D01*
X211928525Y-73356876D01*
X211927135Y-73355671D01*
X211919452Y-73354000D01*
X209185116Y-73354000D01*
X209169877Y-73358475D01*
X209168672Y-73359865D01*
X209167001Y-73367548D01*
X209167001Y-73497095D01*
X209167338Y-73503614D01*
X209177257Y-73599206D01*
X209180149Y-73612600D01*
X209231588Y-73766784D01*
X209237761Y-73779962D01*
X209326917Y-73924035D01*
X209325235Y-73925076D01*
X209348124Y-73981634D01*
X209334951Y-74051397D01*
X209309712Y-74085253D01*
X209252668Y-74139670D01*
X209189572Y-74172217D01*
X209165697Y-74174500D01*
X208885545Y-74174500D01*
X208817424Y-74154498D01*
X208796450Y-74137595D01*
X207486740Y-72827885D01*
X209167000Y-72827885D01*
X209171475Y-72843124D01*
X209172865Y-72844329D01*
X209180548Y-72846000D01*
X210277885Y-72846000D01*
X210293124Y-72841525D01*
X210294329Y-72840135D01*
X210296000Y-72832452D01*
X210296000Y-72827885D01*
X210804000Y-72827885D01*
X210808475Y-72843124D01*
X210809865Y-72844329D01*
X210817548Y-72846000D01*
X211914884Y-72846000D01*
X211930123Y-72841525D01*
X211931328Y-72840135D01*
X211932999Y-72832452D01*
X211932999Y-72702905D01*
X211932662Y-72696386D01*
X211922743Y-72600794D01*
X211919851Y-72587400D01*
X211868412Y-72433216D01*
X211862239Y-72420038D01*
X211776937Y-72282193D01*
X211767901Y-72270792D01*
X211653171Y-72156261D01*
X211641760Y-72147249D01*
X211503757Y-72062184D01*
X211490576Y-72056037D01*
X211336290Y-72004862D01*
X211322914Y-72001995D01*
X211228562Y-71992328D01*
X211222145Y-71992000D01*
X210822115Y-71992000D01*
X210806876Y-71996475D01*
X210805671Y-71997865D01*
X210804000Y-72005548D01*
X210804000Y-72827885D01*
X210296000Y-72827885D01*
X210296000Y-72010116D01*
X210291525Y-71994877D01*
X210290135Y-71993672D01*
X210282452Y-71992001D01*
X209877905Y-71992001D01*
X209871386Y-71992338D01*
X209775794Y-72002257D01*
X209762400Y-72005149D01*
X209608216Y-72056588D01*
X209595038Y-72062761D01*
X209457193Y-72148063D01*
X209445792Y-72157099D01*
X209331261Y-72271829D01*
X209322249Y-72283240D01*
X209237184Y-72421243D01*
X209231037Y-72434424D01*
X209179862Y-72588710D01*
X209176995Y-72602086D01*
X209167328Y-72696438D01*
X209167000Y-72702855D01*
X209167000Y-72827885D01*
X207486740Y-72827885D01*
X207122405Y-72463550D01*
X207088379Y-72401238D01*
X207085500Y-72374455D01*
X207085500Y-70822667D01*
X207105502Y-70754546D01*
X207129670Y-70726856D01*
X207302731Y-70579049D01*
X207322319Y-70562319D01*
X207489835Y-70366182D01*
X207624607Y-70146255D01*
X207634606Y-70122115D01*
X207721423Y-69912521D01*
X207721425Y-69912515D01*
X207723315Y-69907952D01*
X207783530Y-69657142D01*
X207803767Y-69400000D01*
X207799996Y-69352086D01*
X207783890Y-69147428D01*
X207798486Y-69077948D01*
X207820407Y-69048448D01*
X213045908Y-63822947D01*
X213060936Y-63810110D01*
X213072692Y-63801569D01*
X213119369Y-63749729D01*
X213123910Y-63744945D01*
X213138725Y-63730130D01*
X213151920Y-63713836D01*
X213156204Y-63708821D01*
X213198447Y-63661905D01*
X213198450Y-63661901D01*
X213202870Y-63656992D01*
X213210133Y-63644412D01*
X213221326Y-63628127D01*
X213226308Y-63621974D01*
X213226310Y-63621972D01*
X213230465Y-63616840D01*
X213262118Y-63554717D01*
X213265266Y-63548919D01*
X213296843Y-63494226D01*
X213296844Y-63494224D01*
X213300144Y-63488508D01*
X213304630Y-63474700D01*
X213312195Y-63456437D01*
X213315792Y-63449377D01*
X213318788Y-63443497D01*
X213336843Y-63376115D01*
X213338715Y-63369797D01*
X213358222Y-63309761D01*
X213358222Y-63309760D01*
X213360262Y-63303482D01*
X213361779Y-63289049D01*
X213365382Y-63269607D01*
X213369141Y-63255578D01*
X213369745Y-63244068D01*
X213372791Y-63185938D01*
X213373308Y-63179364D01*
X213375156Y-63161778D01*
X213375156Y-63161776D01*
X213375500Y-63158504D01*
X213375500Y-63137536D01*
X213375673Y-63130942D01*
X213378978Y-63067889D01*
X213378978Y-63067884D01*
X213379323Y-63061297D01*
X213377051Y-63046951D01*
X213375500Y-63027242D01*
X213375500Y-59882758D01*
X213377051Y-59863047D01*
X213378291Y-59855219D01*
X213379323Y-59848703D01*
X213377267Y-59809459D01*
X213375673Y-59779058D01*
X213375500Y-59772464D01*
X213375500Y-59751496D01*
X213373520Y-59732656D01*
X213373308Y-59730636D01*
X213372791Y-59724062D01*
X213369487Y-59661017D01*
X213369486Y-59661014D01*
X213369141Y-59654422D01*
X213365382Y-59640393D01*
X213361779Y-59620951D01*
X213360262Y-59606518D01*
X213338713Y-59540196D01*
X213336841Y-59533878D01*
X213320496Y-59472877D01*
X213320496Y-59472876D01*
X213318788Y-59466503D01*
X213312195Y-59453563D01*
X213304630Y-59435299D01*
X213300144Y-59421492D01*
X213295434Y-59413334D01*
X213265266Y-59361081D01*
X213262118Y-59355283D01*
X213233463Y-59299044D01*
X213230465Y-59293160D01*
X213226308Y-59288026D01*
X213221326Y-59281873D01*
X213210131Y-59265585D01*
X213202870Y-59253008D01*
X213198450Y-59248099D01*
X213198447Y-59248095D01*
X213156204Y-59201179D01*
X213151920Y-59196164D01*
X213140801Y-59182434D01*
X213138725Y-59179870D01*
X213123910Y-59165055D01*
X213119369Y-59160271D01*
X213077107Y-59113334D01*
X213077105Y-59113333D01*
X213072692Y-59108431D01*
X213060941Y-59099893D01*
X213045909Y-59087054D01*
X211800447Y-57841591D01*
X211787609Y-57826562D01*
X211782947Y-57820146D01*
X211779069Y-57814808D01*
X211759283Y-57796992D01*
X211727229Y-57768131D01*
X211722445Y-57763590D01*
X211707630Y-57748775D01*
X211699975Y-57742576D01*
X211691336Y-57735580D01*
X211686321Y-57731297D01*
X211647799Y-57696612D01*
X211615784Y-57651396D01*
X211607656Y-57631869D01*
X211607655Y-57631868D01*
X211605289Y-57626183D01*
X211490684Y-57454989D01*
X211345011Y-57309316D01*
X211173817Y-57194711D01*
X211168131Y-57192344D01*
X211168127Y-57192342D01*
X211095231Y-57161999D01*
X211040027Y-57117355D01*
X211021945Y-57078286D01*
X211018788Y-57066503D01*
X211012195Y-57053563D01*
X211004630Y-57035299D01*
X211003805Y-57032759D01*
X211000144Y-57021492D01*
X210996843Y-57015774D01*
X210965266Y-56961081D01*
X210962118Y-56955283D01*
X210933463Y-56899044D01*
X210930465Y-56893160D01*
X210926308Y-56888026D01*
X210921326Y-56881873D01*
X210910131Y-56865585D01*
X210902870Y-56853008D01*
X210898450Y-56848099D01*
X210898447Y-56848095D01*
X210856204Y-56801179D01*
X210851920Y-56796164D01*
X210840801Y-56782434D01*
X210838725Y-56779870D01*
X210823910Y-56765055D01*
X210819369Y-56760271D01*
X210777107Y-56713334D01*
X210777105Y-56713333D01*
X210772692Y-56708431D01*
X210760938Y-56699891D01*
X210745909Y-56687054D01*
X209962404Y-55903549D01*
X209928380Y-55841238D01*
X209925500Y-55814455D01*
X209925500Y-51683696D01*
X209945502Y-51615575D01*
X209968920Y-51588530D01*
X209973672Y-51584407D01*
X210007664Y-51554910D01*
X210011749Y-51549928D01*
X210012134Y-51549665D01*
X210014766Y-51546959D01*
X210015317Y-51547495D01*
X210070409Y-51509933D01*
X210141379Y-51508002D01*
X210176113Y-51525363D01*
X210177009Y-51523910D01*
X210321243Y-51612816D01*
X210334424Y-51618963D01*
X210488710Y-51670138D01*
X210502086Y-51673005D01*
X210596438Y-51682672D01*
X210602854Y-51683000D01*
X210727885Y-51683000D01*
X210743124Y-51678525D01*
X210744329Y-51677135D01*
X210746000Y-51669452D01*
X210746000Y-51664884D01*
X211254000Y-51664884D01*
X211258475Y-51680123D01*
X211259865Y-51681328D01*
X211267548Y-51682999D01*
X211397095Y-51682999D01*
X211403614Y-51682662D01*
X211499206Y-51672743D01*
X211512600Y-51669851D01*
X211666784Y-51618412D01*
X211679962Y-51612239D01*
X211817807Y-51526937D01*
X211829208Y-51517901D01*
X211943739Y-51403171D01*
X211952751Y-51391760D01*
X212037816Y-51253757D01*
X212043963Y-51240576D01*
X212095138Y-51086290D01*
X212098005Y-51072914D01*
X212107672Y-50978562D01*
X212108000Y-50972146D01*
X212108000Y-50572115D01*
X212103525Y-50556876D01*
X212102135Y-50555671D01*
X212094452Y-50554000D01*
X211272115Y-50554000D01*
X211256876Y-50558475D01*
X211255671Y-50559865D01*
X211254000Y-50567548D01*
X211254000Y-51664884D01*
X210746000Y-51664884D01*
X210746000Y-50027885D01*
X211254000Y-50027885D01*
X211258475Y-50043124D01*
X211259865Y-50044329D01*
X211267548Y-50046000D01*
X212089884Y-50046000D01*
X212105123Y-50041525D01*
X212106328Y-50040135D01*
X212107999Y-50032452D01*
X212107999Y-49627905D01*
X212107662Y-49621386D01*
X212097743Y-49525794D01*
X212094851Y-49512400D01*
X212043412Y-49358216D01*
X212037239Y-49345038D01*
X211951937Y-49207193D01*
X211942901Y-49195792D01*
X211828171Y-49081261D01*
X211816760Y-49072249D01*
X211678757Y-48987184D01*
X211665576Y-48981037D01*
X211511290Y-48929862D01*
X211497914Y-48926995D01*
X211403562Y-48917328D01*
X211397145Y-48917000D01*
X211272115Y-48917000D01*
X211256876Y-48921475D01*
X211255671Y-48922865D01*
X211254000Y-48930548D01*
X211254000Y-50027885D01*
X210746000Y-50027885D01*
X210746000Y-48935116D01*
X210741525Y-48919877D01*
X210740135Y-48918672D01*
X210732452Y-48917001D01*
X210602905Y-48917001D01*
X210596386Y-48917338D01*
X210500794Y-48927257D01*
X210487400Y-48930149D01*
X210333216Y-48981588D01*
X210320038Y-48987761D01*
X210175965Y-49076917D01*
X210174924Y-49075235D01*
X210118366Y-49098124D01*
X210048603Y-49084951D01*
X210014747Y-49059712D01*
X209960330Y-49002668D01*
X209927783Y-48939572D01*
X209925500Y-48915697D01*
X209925500Y-47732758D01*
X209927051Y-47713047D01*
X209928291Y-47705219D01*
X209929323Y-47698703D01*
X209928884Y-47690316D01*
X209925673Y-47629058D01*
X209925500Y-47622464D01*
X209925500Y-47601496D01*
X209925156Y-47598222D01*
X209923308Y-47580636D01*
X209922791Y-47574062D01*
X209919487Y-47511017D01*
X209919486Y-47511014D01*
X209919141Y-47504422D01*
X209915382Y-47490393D01*
X209911779Y-47470951D01*
X209910952Y-47463084D01*
X209910262Y-47456518D01*
X209888713Y-47390196D01*
X209886841Y-47383878D01*
X209886041Y-47380890D01*
X209868788Y-47316503D01*
X209862195Y-47303563D01*
X209854630Y-47285299D01*
X209850144Y-47271492D01*
X209846843Y-47265774D01*
X209815266Y-47211081D01*
X209812118Y-47205283D01*
X209783463Y-47149044D01*
X209780465Y-47143160D01*
X209776308Y-47138026D01*
X209771326Y-47131873D01*
X209760131Y-47115585D01*
X209752870Y-47103008D01*
X209748450Y-47098099D01*
X209748447Y-47098095D01*
X209706204Y-47051179D01*
X209701920Y-47046164D01*
X209690801Y-47032434D01*
X209688725Y-47029870D01*
X209673910Y-47015055D01*
X209669369Y-47010271D01*
X209627107Y-46963334D01*
X209627105Y-46963333D01*
X209622692Y-46958431D01*
X209610941Y-46949893D01*
X209595909Y-46937054D01*
X208612947Y-45954091D01*
X208600109Y-45939062D01*
X208595447Y-45932646D01*
X208591569Y-45927308D01*
X208539729Y-45880631D01*
X208534945Y-45876090D01*
X208520130Y-45861275D01*
X208512475Y-45855076D01*
X208503836Y-45848080D01*
X208498821Y-45843796D01*
X208451905Y-45801553D01*
X208451901Y-45801550D01*
X208446992Y-45797130D01*
X208434412Y-45789867D01*
X208418127Y-45778674D01*
X208411974Y-45773692D01*
X208411972Y-45773690D01*
X208406840Y-45769535D01*
X208344717Y-45737882D01*
X208338919Y-45734734D01*
X208284226Y-45703157D01*
X208284224Y-45703156D01*
X208278508Y-45699856D01*
X208264700Y-45695370D01*
X208246437Y-45687805D01*
X208239377Y-45684208D01*
X208233497Y-45681212D01*
X208166115Y-45663157D01*
X208159804Y-45661287D01*
X208093482Y-45639738D01*
X208079049Y-45638221D01*
X208059607Y-45634618D01*
X208045578Y-45630859D01*
X208038986Y-45630514D01*
X208038983Y-45630513D01*
X207975938Y-45627209D01*
X207969364Y-45626692D01*
X207951778Y-45624844D01*
X207951776Y-45624844D01*
X207948504Y-45624500D01*
X207927536Y-45624500D01*
X207920942Y-45624327D01*
X207857889Y-45621022D01*
X207857884Y-45621022D01*
X207851297Y-45620677D01*
X207836951Y-45622949D01*
X207817242Y-45624500D01*
X193082759Y-45624500D01*
X193063050Y-45622949D01*
X193048704Y-45620677D01*
X193042117Y-45621022D01*
X193042112Y-45621022D01*
X192979059Y-45624327D01*
X192972465Y-45624500D01*
X192951496Y-45624500D01*
X192935077Y-45626226D01*
X192930639Y-45626692D01*
X192924064Y-45627209D01*
X192861016Y-45630513D01*
X192861012Y-45630514D01*
X192854422Y-45630859D01*
X192840393Y-45634618D01*
X192820951Y-45638221D01*
X192806518Y-45639738D01*
X192740196Y-45661287D01*
X192733885Y-45663157D01*
X192666503Y-45681212D01*
X192660623Y-45684208D01*
X192653563Y-45687805D01*
X192635300Y-45695370D01*
X192621492Y-45699856D01*
X192615776Y-45703156D01*
X192615774Y-45703157D01*
X192561081Y-45734734D01*
X192555283Y-45737882D01*
X192493160Y-45769535D01*
X192488028Y-45773690D01*
X192488026Y-45773692D01*
X192481873Y-45778674D01*
X192465588Y-45789867D01*
X192453008Y-45797130D01*
X192448099Y-45801550D01*
X192448095Y-45801553D01*
X192401179Y-45843796D01*
X192396164Y-45848080D01*
X192387525Y-45855076D01*
X192379870Y-45861275D01*
X192365055Y-45876090D01*
X192360271Y-45880631D01*
X192308431Y-45927308D01*
X192304553Y-45932646D01*
X192299896Y-45939056D01*
X192287054Y-45954091D01*
X192103550Y-46137595D01*
X192041238Y-46171621D01*
X192014455Y-46174500D01*
X185827536Y-46174500D01*
X185820942Y-46174327D01*
X185757889Y-46171022D01*
X185757884Y-46171022D01*
X185751297Y-46170677D01*
X185736951Y-46172949D01*
X185717242Y-46174500D01*
X177932758Y-46174500D01*
X177913049Y-46172949D01*
X177898703Y-46170677D01*
X177892116Y-46171022D01*
X177892111Y-46171022D01*
X177829058Y-46174327D01*
X177822464Y-46174500D01*
X177801496Y-46174500D01*
X177798224Y-46174844D01*
X177798222Y-46174844D01*
X177780636Y-46176692D01*
X177774062Y-46177209D01*
X177711017Y-46180513D01*
X177711014Y-46180514D01*
X177704422Y-46180859D01*
X177690393Y-46184618D01*
X177670951Y-46188221D01*
X177656518Y-46189738D01*
X177590196Y-46211287D01*
X177583885Y-46213157D01*
X177516503Y-46231212D01*
X177510623Y-46234208D01*
X177503563Y-46237805D01*
X177485300Y-46245370D01*
X177471492Y-46249856D01*
X177465776Y-46253156D01*
X177465774Y-46253157D01*
X177411081Y-46284734D01*
X177405283Y-46287882D01*
X177343160Y-46319535D01*
X177338028Y-46323690D01*
X177338026Y-46323692D01*
X177331873Y-46328674D01*
X177315588Y-46339867D01*
X177303008Y-46347130D01*
X177298099Y-46351550D01*
X177298095Y-46351553D01*
X177251179Y-46393796D01*
X177246164Y-46398080D01*
X177237525Y-46405076D01*
X177229870Y-46411275D01*
X177215055Y-46426090D01*
X177210271Y-46430631D01*
X177158431Y-46477308D01*
X177149896Y-46489056D01*
X177137054Y-46504091D01*
X176153550Y-47487595D01*
X176091238Y-47521621D01*
X176064455Y-47524500D01*
X174737385Y-47524500D01*
X174669264Y-47504498D01*
X174648290Y-47487595D01*
X174545011Y-47384316D01*
X174373817Y-47269711D01*
X174183623Y-47190541D01*
X173981673Y-47149821D01*
X173977007Y-47149585D01*
X173977002Y-47149584D01*
X173976925Y-47149580D01*
X173976907Y-47149580D01*
X173975337Y-47149500D01*
X173973740Y-47149500D01*
X173397286Y-47149501D01*
X172824664Y-47149501D01*
X172823108Y-47149580D01*
X172823091Y-47149580D01*
X172822997Y-47149585D01*
X172822995Y-47149585D01*
X172818327Y-47149821D01*
X172616377Y-47190541D01*
X172426183Y-47269711D01*
X172254989Y-47384316D01*
X172151710Y-47487595D01*
X172089398Y-47521621D01*
X172062615Y-47524500D01*
X167832759Y-47524500D01*
X167813050Y-47522949D01*
X167798704Y-47520677D01*
X167792116Y-47521022D01*
X167792112Y-47521022D01*
X167729052Y-47524327D01*
X167722458Y-47524500D01*
X167701496Y-47524500D01*
X167698225Y-47524844D01*
X167698222Y-47524844D01*
X167680645Y-47526691D01*
X167674070Y-47527208D01*
X167611018Y-47530512D01*
X167611014Y-47530513D01*
X167604423Y-47530858D01*
X167590380Y-47534621D01*
X167570962Y-47538220D01*
X167556518Y-47539738D01*
X167490170Y-47561295D01*
X167483932Y-47563144D01*
X167416503Y-47581212D01*
X167410620Y-47584210D01*
X167410619Y-47584210D01*
X167403563Y-47587805D01*
X167385300Y-47595370D01*
X167371492Y-47599856D01*
X167365776Y-47603156D01*
X167365774Y-47603157D01*
X167311081Y-47634734D01*
X167305283Y-47637882D01*
X167249047Y-47666535D01*
X167249044Y-47666537D01*
X167243160Y-47669535D01*
X167238024Y-47673694D01*
X167231879Y-47678670D01*
X167215596Y-47689862D01*
X167203008Y-47697130D01*
X167198098Y-47701551D01*
X167151179Y-47743797D01*
X167146163Y-47748081D01*
X167129871Y-47761275D01*
X167115065Y-47776081D01*
X167110281Y-47780622D01*
X167058431Y-47827308D01*
X167054552Y-47832647D01*
X167049892Y-47839061D01*
X167037051Y-47854095D01*
X166304093Y-48587053D01*
X166289063Y-48599891D01*
X166277308Y-48608431D01*
X166272887Y-48613341D01*
X166230630Y-48660272D01*
X166226089Y-48665056D01*
X166211275Y-48679870D01*
X166209199Y-48682434D01*
X166198080Y-48696164D01*
X166193796Y-48701179D01*
X166151553Y-48748095D01*
X166151550Y-48748099D01*
X166147130Y-48753008D01*
X166140750Y-48764059D01*
X166139869Y-48765585D01*
X166128674Y-48781873D01*
X166123692Y-48788026D01*
X166119535Y-48793160D01*
X166116537Y-48799044D01*
X166087882Y-48855283D01*
X166084734Y-48861081D01*
X166053157Y-48915774D01*
X166049856Y-48921492D01*
X166046914Y-48930548D01*
X166045370Y-48935299D01*
X166037805Y-48953563D01*
X166031212Y-48966503D01*
X166029504Y-48972876D01*
X166029504Y-48972877D01*
X166013159Y-49033878D01*
X166011287Y-49040196D01*
X165989738Y-49106518D01*
X165989048Y-49113084D01*
X165988221Y-49120951D01*
X165984618Y-49140393D01*
X165980859Y-49154422D01*
X165980514Y-49161014D01*
X165980513Y-49161017D01*
X165977209Y-49224062D01*
X165976692Y-49230636D01*
X165976389Y-49233519D01*
X165974500Y-49251496D01*
X165974500Y-49266304D01*
X165954498Y-49334425D01*
X165931080Y-49361470D01*
X165897695Y-49390440D01*
X165892336Y-49395090D01*
X165888953Y-49399216D01*
X165888949Y-49399220D01*
X165797034Y-49511319D01*
X165741638Y-49578880D01*
X165624061Y-49785433D01*
X165542966Y-50008844D01*
X165542017Y-50014092D01*
X165530482Y-50077885D01*
X165500674Y-50242725D01*
X165499500Y-50267619D01*
X165499500Y-50984680D01*
X165500524Y-50996744D01*
X165512829Y-51141760D01*
X165514531Y-51161823D01*
X165515869Y-51166978D01*
X165515870Y-51166984D01*
X165551669Y-51304910D01*
X165574240Y-51391874D01*
X165593353Y-51434303D01*
X165666792Y-51597331D01*
X165671857Y-51608576D01*
X165674836Y-51613000D01*
X165674836Y-51613001D01*
X165691730Y-51638094D01*
X165804591Y-51805732D01*
X165968645Y-51977705D01*
X166159330Y-52119579D01*
X166371193Y-52227295D01*
X166376284Y-52228876D01*
X166376287Y-52228877D01*
X166593081Y-52296193D01*
X166598176Y-52297775D01*
X166603465Y-52298476D01*
X166828506Y-52328304D01*
X166828509Y-52328304D01*
X166833789Y-52329004D01*
X166839118Y-52328804D01*
X166839119Y-52328804D01*
X166936159Y-52325161D01*
X167071295Y-52320087D01*
X167303904Y-52271281D01*
X167308863Y-52269323D01*
X167308865Y-52269322D01*
X167519998Y-52185941D01*
X167520000Y-52185940D01*
X167524963Y-52183980D01*
X167728153Y-52060681D01*
X167732183Y-52057184D01*
X167903631Y-51908410D01*
X167903633Y-51908408D01*
X167907664Y-51904910D01*
X167911749Y-51899928D01*
X167912134Y-51899665D01*
X167914766Y-51896959D01*
X167915317Y-51897495D01*
X167970409Y-51859933D01*
X168041379Y-51858002D01*
X168076113Y-51875363D01*
X168077009Y-51873910D01*
X168221243Y-51962816D01*
X168234424Y-51968963D01*
X168388710Y-52020138D01*
X168402086Y-52023005D01*
X168496438Y-52032672D01*
X168502854Y-52033000D01*
X168627885Y-52033000D01*
X168643124Y-52028525D01*
X168644329Y-52027135D01*
X168646000Y-52019452D01*
X168646000Y-52014884D01*
X169154000Y-52014884D01*
X169158475Y-52030123D01*
X169159865Y-52031328D01*
X169167548Y-52032999D01*
X169297095Y-52032999D01*
X169303614Y-52032662D01*
X169399206Y-52022743D01*
X169412600Y-52019851D01*
X169566784Y-51968412D01*
X169579962Y-51962239D01*
X169717807Y-51876937D01*
X169729208Y-51867901D01*
X169843739Y-51753171D01*
X169852751Y-51741760D01*
X169937816Y-51603757D01*
X169943963Y-51590576D01*
X169995138Y-51436290D01*
X169998005Y-51422914D01*
X170007672Y-51328562D01*
X170008000Y-51322146D01*
X170008000Y-50922115D01*
X170003525Y-50906876D01*
X170002135Y-50905671D01*
X169994452Y-50904000D01*
X169172115Y-50904000D01*
X169156876Y-50908475D01*
X169155671Y-50909865D01*
X169154000Y-50917548D01*
X169154000Y-52014884D01*
X168646000Y-52014884D01*
X168646000Y-50647095D01*
X172167001Y-50647095D01*
X172167338Y-50653614D01*
X172177257Y-50749206D01*
X172180149Y-50762600D01*
X172231588Y-50916784D01*
X172237761Y-50929962D01*
X172323063Y-51067807D01*
X172332099Y-51079208D01*
X172446829Y-51193739D01*
X172458240Y-51202751D01*
X172596243Y-51287816D01*
X172609424Y-51293963D01*
X172763710Y-51345138D01*
X172777086Y-51348005D01*
X172871438Y-51357672D01*
X172877854Y-51358000D01*
X173127885Y-51358000D01*
X173143124Y-51353525D01*
X173144329Y-51352135D01*
X173146000Y-51344452D01*
X173146000Y-51339884D01*
X173654000Y-51339884D01*
X173658475Y-51355123D01*
X173659865Y-51356328D01*
X173667548Y-51357999D01*
X173922095Y-51357999D01*
X173928614Y-51357662D01*
X174024206Y-51347743D01*
X174037600Y-51344851D01*
X174191784Y-51293412D01*
X174204962Y-51287239D01*
X174342807Y-51201937D01*
X174354208Y-51192901D01*
X174468739Y-51078171D01*
X174477751Y-51066760D01*
X174562816Y-50928757D01*
X174568963Y-50915576D01*
X174620138Y-50761290D01*
X174623005Y-50747914D01*
X174632672Y-50653562D01*
X174633000Y-50647146D01*
X174633000Y-50622115D01*
X174628525Y-50606876D01*
X174627135Y-50605671D01*
X174619452Y-50604000D01*
X173672115Y-50604000D01*
X173656876Y-50608475D01*
X173655671Y-50609865D01*
X173654000Y-50617548D01*
X173654000Y-51339884D01*
X173146000Y-51339884D01*
X173146000Y-50622115D01*
X173141525Y-50606876D01*
X173140135Y-50605671D01*
X173132452Y-50604000D01*
X172185116Y-50604000D01*
X172169877Y-50608475D01*
X172168672Y-50609865D01*
X172167001Y-50617548D01*
X172167001Y-50647095D01*
X168646000Y-50647095D01*
X168646000Y-50522000D01*
X168666002Y-50453879D01*
X168719658Y-50407386D01*
X168772000Y-50396000D01*
X169989884Y-50396000D01*
X170005123Y-50391525D01*
X170006328Y-50390135D01*
X170007999Y-50382452D01*
X170007999Y-49977905D01*
X170007662Y-49971386D01*
X169997743Y-49875794D01*
X169994851Y-49862400D01*
X169943412Y-49708216D01*
X169937238Y-49695038D01*
X169858503Y-49567803D01*
X169839665Y-49499351D01*
X169860826Y-49431581D01*
X169915267Y-49386010D01*
X169965647Y-49375500D01*
X172062615Y-49375500D01*
X172130736Y-49395502D01*
X172151710Y-49412405D01*
X172254989Y-49515684D01*
X172260119Y-49519119D01*
X172263054Y-49521529D01*
X172302997Y-49580224D01*
X172304867Y-49651196D01*
X172290338Y-49685010D01*
X172237184Y-49771243D01*
X172231037Y-49784424D01*
X172179862Y-49938710D01*
X172176995Y-49952086D01*
X172167328Y-50046438D01*
X172167000Y-50052855D01*
X172167000Y-50077885D01*
X172171475Y-50093124D01*
X172172865Y-50094329D01*
X172180548Y-50096000D01*
X174614884Y-50096000D01*
X174630123Y-50091525D01*
X174631328Y-50090135D01*
X174632999Y-50082452D01*
X174632999Y-50052905D01*
X174632662Y-50046386D01*
X174622743Y-49950794D01*
X174619851Y-49937400D01*
X174568412Y-49783216D01*
X174562241Y-49770042D01*
X174509751Y-49685221D01*
X174490913Y-49616769D01*
X174512074Y-49548999D01*
X174536917Y-49521555D01*
X174539894Y-49519110D01*
X174545011Y-49515684D01*
X174648290Y-49412405D01*
X174710602Y-49378379D01*
X174737385Y-49375500D01*
X176064455Y-49375500D01*
X176132576Y-49395502D01*
X176153550Y-49412405D01*
X178687595Y-51946450D01*
X178721621Y-52008762D01*
X178724500Y-52035545D01*
X178724500Y-52811824D01*
X178704498Y-52879945D01*
X178668593Y-52916528D01*
X178535112Y-53005886D01*
X178535109Y-53005888D01*
X178529989Y-53009316D01*
X178384316Y-53154989D01*
X178380881Y-53160119D01*
X178378471Y-53163054D01*
X178319776Y-53202997D01*
X178248804Y-53204867D01*
X178214990Y-53190338D01*
X178128757Y-53137184D01*
X178115576Y-53131037D01*
X177961290Y-53079862D01*
X177947914Y-53076995D01*
X177853562Y-53067328D01*
X177847145Y-53067000D01*
X177822115Y-53067000D01*
X177806876Y-53071475D01*
X177805671Y-53072865D01*
X177804000Y-53080548D01*
X177804000Y-55514884D01*
X177808475Y-55530123D01*
X177809865Y-55531328D01*
X177817548Y-55532999D01*
X177848500Y-55532999D01*
X177916621Y-55553001D01*
X177963114Y-55606657D01*
X177974500Y-55658999D01*
X177974500Y-55669367D01*
X177954498Y-55737488D01*
X177900842Y-55783981D01*
X177890354Y-55788212D01*
X177889283Y-55788589D01*
X177882423Y-55790173D01*
X177832193Y-55814455D01*
X177735742Y-55861081D01*
X177720734Y-55868336D01*
X177580380Y-55980380D01*
X177575988Y-55985882D01*
X177575985Y-55985885D01*
X177563782Y-56001171D01*
X177505650Y-56041929D01*
X177451705Y-56047824D01*
X177401488Y-56042369D01*
X177394672Y-56042000D01*
X176872115Y-56042000D01*
X176856876Y-56046475D01*
X176855671Y-56047865D01*
X176854000Y-56055548D01*
X176854000Y-59039884D01*
X176858475Y-59055123D01*
X176859865Y-59056328D01*
X176867548Y-59057999D01*
X177394669Y-59057999D01*
X177401488Y-59057630D01*
X177451706Y-59052175D01*
X177521588Y-59064704D01*
X177563782Y-59098829D01*
X177580380Y-59119620D01*
X177720734Y-59231664D01*
X177882423Y-59309827D01*
X177889284Y-59311411D01*
X178052212Y-59349026D01*
X178052215Y-59349026D01*
X178057411Y-59350226D01*
X178062163Y-59350500D01*
X178063987Y-59350500D01*
X178907180Y-59350499D01*
X179737836Y-59350499D01*
X179742589Y-59350226D01*
X179917577Y-59309827D01*
X180079266Y-59231664D01*
X180219620Y-59119620D01*
X180300029Y-59018894D01*
X180358160Y-58978135D01*
X180429099Y-58975275D01*
X180490323Y-59011221D01*
X180522394Y-59074561D01*
X180524500Y-59097503D01*
X180524500Y-69064455D01*
X180504498Y-69132576D01*
X180487595Y-69153550D01*
X180073033Y-69568112D01*
X180010721Y-69602138D01*
X179939906Y-69597073D01*
X179883070Y-69554526D01*
X179858259Y-69488006D01*
X179858326Y-69469131D01*
X179863379Y-69404930D01*
X179863767Y-69400000D01*
X179843530Y-69142858D01*
X179811240Y-69008362D01*
X179784469Y-68896853D01*
X179784467Y-68896848D01*
X179783315Y-68892048D01*
X179781425Y-68887485D01*
X179781423Y-68887479D01*
X179686502Y-68658319D01*
X179686500Y-68658315D01*
X179684607Y-68653745D01*
X179549835Y-68433818D01*
X179382319Y-68237681D01*
X179186182Y-68070165D01*
X178966255Y-67935393D01*
X178961685Y-67933500D01*
X178961681Y-67933498D01*
X178732521Y-67838577D01*
X178732515Y-67838575D01*
X178727952Y-67836685D01*
X178723152Y-67835533D01*
X178723147Y-67835531D01*
X178608175Y-67807929D01*
X178477142Y-67776470D01*
X178220000Y-67756233D01*
X177962858Y-67776470D01*
X177831825Y-67807929D01*
X177716853Y-67835531D01*
X177716848Y-67835533D01*
X177712048Y-67836685D01*
X177707485Y-67838575D01*
X177707479Y-67838577D01*
X177478319Y-67933498D01*
X177478315Y-67933500D01*
X177473745Y-67935393D01*
X177253818Y-68070165D01*
X177057681Y-68237681D01*
X177054468Y-68241443D01*
X177045811Y-68251579D01*
X176986361Y-68290389D01*
X176915366Y-68290896D01*
X176854189Y-68251579D01*
X176845532Y-68241443D01*
X176842319Y-68237681D01*
X176646182Y-68070165D01*
X176426255Y-67935393D01*
X176421685Y-67933500D01*
X176421681Y-67933498D01*
X176192521Y-67838577D01*
X176192515Y-67838575D01*
X176187952Y-67836685D01*
X176183152Y-67835533D01*
X176183147Y-67835531D01*
X176068175Y-67807929D01*
X175937142Y-67776470D01*
X175680000Y-67756233D01*
X175675070Y-67756621D01*
X175675069Y-67756621D01*
X175427428Y-67776110D01*
X175357948Y-67761514D01*
X175328448Y-67739593D01*
X174062405Y-66473550D01*
X174028379Y-66411238D01*
X174025500Y-66384455D01*
X174025500Y-65175360D01*
X174045502Y-65107239D01*
X174099158Y-65060746D01*
X174169432Y-65050642D01*
X174234012Y-65080136D01*
X174252326Y-65099795D01*
X174331715Y-65205724D01*
X174344276Y-65218285D01*
X174446351Y-65294786D01*
X174461946Y-65303324D01*
X174582394Y-65348478D01*
X174597649Y-65352105D01*
X174648514Y-65357631D01*
X174655328Y-65358000D01*
X176327885Y-65358000D01*
X176343124Y-65353525D01*
X176344329Y-65352135D01*
X176346000Y-65344452D01*
X176346000Y-65339884D01*
X176854000Y-65339884D01*
X176858475Y-65355123D01*
X176859865Y-65356328D01*
X176867548Y-65357999D01*
X178544669Y-65357999D01*
X178551490Y-65357629D01*
X178602352Y-65352105D01*
X178617604Y-65348479D01*
X178738054Y-65303324D01*
X178753649Y-65294786D01*
X178855724Y-65218285D01*
X178868285Y-65205724D01*
X178944786Y-65103649D01*
X178953324Y-65088054D01*
X178998478Y-64967606D01*
X179002105Y-64952351D01*
X179007631Y-64901486D01*
X179008000Y-64894672D01*
X179008000Y-64122115D01*
X179003525Y-64106876D01*
X179002135Y-64105671D01*
X178994452Y-64104000D01*
X176872115Y-64104000D01*
X176856876Y-64108475D01*
X176855671Y-64109865D01*
X176854000Y-64117548D01*
X176854000Y-65339884D01*
X176346000Y-65339884D01*
X176346000Y-63577885D01*
X176854000Y-63577885D01*
X176858475Y-63593124D01*
X176859865Y-63594329D01*
X176867548Y-63596000D01*
X178989884Y-63596000D01*
X179005123Y-63591525D01*
X179006328Y-63590135D01*
X179007999Y-63582452D01*
X179007999Y-62805331D01*
X179007629Y-62798510D01*
X179002105Y-62747648D01*
X178998479Y-62732396D01*
X178953324Y-62611946D01*
X178944786Y-62596351D01*
X178868285Y-62494276D01*
X178855724Y-62481715D01*
X178753649Y-62405214D01*
X178738054Y-62396676D01*
X178617606Y-62351522D01*
X178602351Y-62347895D01*
X178551486Y-62342369D01*
X178544672Y-62342000D01*
X176872115Y-62342000D01*
X176856876Y-62346475D01*
X176855671Y-62347865D01*
X176854000Y-62355548D01*
X176854000Y-63577885D01*
X176346000Y-63577885D01*
X176346000Y-62360116D01*
X176341525Y-62344877D01*
X176340135Y-62343672D01*
X176332452Y-62342001D01*
X174655331Y-62342001D01*
X174648510Y-62342371D01*
X174597648Y-62347895D01*
X174582396Y-62351521D01*
X174461946Y-62396676D01*
X174446351Y-62405214D01*
X174344276Y-62481715D01*
X174331715Y-62494276D01*
X174255214Y-62596351D01*
X174246676Y-62611946D01*
X174201522Y-62732394D01*
X174197895Y-62747649D01*
X174192369Y-62798514D01*
X174192000Y-62805328D01*
X174192000Y-63523624D01*
X174171998Y-63591745D01*
X174118342Y-63638238D01*
X174048068Y-63648342D01*
X173983488Y-63618848D01*
X173951515Y-63575710D01*
X173950144Y-63571492D01*
X173946840Y-63565769D01*
X173946838Y-63565765D01*
X173915266Y-63511081D01*
X173912118Y-63505283D01*
X173883463Y-63449044D01*
X173880465Y-63443160D01*
X173876308Y-63438026D01*
X173871326Y-63431873D01*
X173860131Y-63415585D01*
X173858666Y-63413047D01*
X173852870Y-63403008D01*
X173848450Y-63398099D01*
X173848447Y-63398095D01*
X173806204Y-63351179D01*
X173801920Y-63346164D01*
X173794924Y-63337525D01*
X173788725Y-63329870D01*
X173773910Y-63315055D01*
X173769369Y-63310271D01*
X173727107Y-63263334D01*
X173727105Y-63263333D01*
X173722692Y-63258431D01*
X173710941Y-63249893D01*
X173695909Y-63237054D01*
X171812947Y-61354092D01*
X171800110Y-61339064D01*
X171791569Y-61327308D01*
X171778501Y-61315541D01*
X171739729Y-61280631D01*
X171734945Y-61276090D01*
X171720130Y-61261275D01*
X171712475Y-61255076D01*
X171703836Y-61248080D01*
X171698821Y-61243796D01*
X171651905Y-61201553D01*
X171651901Y-61201550D01*
X171646992Y-61197130D01*
X171634412Y-61189867D01*
X171618127Y-61178674D01*
X171611974Y-61173692D01*
X171611972Y-61173690D01*
X171606840Y-61169535D01*
X171553955Y-61142589D01*
X171544717Y-61137882D01*
X171538919Y-61134734D01*
X171484226Y-61103157D01*
X171484224Y-61103156D01*
X171478508Y-61099856D01*
X171464700Y-61095370D01*
X171446437Y-61087805D01*
X171439377Y-61084208D01*
X171433497Y-61081212D01*
X171366115Y-61063157D01*
X171359804Y-61061287D01*
X171293482Y-61039738D01*
X171279049Y-61038221D01*
X171259607Y-61034618D01*
X171245578Y-61030859D01*
X171238986Y-61030514D01*
X171238983Y-61030513D01*
X171175938Y-61027209D01*
X171169364Y-61026692D01*
X171151778Y-61024844D01*
X171151776Y-61024844D01*
X171148504Y-61024500D01*
X171127536Y-61024500D01*
X171120942Y-61024327D01*
X171057889Y-61021022D01*
X171057884Y-61021022D01*
X171051297Y-61020677D01*
X171036951Y-61022949D01*
X171017242Y-61024500D01*
X168632758Y-61024500D01*
X168613049Y-61022949D01*
X168598703Y-61020677D01*
X168592116Y-61021022D01*
X168592111Y-61021022D01*
X168529058Y-61024327D01*
X168522464Y-61024500D01*
X168501496Y-61024500D01*
X168498224Y-61024844D01*
X168498222Y-61024844D01*
X168480636Y-61026692D01*
X168474062Y-61027209D01*
X168411017Y-61030513D01*
X168411014Y-61030514D01*
X168404422Y-61030859D01*
X168390393Y-61034618D01*
X168370951Y-61038221D01*
X168356518Y-61039738D01*
X168290196Y-61061287D01*
X168283885Y-61063157D01*
X168216503Y-61081212D01*
X168210623Y-61084208D01*
X168203563Y-61087805D01*
X168185300Y-61095370D01*
X168171492Y-61099856D01*
X168165776Y-61103156D01*
X168165774Y-61103157D01*
X168111081Y-61134734D01*
X168105283Y-61137882D01*
X168096045Y-61142589D01*
X168043160Y-61169535D01*
X168038028Y-61173690D01*
X168038026Y-61173692D01*
X168031873Y-61178674D01*
X168015588Y-61189867D01*
X168003008Y-61197130D01*
X167998099Y-61201550D01*
X167998095Y-61201553D01*
X167951179Y-61243796D01*
X167946164Y-61248080D01*
X167937525Y-61255076D01*
X167929870Y-61261275D01*
X167915055Y-61276090D01*
X167910271Y-61280631D01*
X167871500Y-61315541D01*
X167858431Y-61327308D01*
X167850761Y-61337865D01*
X167849896Y-61339056D01*
X167837054Y-61354091D01*
X166554085Y-62637060D01*
X166539063Y-62649891D01*
X166527308Y-62658431D01*
X166522895Y-62663333D01*
X166522893Y-62663334D01*
X166480631Y-62710271D01*
X166476090Y-62715055D01*
X166461275Y-62729870D01*
X166455076Y-62737525D01*
X166448080Y-62746164D01*
X166443796Y-62751179D01*
X166401553Y-62798095D01*
X166401550Y-62798099D01*
X166397130Y-62803008D01*
X166389869Y-62815585D01*
X166378674Y-62831873D01*
X166373692Y-62838026D01*
X166369535Y-62843160D01*
X166366537Y-62849044D01*
X166337882Y-62905283D01*
X166334734Y-62911081D01*
X166326987Y-62924500D01*
X166299856Y-62971492D01*
X166295370Y-62985299D01*
X166287805Y-63003563D01*
X166281212Y-63016503D01*
X166279504Y-63022876D01*
X166279504Y-63022877D01*
X166263159Y-63083878D01*
X166261285Y-63090203D01*
X166243770Y-63144110D01*
X166239738Y-63156518D01*
X166239048Y-63163084D01*
X166238221Y-63170951D01*
X166234618Y-63190393D01*
X166230859Y-63204422D01*
X166230514Y-63211014D01*
X166230513Y-63211017D01*
X166227209Y-63274062D01*
X166226692Y-63280636D01*
X166225808Y-63289049D01*
X166224500Y-63301496D01*
X166224500Y-63322464D01*
X166224327Y-63329058D01*
X166220677Y-63398703D01*
X166221709Y-63405219D01*
X166222949Y-63413047D01*
X166224500Y-63432758D01*
X166224500Y-64067242D01*
X166222949Y-64086951D01*
X166220677Y-64101297D01*
X166221022Y-64107884D01*
X166221022Y-64107889D01*
X166224327Y-64170942D01*
X166224500Y-64177536D01*
X166224500Y-64198504D01*
X166224844Y-64201776D01*
X166224844Y-64201778D01*
X166226692Y-64219364D01*
X166227209Y-64225938D01*
X166227941Y-64239893D01*
X166230859Y-64295578D01*
X166234618Y-64309607D01*
X166238221Y-64329049D01*
X166239738Y-64343482D01*
X166257875Y-64399301D01*
X166261285Y-64409797D01*
X166263157Y-64416115D01*
X166281212Y-64483497D01*
X166284208Y-64489377D01*
X166287805Y-64496437D01*
X166295370Y-64514700D01*
X166299856Y-64528508D01*
X166303156Y-64534224D01*
X166303157Y-64534226D01*
X166334734Y-64588919D01*
X166337882Y-64594717D01*
X166369535Y-64656840D01*
X166373690Y-64661972D01*
X166373692Y-64661974D01*
X166378674Y-64668127D01*
X166389867Y-64684412D01*
X166397130Y-64696992D01*
X166401550Y-64701901D01*
X166401553Y-64701905D01*
X166443796Y-64748821D01*
X166448080Y-64753836D01*
X166461275Y-64770130D01*
X166476090Y-64784945D01*
X166480631Y-64789729D01*
X166501049Y-64812405D01*
X166527308Y-64841569D01*
X166539059Y-64850107D01*
X166554091Y-64862946D01*
X167162580Y-65471435D01*
X167196606Y-65533747D01*
X167198393Y-65577086D01*
X167173464Y-65765171D01*
X167170996Y-65783789D01*
X167171196Y-65789118D01*
X167171196Y-65789119D01*
X167172898Y-65834459D01*
X167179913Y-66021295D01*
X167228719Y-66253904D01*
X167230677Y-66258863D01*
X167230678Y-66258865D01*
X167306337Y-66450443D01*
X167316020Y-66474963D01*
X167318787Y-66479522D01*
X167318788Y-66479525D01*
X167374737Y-66571726D01*
X167439319Y-66678153D01*
X167488208Y-66734492D01*
X167513929Y-66764133D01*
X167543469Y-66828693D01*
X167533415Y-66898974D01*
X167519853Y-66921927D01*
X167508502Y-66937184D01*
X167380421Y-67109330D01*
X167272705Y-67321193D01*
X167271124Y-67326284D01*
X167271123Y-67326287D01*
X167238775Y-67430465D01*
X167202225Y-67548176D01*
X167201524Y-67553465D01*
X167172018Y-67776082D01*
X167170996Y-67783789D01*
X167179913Y-68021295D01*
X167228719Y-68253904D01*
X167230677Y-68258863D01*
X167230678Y-68258865D01*
X167272104Y-68363760D01*
X167316020Y-68474963D01*
X167439319Y-68678153D01*
X167595090Y-68857664D01*
X167599221Y-68861051D01*
X167600072Y-68861749D01*
X167600335Y-68862134D01*
X167603041Y-68864766D01*
X167602505Y-68865317D01*
X167640067Y-68920409D01*
X167641998Y-68991379D01*
X167624637Y-69026113D01*
X167626090Y-69027009D01*
X167537184Y-69171243D01*
X167531037Y-69184424D01*
X167479862Y-69338710D01*
X167476995Y-69352086D01*
X167467328Y-69446438D01*
X167467000Y-69452855D01*
X167467000Y-69577885D01*
X167471475Y-69593124D01*
X167472865Y-69594329D01*
X167480548Y-69596000D01*
X168978000Y-69596000D01*
X169046121Y-69616002D01*
X169092614Y-69669658D01*
X169104000Y-69722000D01*
X169104000Y-70939884D01*
X169108475Y-70955123D01*
X169109865Y-70956328D01*
X169117548Y-70957999D01*
X169522095Y-70957999D01*
X169528614Y-70957662D01*
X169624206Y-70947743D01*
X169637600Y-70944851D01*
X169791784Y-70893412D01*
X169804962Y-70887239D01*
X169942807Y-70801937D01*
X169954208Y-70792901D01*
X170068739Y-70678171D01*
X170077751Y-70666760D01*
X170162816Y-70528757D01*
X170168963Y-70515576D01*
X170220140Y-70361284D01*
X170222609Y-70349767D01*
X170256447Y-70287353D01*
X170318657Y-70253141D01*
X170389488Y-70257994D01*
X170446451Y-70300370D01*
X170471636Y-70369587D01*
X170472535Y-70386743D01*
X170474327Y-70420943D01*
X170474500Y-70427536D01*
X170474500Y-70448504D01*
X170474844Y-70451776D01*
X170474844Y-70451778D01*
X170476692Y-70469364D01*
X170477209Y-70475938D01*
X170480041Y-70529962D01*
X170480859Y-70545578D01*
X170484618Y-70559607D01*
X170488221Y-70579049D01*
X170489738Y-70593482D01*
X170491778Y-70599760D01*
X170491778Y-70599761D01*
X170511285Y-70659797D01*
X170513159Y-70666122D01*
X170529433Y-70726856D01*
X170531212Y-70733497D01*
X170534208Y-70739377D01*
X170537805Y-70746437D01*
X170545370Y-70764700D01*
X170549856Y-70778508D01*
X170553156Y-70784224D01*
X170553157Y-70784226D01*
X170584734Y-70838919D01*
X170587882Y-70844717D01*
X170619535Y-70906840D01*
X170623690Y-70911972D01*
X170623692Y-70911974D01*
X170628674Y-70918127D01*
X170639867Y-70934412D01*
X170647130Y-70946992D01*
X170651550Y-70951901D01*
X170651553Y-70951905D01*
X170693796Y-70998821D01*
X170698080Y-71003836D01*
X170711275Y-71020130D01*
X170726089Y-71034944D01*
X170730630Y-71039728D01*
X170777308Y-71091569D01*
X170789063Y-71100109D01*
X170804093Y-71112947D01*
X171537051Y-71845905D01*
X171549891Y-71860938D01*
X171558431Y-71872692D01*
X171563333Y-71877105D01*
X171563334Y-71877107D01*
X171610281Y-71919378D01*
X171615056Y-71923910D01*
X171629871Y-71938725D01*
X171632435Y-71940801D01*
X171646164Y-71951919D01*
X171651179Y-71956203D01*
X171703008Y-72002870D01*
X171715596Y-72010138D01*
X171731879Y-72021330D01*
X171743160Y-72030465D01*
X171749044Y-72033463D01*
X171749047Y-72033465D01*
X171805283Y-72062118D01*
X171811081Y-72065266D01*
X171865774Y-72096843D01*
X171865776Y-72096844D01*
X171871492Y-72100144D01*
X171885299Y-72104630D01*
X171903563Y-72112195D01*
X171910619Y-72115790D01*
X171916503Y-72118788D01*
X171983932Y-72136856D01*
X171990170Y-72138705D01*
X172056518Y-72160262D01*
X172070962Y-72161780D01*
X172090380Y-72165379D01*
X172104423Y-72169142D01*
X172111014Y-72169487D01*
X172111018Y-72169488D01*
X172174070Y-72172792D01*
X172180645Y-72173309D01*
X172198222Y-72175156D01*
X172198225Y-72175156D01*
X172201496Y-72175500D01*
X172222458Y-72175500D01*
X172229052Y-72175673D01*
X172292112Y-72178978D01*
X172292116Y-72178978D01*
X172298704Y-72179323D01*
X172313050Y-72177051D01*
X172332759Y-72175500D01*
X179617242Y-72175500D01*
X179636951Y-72177051D01*
X179651297Y-72179323D01*
X179657884Y-72178978D01*
X179657889Y-72178978D01*
X179720942Y-72175673D01*
X179727536Y-72175500D01*
X179748504Y-72175500D01*
X179751776Y-72175156D01*
X179751778Y-72175156D01*
X179769364Y-72173308D01*
X179775938Y-72172791D01*
X179838983Y-72169487D01*
X179838986Y-72169486D01*
X179845578Y-72169141D01*
X179859607Y-72165382D01*
X179879049Y-72161779D01*
X179879059Y-72161778D01*
X179893482Y-72160262D01*
X179959804Y-72138713D01*
X179966115Y-72136843D01*
X180033497Y-72118788D01*
X180039381Y-72115790D01*
X180046437Y-72112195D01*
X180064701Y-72104630D01*
X180078508Y-72100144D01*
X180084224Y-72096844D01*
X180084226Y-72096843D01*
X180138919Y-72065266D01*
X180144717Y-72062118D01*
X180200956Y-72033463D01*
X180206840Y-72030465D01*
X180211976Y-72026306D01*
X180218127Y-72021326D01*
X180234412Y-72010133D01*
X180246992Y-72002870D01*
X180251902Y-71998449D01*
X180251905Y-71998447D01*
X180298821Y-71956204D01*
X180303836Y-71951920D01*
X180317566Y-71940801D01*
X180320130Y-71938725D01*
X180334945Y-71923910D01*
X180339729Y-71919369D01*
X180386666Y-71877107D01*
X180386667Y-71877105D01*
X180391569Y-71872692D01*
X180400108Y-71860939D01*
X180412946Y-71845909D01*
X181838086Y-70420769D01*
X181900398Y-70386743D01*
X181971213Y-70391808D01*
X182022989Y-70428031D01*
X182137681Y-70562319D01*
X182333818Y-70729835D01*
X182553745Y-70864607D01*
X182558315Y-70866500D01*
X182558319Y-70866502D01*
X182787479Y-70961423D01*
X182787485Y-70961425D01*
X182792048Y-70963315D01*
X182796848Y-70964467D01*
X182796853Y-70964469D01*
X182911825Y-70992071D01*
X183042858Y-71023530D01*
X183300000Y-71043767D01*
X183557142Y-71023530D01*
X183688175Y-70992071D01*
X183803147Y-70964469D01*
X183803152Y-70964467D01*
X183807952Y-70963315D01*
X183812515Y-70961425D01*
X183812521Y-70961423D01*
X184041681Y-70866502D01*
X184041685Y-70866500D01*
X184046255Y-70864607D01*
X184266182Y-70729835D01*
X184462319Y-70562319D01*
X184474189Y-70548421D01*
X184533639Y-70509611D01*
X184604634Y-70509104D01*
X184665811Y-70548421D01*
X184677681Y-70562319D01*
X184873818Y-70729835D01*
X185093745Y-70864607D01*
X185098315Y-70866500D01*
X185098319Y-70866502D01*
X185327479Y-70961423D01*
X185327485Y-70961425D01*
X185332048Y-70963315D01*
X185336848Y-70964467D01*
X185336853Y-70964469D01*
X185451825Y-70992071D01*
X185582858Y-71023530D01*
X185840000Y-71043767D01*
X186097142Y-71023530D01*
X186228175Y-70992071D01*
X186343147Y-70964469D01*
X186343152Y-70964467D01*
X186347952Y-70963315D01*
X186352515Y-70961425D01*
X186352521Y-70961423D01*
X186581681Y-70866502D01*
X186581685Y-70866500D01*
X186586255Y-70864607D01*
X186806182Y-70729835D01*
X187002319Y-70562319D01*
X187169835Y-70366182D01*
X187304607Y-70146255D01*
X187314606Y-70122115D01*
X187401423Y-69912521D01*
X187401425Y-69912515D01*
X187403315Y-69907952D01*
X187463530Y-69657142D01*
X187483767Y-69400000D01*
X187463530Y-69142858D01*
X187431240Y-69008362D01*
X187404469Y-68896853D01*
X187404467Y-68896848D01*
X187403315Y-68892048D01*
X187401425Y-68887485D01*
X187401423Y-68887479D01*
X187306502Y-68658319D01*
X187306500Y-68658315D01*
X187304607Y-68653745D01*
X187169835Y-68433818D01*
X187002319Y-68237681D01*
X186809670Y-68073144D01*
X186770861Y-68013694D01*
X186765500Y-67977333D01*
X186765500Y-67045545D01*
X186785502Y-66977424D01*
X186802405Y-66956450D01*
X186858408Y-66900447D01*
X186873436Y-66887610D01*
X186885192Y-66879069D01*
X186931869Y-66827229D01*
X186936410Y-66822445D01*
X186951225Y-66807630D01*
X186964420Y-66791336D01*
X186968704Y-66786321D01*
X187010947Y-66739405D01*
X187010950Y-66739401D01*
X187015370Y-66734492D01*
X187022633Y-66721912D01*
X187033826Y-66705627D01*
X187038808Y-66699474D01*
X187038810Y-66699472D01*
X187042965Y-66694340D01*
X187074618Y-66632217D01*
X187077766Y-66626419D01*
X187109343Y-66571726D01*
X187109344Y-66571724D01*
X187112644Y-66566008D01*
X187117130Y-66552200D01*
X187124695Y-66533937D01*
X187128292Y-66526877D01*
X187131288Y-66520997D01*
X187149343Y-66453615D01*
X187151215Y-66447297D01*
X187153321Y-66440817D01*
X187172762Y-66380982D01*
X187174279Y-66366549D01*
X187177882Y-66347107D01*
X187181641Y-66333078D01*
X187185291Y-66263438D01*
X187185808Y-66256864D01*
X187187656Y-66239278D01*
X187187656Y-66239276D01*
X187188000Y-66236004D01*
X187188000Y-66215036D01*
X187188173Y-66208442D01*
X187191478Y-66145389D01*
X187191478Y-66145384D01*
X187191823Y-66138797D01*
X187189551Y-66124451D01*
X187188000Y-66104742D01*
X187188000Y-65746128D01*
X187208002Y-65678007D01*
X187236171Y-65649301D01*
X187235125Y-65648027D01*
X187239893Y-65644110D01*
X187245011Y-65640684D01*
X187390684Y-65495011D01*
X187505289Y-65323817D01*
X187577566Y-65150182D01*
X187582093Y-65139307D01*
X187584459Y-65133623D01*
X187625179Y-64931673D01*
X187625500Y-64925337D01*
X187625499Y-63474664D01*
X187625179Y-63468327D01*
X187620105Y-63443160D01*
X187601558Y-63351179D01*
X187584459Y-63266377D01*
X187505289Y-63076183D01*
X187390684Y-62904989D01*
X187245011Y-62759316D01*
X187073817Y-62644711D01*
X186883623Y-62565541D01*
X186681673Y-62524821D01*
X186677007Y-62524585D01*
X186677002Y-62524584D01*
X186676925Y-62524580D01*
X186676907Y-62524580D01*
X186675337Y-62524500D01*
X186669769Y-62524500D01*
X186117818Y-62524501D01*
X186049698Y-62504499D01*
X186003205Y-62450843D01*
X185993101Y-62380570D01*
X186020584Y-62320390D01*
X186019620Y-62319620D01*
X186127267Y-62184774D01*
X186131664Y-62179266D01*
X186137048Y-62168130D01*
X186206761Y-62023919D01*
X186209827Y-62017577D01*
X186245358Y-61863675D01*
X186249026Y-61847788D01*
X186249026Y-61847785D01*
X186250226Y-61842589D01*
X186250500Y-61837837D01*
X186250500Y-61726499D01*
X186270502Y-61658379D01*
X186324158Y-61611886D01*
X186376500Y-61600500D01*
X186999659Y-61600499D01*
X187398500Y-61600499D01*
X187466621Y-61620501D01*
X187513114Y-61674157D01*
X187524500Y-61726499D01*
X187524501Y-62083310D01*
X187524501Y-62425336D01*
X187524821Y-62431673D01*
X187565541Y-62633623D01*
X187644711Y-62823817D01*
X187759316Y-62995011D01*
X187904989Y-63140684D01*
X188076183Y-63255289D01*
X188266377Y-63334459D01*
X188430776Y-63367607D01*
X188457238Y-63372943D01*
X188468327Y-63375179D01*
X188472993Y-63375415D01*
X188472998Y-63375416D01*
X188473075Y-63375420D01*
X188473093Y-63375420D01*
X188474663Y-63375500D01*
X188476260Y-63375500D01*
X189203422Y-63375499D01*
X189925336Y-63375499D01*
X189926892Y-63375420D01*
X189926909Y-63375420D01*
X189927003Y-63375415D01*
X189927005Y-63375415D01*
X189931673Y-63375179D01*
X189942763Y-63372943D01*
X189969224Y-63367607D01*
X190133623Y-63334459D01*
X190323817Y-63255289D01*
X190495011Y-63140684D01*
X190640684Y-62995011D01*
X190755289Y-62823817D01*
X190834459Y-62633623D01*
X190875179Y-62431673D01*
X190875500Y-62425337D01*
X190875499Y-61599664D01*
X190875179Y-61593327D01*
X190834459Y-61391377D01*
X190755289Y-61201183D01*
X190640684Y-61029989D01*
X190495011Y-60884316D01*
X190323817Y-60769711D01*
X190133623Y-60690541D01*
X190049178Y-60673514D01*
X189986355Y-60640442D01*
X189951385Y-60578656D01*
X189955370Y-60507771D01*
X189997046Y-60450294D01*
X190049178Y-60426486D01*
X190053423Y-60425630D01*
X190133623Y-60409459D01*
X190323817Y-60330289D01*
X190495011Y-60215684D01*
X190640684Y-60070011D01*
X190755289Y-59898817D01*
X190834459Y-59708623D01*
X190875179Y-59506673D01*
X190875500Y-59500337D01*
X190875499Y-58674664D01*
X190875179Y-58668327D01*
X190873931Y-58662135D01*
X190839257Y-58490173D01*
X190834459Y-58466377D01*
X190755289Y-58276183D01*
X190640684Y-58104989D01*
X190495011Y-57959316D01*
X190323817Y-57844711D01*
X190203078Y-57794452D01*
X190147876Y-57749808D01*
X190125500Y-57678128D01*
X190125500Y-54882759D01*
X190127051Y-54863048D01*
X190128291Y-54855220D01*
X190129323Y-54848704D01*
X190128579Y-54834492D01*
X190125673Y-54779059D01*
X190125500Y-54772465D01*
X190125500Y-54751496D01*
X190123308Y-54730639D01*
X190122791Y-54724064D01*
X190119487Y-54661016D01*
X190119486Y-54661012D01*
X190119141Y-54654422D01*
X190115382Y-54640393D01*
X190111779Y-54620951D01*
X190110952Y-54613084D01*
X190110262Y-54606518D01*
X190088713Y-54540196D01*
X190086841Y-54533878D01*
X190082466Y-54517548D01*
X190068788Y-54466503D01*
X190065792Y-54460623D01*
X190062195Y-54453563D01*
X190054630Y-54435299D01*
X190053908Y-54433078D01*
X190050144Y-54421492D01*
X190034694Y-54394732D01*
X190015266Y-54361081D01*
X190012118Y-54355283D01*
X189983463Y-54299044D01*
X189980465Y-54293160D01*
X189976308Y-54288026D01*
X189971326Y-54281873D01*
X189960131Y-54265585D01*
X189952870Y-54253008D01*
X189948450Y-54248099D01*
X189948447Y-54248095D01*
X189906204Y-54201179D01*
X189901920Y-54196164D01*
X189890801Y-54182434D01*
X189888725Y-54179870D01*
X189873910Y-54165055D01*
X189869369Y-54160271D01*
X189827107Y-54113334D01*
X189827105Y-54113333D01*
X189822692Y-54108431D01*
X189810941Y-54099893D01*
X189795909Y-54087054D01*
X187556940Y-51848085D01*
X187522914Y-51785773D01*
X187527979Y-51714958D01*
X187570526Y-51658122D01*
X187610536Y-51638094D01*
X187643124Y-51628525D01*
X187644329Y-51627135D01*
X187646000Y-51619452D01*
X187646000Y-51614884D01*
X188154000Y-51614884D01*
X188158475Y-51630123D01*
X188159865Y-51631328D01*
X188167548Y-51632999D01*
X188297095Y-51632999D01*
X188303614Y-51632662D01*
X188399206Y-51622743D01*
X188412600Y-51619851D01*
X188566784Y-51568412D01*
X188579962Y-51562239D01*
X188717807Y-51476937D01*
X188729208Y-51467901D01*
X188843739Y-51353171D01*
X188852751Y-51341760D01*
X188937816Y-51203757D01*
X188943963Y-51190576D01*
X188995138Y-51036290D01*
X188998005Y-51022914D01*
X189007672Y-50928562D01*
X189008000Y-50922146D01*
X189008000Y-50522115D01*
X189003525Y-50506876D01*
X189002135Y-50505671D01*
X188994452Y-50504000D01*
X188172115Y-50504000D01*
X188156876Y-50508475D01*
X188155671Y-50509865D01*
X188154000Y-50517548D01*
X188154000Y-51614884D01*
X187646000Y-51614884D01*
X187646000Y-49977885D01*
X188154000Y-49977885D01*
X188158475Y-49993124D01*
X188159865Y-49994329D01*
X188167548Y-49996000D01*
X188989884Y-49996000D01*
X189005123Y-49991525D01*
X189006328Y-49990135D01*
X189007999Y-49982452D01*
X189007999Y-49577905D01*
X189007662Y-49571386D01*
X188997743Y-49475794D01*
X188994851Y-49462400D01*
X188943412Y-49308216D01*
X188937239Y-49295038D01*
X188851937Y-49157193D01*
X188842901Y-49145792D01*
X188728171Y-49031261D01*
X188716760Y-49022249D01*
X188578757Y-48937184D01*
X188565576Y-48931037D01*
X188411290Y-48879862D01*
X188397914Y-48876995D01*
X188303562Y-48867328D01*
X188297145Y-48867000D01*
X188172115Y-48867000D01*
X188156876Y-48871475D01*
X188155671Y-48872865D01*
X188154000Y-48880548D01*
X188154000Y-49977885D01*
X187646000Y-49977885D01*
X187646000Y-48885116D01*
X187641525Y-48869877D01*
X187640135Y-48868672D01*
X187632452Y-48867001D01*
X187502905Y-48867001D01*
X187496386Y-48867338D01*
X187400794Y-48877257D01*
X187387400Y-48880149D01*
X187233216Y-48931588D01*
X187220038Y-48937761D01*
X187075965Y-49026917D01*
X187074924Y-49025235D01*
X187018366Y-49048124D01*
X186948603Y-49034951D01*
X186914747Y-49009712D01*
X186860330Y-48952668D01*
X186827783Y-48889572D01*
X186825500Y-48865697D01*
X186825500Y-48151500D01*
X186845502Y-48083379D01*
X186899158Y-48036886D01*
X186951500Y-48025500D01*
X192522465Y-48025500D01*
X192529059Y-48025673D01*
X192592112Y-48028978D01*
X192592117Y-48028978D01*
X192598704Y-48029323D01*
X192667610Y-48018410D01*
X192674119Y-48017553D01*
X192704200Y-48014391D01*
X192736921Y-48010952D01*
X192736925Y-48010951D01*
X192743482Y-48010262D01*
X192757289Y-48005776D01*
X192776511Y-48001161D01*
X192784335Y-47999922D01*
X192784336Y-47999922D01*
X192790857Y-47998889D01*
X192797023Y-47996522D01*
X192797027Y-47996521D01*
X192855972Y-47973894D01*
X192862190Y-47971692D01*
X192922223Y-47952186D01*
X192922222Y-47952186D01*
X192928508Y-47950144D01*
X192941087Y-47942882D01*
X192958928Y-47934372D01*
X192966319Y-47931535D01*
X192966321Y-47931534D01*
X192972482Y-47929169D01*
X193030958Y-47891194D01*
X193036584Y-47887746D01*
X193091270Y-47856174D01*
X193091273Y-47856172D01*
X193096992Y-47852870D01*
X193107780Y-47843156D01*
X193123468Y-47831118D01*
X193135644Y-47823211D01*
X193184945Y-47773910D01*
X193189729Y-47769369D01*
X193236666Y-47727107D01*
X193236667Y-47727105D01*
X193241569Y-47722692D01*
X193250107Y-47710941D01*
X193262946Y-47695909D01*
X193273211Y-47685644D01*
X193277740Y-47678670D01*
X193311191Y-47627161D01*
X193314926Y-47621726D01*
X193352042Y-47570640D01*
X193352044Y-47570637D01*
X193355922Y-47565299D01*
X193361830Y-47552030D01*
X193371256Y-47534668D01*
X193372413Y-47532886D01*
X193426285Y-47486644D01*
X193478092Y-47475500D01*
X202598500Y-47475500D01*
X202666621Y-47495502D01*
X202713114Y-47549158D01*
X202724500Y-47601500D01*
X202724500Y-53851955D01*
X202704498Y-53920076D01*
X202687595Y-53941050D01*
X199590595Y-57038050D01*
X199528283Y-57072076D01*
X199457468Y-57067011D01*
X199400632Y-57024464D01*
X199375821Y-56957944D01*
X199375500Y-56948955D01*
X199375500Y-51433696D01*
X199395502Y-51365575D01*
X199418920Y-51338530D01*
X199453631Y-51308410D01*
X199453633Y-51308408D01*
X199457664Y-51304910D01*
X199461749Y-51299928D01*
X199462134Y-51299665D01*
X199464766Y-51296959D01*
X199465317Y-51297495D01*
X199520409Y-51259933D01*
X199591379Y-51258002D01*
X199626113Y-51275363D01*
X199627009Y-51273910D01*
X199771243Y-51362816D01*
X199784424Y-51368963D01*
X199938710Y-51420138D01*
X199952086Y-51423005D01*
X200046438Y-51432672D01*
X200052854Y-51433000D01*
X200177885Y-51433000D01*
X200193124Y-51428525D01*
X200194329Y-51427135D01*
X200196000Y-51419452D01*
X200196000Y-51414884D01*
X200704000Y-51414884D01*
X200708475Y-51430123D01*
X200709865Y-51431328D01*
X200717548Y-51432999D01*
X200847095Y-51432999D01*
X200853614Y-51432662D01*
X200949206Y-51422743D01*
X200962600Y-51419851D01*
X201116784Y-51368412D01*
X201129962Y-51362239D01*
X201267807Y-51276937D01*
X201279208Y-51267901D01*
X201393739Y-51153171D01*
X201402751Y-51141760D01*
X201487816Y-51003757D01*
X201493963Y-50990576D01*
X201545138Y-50836290D01*
X201548005Y-50822914D01*
X201557672Y-50728562D01*
X201558000Y-50722146D01*
X201558000Y-50322115D01*
X201553525Y-50306876D01*
X201552135Y-50305671D01*
X201544452Y-50304000D01*
X200722115Y-50304000D01*
X200706876Y-50308475D01*
X200705671Y-50309865D01*
X200704000Y-50317548D01*
X200704000Y-51414884D01*
X200196000Y-51414884D01*
X200196000Y-49777885D01*
X200704000Y-49777885D01*
X200708475Y-49793124D01*
X200709865Y-49794329D01*
X200717548Y-49796000D01*
X201539884Y-49796000D01*
X201555123Y-49791525D01*
X201556328Y-49790135D01*
X201557999Y-49782452D01*
X201557999Y-49377905D01*
X201557662Y-49371386D01*
X201547743Y-49275794D01*
X201544851Y-49262400D01*
X201493412Y-49108216D01*
X201487239Y-49095038D01*
X201401937Y-48957193D01*
X201392901Y-48945792D01*
X201278171Y-48831261D01*
X201266760Y-48822249D01*
X201128757Y-48737184D01*
X201115576Y-48731037D01*
X200961290Y-48679862D01*
X200947914Y-48676995D01*
X200853562Y-48667328D01*
X200847145Y-48667000D01*
X200722115Y-48667000D01*
X200706876Y-48671475D01*
X200705671Y-48672865D01*
X200704000Y-48680548D01*
X200704000Y-49777885D01*
X200196000Y-49777885D01*
X200196000Y-48685116D01*
X200191525Y-48669877D01*
X200190135Y-48668672D01*
X200182452Y-48667001D01*
X200052905Y-48667001D01*
X200046386Y-48667338D01*
X199950794Y-48677257D01*
X199937400Y-48680149D01*
X199783216Y-48731588D01*
X199770038Y-48737761D01*
X199625965Y-48826917D01*
X199624924Y-48825235D01*
X199568366Y-48848124D01*
X199498603Y-48834951D01*
X199464747Y-48809712D01*
X199385040Y-48726157D01*
X199385035Y-48726152D01*
X199381355Y-48722295D01*
X199376642Y-48718788D01*
X199314704Y-48672705D01*
X199190670Y-48580421D01*
X198978807Y-48472705D01*
X198973716Y-48471124D01*
X198973713Y-48471123D01*
X198756919Y-48403807D01*
X198751824Y-48402225D01*
X198725740Y-48398768D01*
X198521494Y-48371696D01*
X198521491Y-48371696D01*
X198516211Y-48370996D01*
X198510882Y-48371196D01*
X198510881Y-48371196D01*
X198413841Y-48374839D01*
X198278705Y-48379913D01*
X198046096Y-48428719D01*
X198041137Y-48430677D01*
X198041135Y-48430678D01*
X197830002Y-48514059D01*
X197830000Y-48514060D01*
X197825037Y-48516020D01*
X197820478Y-48518787D01*
X197820475Y-48518788D01*
X197696418Y-48594068D01*
X197621847Y-48639319D01*
X197553386Y-48698727D01*
X197535867Y-48713929D01*
X197471307Y-48743469D01*
X197401026Y-48733415D01*
X197378073Y-48719853D01*
X197314704Y-48672705D01*
X197190670Y-48580421D01*
X196978807Y-48472705D01*
X196973716Y-48471124D01*
X196973713Y-48471123D01*
X196756919Y-48403807D01*
X196751824Y-48402225D01*
X196725740Y-48398768D01*
X196521494Y-48371696D01*
X196521491Y-48371696D01*
X196516211Y-48370996D01*
X196510882Y-48371196D01*
X196510881Y-48371196D01*
X196413841Y-48374839D01*
X196278705Y-48379913D01*
X196046096Y-48428719D01*
X196041137Y-48430677D01*
X196041135Y-48430678D01*
X195830002Y-48514059D01*
X195830000Y-48514060D01*
X195825037Y-48516020D01*
X195820478Y-48518787D01*
X195820475Y-48518788D01*
X195696418Y-48594068D01*
X195621847Y-48639319D01*
X195617817Y-48642816D01*
X195450477Y-48788026D01*
X195442336Y-48795090D01*
X195438953Y-48799216D01*
X195438949Y-48799220D01*
X195372827Y-48879862D01*
X195291638Y-48978880D01*
X195288999Y-48983516D01*
X195288997Y-48983519D01*
X195255941Y-49041590D01*
X195174061Y-49185433D01*
X195092966Y-49408844D01*
X195092017Y-49414092D01*
X195052923Y-49630289D01*
X195050674Y-49642725D01*
X195049500Y-49667619D01*
X195049500Y-50384680D01*
X195049725Y-50387328D01*
X195061162Y-50522115D01*
X195064531Y-50561823D01*
X195065869Y-50566978D01*
X195065870Y-50566984D01*
X195106142Y-50722146D01*
X195124240Y-50791874D01*
X195144248Y-50836290D01*
X195213749Y-50990576D01*
X195221857Y-51008576D01*
X195354591Y-51205732D01*
X195358270Y-51209589D01*
X195358272Y-51209591D01*
X195404454Y-51258002D01*
X195486924Y-51344452D01*
X195489670Y-51347331D01*
X195522217Y-51410428D01*
X195524500Y-51434303D01*
X195524500Y-57167242D01*
X195522949Y-57186951D01*
X195520677Y-57201297D01*
X195521022Y-57207884D01*
X195521022Y-57207889D01*
X195524327Y-57270942D01*
X195524500Y-57277536D01*
X195524500Y-57298504D01*
X195524844Y-57301776D01*
X195524844Y-57301778D01*
X195526692Y-57319364D01*
X195527209Y-57325938D01*
X195528930Y-57358762D01*
X195530859Y-57395578D01*
X195534618Y-57409607D01*
X195538221Y-57429049D01*
X195539738Y-57443482D01*
X195541778Y-57449760D01*
X195541778Y-57449761D01*
X195543477Y-57454989D01*
X195558135Y-57500101D01*
X195561285Y-57509797D01*
X195563157Y-57516115D01*
X195581212Y-57583497D01*
X195584208Y-57589377D01*
X195587805Y-57596437D01*
X195595370Y-57614700D01*
X195599856Y-57628508D01*
X195603156Y-57634224D01*
X195603157Y-57634226D01*
X195634734Y-57688919D01*
X195637882Y-57694717D01*
X195669535Y-57756840D01*
X195669749Y-57757104D01*
X195689409Y-57822901D01*
X195669731Y-57891116D01*
X195616296Y-57937864D01*
X195563410Y-57949500D01*
X194421408Y-57949501D01*
X194412164Y-57949501D01*
X194407411Y-57949774D01*
X194232423Y-57990173D01*
X194070734Y-58068336D01*
X193930380Y-58180380D01*
X193818336Y-58320734D01*
X193740173Y-58482423D01*
X193738589Y-58489284D01*
X193720339Y-58568336D01*
X193699774Y-58657411D01*
X193699500Y-58662163D01*
X193699501Y-58911261D01*
X193699501Y-59139454D01*
X193679499Y-59207575D01*
X193662596Y-59228549D01*
X192891591Y-59999554D01*
X192876559Y-60012393D01*
X192864808Y-60020931D01*
X192860395Y-60025833D01*
X192860393Y-60025834D01*
X192818131Y-60072771D01*
X192813590Y-60077555D01*
X192798775Y-60092370D01*
X192796699Y-60094934D01*
X192785580Y-60108664D01*
X192781296Y-60113679D01*
X192739053Y-60160595D01*
X192739050Y-60160599D01*
X192734630Y-60165508D01*
X192730225Y-60173138D01*
X192727369Y-60178085D01*
X192716174Y-60194373D01*
X192711192Y-60200526D01*
X192707035Y-60205660D01*
X192704037Y-60211544D01*
X192675382Y-60267783D01*
X192672234Y-60273581D01*
X192640657Y-60328274D01*
X192637356Y-60333992D01*
X192632870Y-60347799D01*
X192625305Y-60366063D01*
X192618712Y-60379003D01*
X192617004Y-60385376D01*
X192617004Y-60385377D01*
X192600659Y-60446378D01*
X192598787Y-60452696D01*
X192577238Y-60519018D01*
X192576548Y-60525584D01*
X192575721Y-60533451D01*
X192572118Y-60552893D01*
X192568359Y-60566922D01*
X192568014Y-60573514D01*
X192568013Y-60573517D01*
X192564709Y-60636562D01*
X192564192Y-60643136D01*
X192563490Y-60649821D01*
X192562000Y-60663996D01*
X192562000Y-60684964D01*
X192561827Y-60691558D01*
X192559013Y-60745258D01*
X192558177Y-60761203D01*
X192559209Y-60767719D01*
X192560449Y-60775547D01*
X192562000Y-60795258D01*
X192562000Y-61753872D01*
X192541998Y-61821993D01*
X192513829Y-61850699D01*
X192514875Y-61851973D01*
X192510107Y-61855889D01*
X192504989Y-61859316D01*
X192359316Y-62004989D01*
X192244711Y-62176183D01*
X192165541Y-62366377D01*
X192124821Y-62568327D01*
X192124500Y-62574663D01*
X192124501Y-64025336D01*
X192124821Y-64031673D01*
X192165541Y-64233623D01*
X192244711Y-64423817D01*
X192359316Y-64595011D01*
X192504989Y-64740684D01*
X192676183Y-64855289D01*
X192866377Y-64934459D01*
X193068327Y-64975179D01*
X193072993Y-64975415D01*
X193072998Y-64975416D01*
X193073075Y-64975420D01*
X193073093Y-64975420D01*
X193074663Y-64975500D01*
X193076260Y-64975500D01*
X193489447Y-64975499D01*
X193900336Y-64975499D01*
X193901892Y-64975420D01*
X193901909Y-64975420D01*
X193902003Y-64975415D01*
X193902005Y-64975415D01*
X193906673Y-64975179D01*
X194108623Y-64934459D01*
X194298817Y-64855289D01*
X194470011Y-64740684D01*
X194615684Y-64595011D01*
X194730289Y-64423817D01*
X194809459Y-64233623D01*
X194826486Y-64149178D01*
X194859558Y-64086355D01*
X194921344Y-64051385D01*
X194992229Y-64055370D01*
X195049706Y-64097046D01*
X195073514Y-64149178D01*
X195090541Y-64233623D01*
X195169711Y-64423817D01*
X195284316Y-64595011D01*
X195301130Y-64611825D01*
X195335156Y-64674137D01*
X195330091Y-64744952D01*
X195301130Y-64790015D01*
X192864092Y-67227053D01*
X192849064Y-67239890D01*
X192837308Y-67248431D01*
X192832895Y-67253333D01*
X192832893Y-67253334D01*
X192790631Y-67300271D01*
X192786090Y-67305055D01*
X192771275Y-67319870D01*
X192769207Y-67322424D01*
X192769197Y-67322435D01*
X192758083Y-67336161D01*
X192753804Y-67341172D01*
X192707130Y-67393008D01*
X192699869Y-67405585D01*
X192688674Y-67421873D01*
X192683692Y-67428026D01*
X192679535Y-67433160D01*
X192676537Y-67439044D01*
X192647882Y-67495283D01*
X192644734Y-67501081D01*
X192613157Y-67555774D01*
X192609856Y-67561492D01*
X192607371Y-67569141D01*
X192605370Y-67575299D01*
X192597805Y-67593563D01*
X192591212Y-67606503D01*
X192589504Y-67612876D01*
X192589504Y-67612877D01*
X192573159Y-67673878D01*
X192571287Y-67680196D01*
X192549738Y-67746518D01*
X192549048Y-67753084D01*
X192548221Y-67760951D01*
X192544618Y-67780393D01*
X192540859Y-67794422D01*
X192540514Y-67801014D01*
X192540513Y-67801017D01*
X192537209Y-67864062D01*
X192536692Y-67870636D01*
X192534844Y-67888222D01*
X192534500Y-67891496D01*
X192534500Y-67912464D01*
X192534327Y-67919058D01*
X192530768Y-67986967D01*
X192507228Y-68053948D01*
X192486772Y-68076182D01*
X192297681Y-68237681D01*
X192294468Y-68241443D01*
X192285811Y-68251579D01*
X192226361Y-68290389D01*
X192155366Y-68290896D01*
X192094189Y-68251579D01*
X192085532Y-68241443D01*
X192082319Y-68237681D01*
X191886182Y-68070165D01*
X191666255Y-67935393D01*
X191661685Y-67933500D01*
X191661681Y-67933498D01*
X191432521Y-67838577D01*
X191432515Y-67838575D01*
X191427952Y-67836685D01*
X191423152Y-67835533D01*
X191423147Y-67835531D01*
X191308175Y-67807929D01*
X191177142Y-67776470D01*
X190920000Y-67756233D01*
X190662858Y-67776470D01*
X190531825Y-67807929D01*
X190416853Y-67835531D01*
X190416848Y-67835533D01*
X190412048Y-67836685D01*
X190407485Y-67838575D01*
X190407479Y-67838577D01*
X190178319Y-67933498D01*
X190178315Y-67933500D01*
X190173745Y-67935393D01*
X189953818Y-68070165D01*
X189757681Y-68237681D01*
X189590165Y-68433818D01*
X189455393Y-68653745D01*
X189453500Y-68658315D01*
X189453498Y-68658319D01*
X189358577Y-68887479D01*
X189358575Y-68887485D01*
X189356685Y-68892048D01*
X189355533Y-68896848D01*
X189355531Y-68896853D01*
X189328760Y-69008362D01*
X189296470Y-69142858D01*
X189276233Y-69400000D01*
X189296470Y-69657142D01*
X189356685Y-69907952D01*
X189358575Y-69912515D01*
X189358577Y-69912521D01*
X189445394Y-70122115D01*
X189455393Y-70146255D01*
X189590165Y-70366182D01*
X189757681Y-70562319D01*
X189953818Y-70729835D01*
X190173745Y-70864607D01*
X190178315Y-70866500D01*
X190178319Y-70866502D01*
X190407479Y-70961423D01*
X190407485Y-70961425D01*
X190412048Y-70963315D01*
X190416848Y-70964467D01*
X190416853Y-70964469D01*
X190531825Y-70992071D01*
X190662858Y-71023530D01*
X190920000Y-71043767D01*
X191177142Y-71023530D01*
X191308175Y-70992071D01*
X191423147Y-70964469D01*
X191423152Y-70964467D01*
X191427952Y-70963315D01*
X191432515Y-70961425D01*
X191432521Y-70961423D01*
X191661681Y-70866502D01*
X191661685Y-70866500D01*
X191666255Y-70864607D01*
X191886182Y-70729835D01*
X192082319Y-70562319D01*
X192094189Y-70548421D01*
X192153639Y-70509611D01*
X192224634Y-70509104D01*
X192285811Y-70548421D01*
X192297681Y-70562319D01*
X192493818Y-70729835D01*
X192713745Y-70864607D01*
X192718315Y-70866500D01*
X192718319Y-70866502D01*
X192947479Y-70961423D01*
X192947485Y-70961425D01*
X192952048Y-70963315D01*
X192956848Y-70964467D01*
X192956853Y-70964469D01*
X193071825Y-70992071D01*
X193202858Y-71023530D01*
X193460000Y-71043767D01*
X193717142Y-71023530D01*
X193848175Y-70992071D01*
X193963147Y-70964469D01*
X193963152Y-70964467D01*
X193967952Y-70963315D01*
X193972515Y-70961425D01*
X193972521Y-70961423D01*
X194201681Y-70866502D01*
X194201685Y-70866500D01*
X194206255Y-70864607D01*
X194426182Y-70729835D01*
X194622319Y-70562319D01*
X194634189Y-70548421D01*
X194693639Y-70509611D01*
X194764634Y-70509104D01*
X194825811Y-70548421D01*
X194837681Y-70562319D01*
X195033818Y-70729835D01*
X195253745Y-70864607D01*
X195258315Y-70866500D01*
X195258319Y-70866502D01*
X195487479Y-70961423D01*
X195487485Y-70961425D01*
X195492048Y-70963315D01*
X195496848Y-70964467D01*
X195496853Y-70964469D01*
X195611825Y-70992071D01*
X195742858Y-71023530D01*
X196000000Y-71043767D01*
X196257142Y-71023530D01*
X196388175Y-70992071D01*
X196503147Y-70964469D01*
X196503152Y-70964467D01*
X196507952Y-70963315D01*
X196512515Y-70961425D01*
X196512521Y-70961423D01*
X196741681Y-70866502D01*
X196741685Y-70866500D01*
X196746255Y-70864607D01*
X196966182Y-70729835D01*
X197162319Y-70562319D01*
X197174189Y-70548421D01*
X197233639Y-70509611D01*
X197304634Y-70509104D01*
X197365811Y-70548421D01*
X197377681Y-70562319D01*
X197573818Y-70729835D01*
X197793745Y-70864607D01*
X197798315Y-70866500D01*
X197798319Y-70866502D01*
X198027479Y-70961423D01*
X198027485Y-70961425D01*
X198032048Y-70963315D01*
X198036848Y-70964467D01*
X198036853Y-70964469D01*
X198151825Y-70992071D01*
X198282858Y-71023530D01*
X198540000Y-71043767D01*
X198797142Y-71023530D01*
X198928175Y-70992071D01*
X199043147Y-70964469D01*
X199043152Y-70964467D01*
X199047952Y-70963315D01*
X199052515Y-70961425D01*
X199052521Y-70961423D01*
X199281681Y-70866502D01*
X199281685Y-70866500D01*
X199286255Y-70864607D01*
X199506182Y-70729835D01*
X199702319Y-70562319D01*
X199714189Y-70548421D01*
X199773639Y-70509611D01*
X199844634Y-70509104D01*
X199905811Y-70548421D01*
X199917681Y-70562319D01*
X200113818Y-70729835D01*
X200333745Y-70864607D01*
X200338315Y-70866500D01*
X200338319Y-70866502D01*
X200567479Y-70961423D01*
X200567485Y-70961425D01*
X200572048Y-70963315D01*
X200576848Y-70964467D01*
X200576853Y-70964469D01*
X200691825Y-70992071D01*
X200822858Y-71023530D01*
X201080000Y-71043767D01*
X201337142Y-71023530D01*
X201468175Y-70992071D01*
X201583147Y-70964469D01*
X201583152Y-70964467D01*
X201587952Y-70963315D01*
X201592515Y-70961425D01*
X201592521Y-70961423D01*
X201821681Y-70866502D01*
X201821685Y-70866500D01*
X201826255Y-70864607D01*
X202046182Y-70729835D01*
X202242319Y-70562319D01*
X202284023Y-70513490D01*
X202871064Y-70513490D01*
X202880358Y-70525504D01*
X202939821Y-70567140D01*
X202949316Y-70572623D01*
X203152832Y-70667523D01*
X203163124Y-70671269D01*
X203380027Y-70729388D01*
X203390822Y-70731291D01*
X203614525Y-70750863D01*
X203625475Y-70750863D01*
X203849178Y-70731291D01*
X203859973Y-70729388D01*
X204076876Y-70671269D01*
X204087168Y-70667523D01*
X204290684Y-70572623D01*
X204300179Y-70567140D01*
X204360477Y-70524919D01*
X204368852Y-70514442D01*
X204361785Y-70500996D01*
X203632811Y-69772021D01*
X203618868Y-69764408D01*
X203617034Y-69764539D01*
X203610420Y-69768790D01*
X202877491Y-70501720D01*
X202871064Y-70513490D01*
X202284023Y-70513490D01*
X202409835Y-70366182D01*
X202544607Y-70146255D01*
X202556281Y-70118070D01*
X202583595Y-70077194D01*
X203247979Y-69412811D01*
X203255592Y-69398868D01*
X203255461Y-69397034D01*
X203251210Y-69390420D01*
X202583595Y-68722806D01*
X202556281Y-68681929D01*
X202546500Y-68658315D01*
X202546500Y-68658314D01*
X202544607Y-68653745D01*
X202409835Y-68433818D01*
X202283210Y-68285558D01*
X202871148Y-68285558D01*
X202878215Y-68299004D01*
X203607189Y-69027979D01*
X203621132Y-69035592D01*
X203622966Y-69035461D01*
X203629580Y-69031210D01*
X204362509Y-68298280D01*
X204368936Y-68286510D01*
X204359642Y-68274496D01*
X204300179Y-68232860D01*
X204290684Y-68227377D01*
X204087168Y-68132477D01*
X204076876Y-68128731D01*
X203859973Y-68070612D01*
X203849178Y-68068709D01*
X203625475Y-68049137D01*
X203614525Y-68049137D01*
X203390822Y-68068709D01*
X203380027Y-68070612D01*
X203163124Y-68128731D01*
X203152832Y-68132477D01*
X202949316Y-68227377D01*
X202939821Y-68232860D01*
X202879523Y-68275081D01*
X202871148Y-68285558D01*
X202283210Y-68285558D01*
X202242319Y-68237681D01*
X202046182Y-68070165D01*
X201826255Y-67935393D01*
X201821685Y-67933500D01*
X201821681Y-67933498D01*
X201669917Y-67870636D01*
X201637873Y-67857363D01*
X201582592Y-67812815D01*
X201560171Y-67745451D01*
X201577729Y-67676660D01*
X201596996Y-67651859D01*
X201636450Y-67612405D01*
X201698762Y-67578379D01*
X201725545Y-67575500D01*
X205467242Y-67575500D01*
X205486951Y-67577051D01*
X205501297Y-67579323D01*
X205507884Y-67578978D01*
X205507889Y-67578978D01*
X205570942Y-67575673D01*
X205577536Y-67575500D01*
X205598504Y-67575500D01*
X205601776Y-67575156D01*
X205601778Y-67575156D01*
X205619364Y-67573308D01*
X205625938Y-67572791D01*
X205684003Y-67569748D01*
X205695577Y-67569141D01*
X205695720Y-67571877D01*
X205747143Y-67578515D01*
X205770254Y-67554393D01*
X205794054Y-67543830D01*
X205809814Y-67538710D01*
X205816115Y-67536843D01*
X205883497Y-67518788D01*
X205889377Y-67515792D01*
X205896437Y-67512195D01*
X205914701Y-67504630D01*
X205928508Y-67500144D01*
X205934224Y-67496844D01*
X205934226Y-67496843D01*
X205988919Y-67465266D01*
X205994717Y-67462118D01*
X206050956Y-67433463D01*
X206056840Y-67430465D01*
X206061974Y-67426308D01*
X206068127Y-67421326D01*
X206084412Y-67410133D01*
X206096992Y-67402870D01*
X206101901Y-67398450D01*
X206101905Y-67398447D01*
X206148821Y-67356204D01*
X206153836Y-67351920D01*
X206167566Y-67340801D01*
X206170130Y-67338725D01*
X206184945Y-67323910D01*
X206189729Y-67319369D01*
X206236666Y-67277107D01*
X206236667Y-67277105D01*
X206241569Y-67272692D01*
X206250110Y-67260936D01*
X206262947Y-67245908D01*
X207358408Y-66150447D01*
X207373436Y-66137610D01*
X207385192Y-66129069D01*
X207418684Y-66091873D01*
X207431869Y-66077229D01*
X207436410Y-66072445D01*
X207451225Y-66057630D01*
X207464420Y-66041336D01*
X207468704Y-66036321D01*
X207510947Y-65989405D01*
X207510950Y-65989401D01*
X207515370Y-65984492D01*
X207522633Y-65971912D01*
X207533826Y-65955627D01*
X207538808Y-65949474D01*
X207538810Y-65949472D01*
X207542965Y-65944340D01*
X207564766Y-65901553D01*
X207574618Y-65882217D01*
X207577766Y-65876419D01*
X207609343Y-65821726D01*
X207609344Y-65821724D01*
X207612644Y-65816008D01*
X207617130Y-65802200D01*
X207624695Y-65783937D01*
X207628292Y-65776877D01*
X207631288Y-65770997D01*
X207633617Y-65762307D01*
X207643067Y-65727036D01*
X207649343Y-65703615D01*
X207651215Y-65697297D01*
X207651650Y-65695960D01*
X207672762Y-65630982D01*
X207674279Y-65616549D01*
X207677882Y-65597107D01*
X207681641Y-65583078D01*
X207684188Y-65534492D01*
X207685291Y-65513438D01*
X207685808Y-65506864D01*
X207687656Y-65489278D01*
X207687656Y-65489276D01*
X207688000Y-65486004D01*
X207688000Y-65465036D01*
X207688173Y-65458442D01*
X207691478Y-65395389D01*
X207691478Y-65395384D01*
X207691823Y-65388797D01*
X207689551Y-65374451D01*
X207688000Y-65354742D01*
X207688000Y-64496128D01*
X207708002Y-64428007D01*
X207736171Y-64399301D01*
X207735125Y-64398027D01*
X207739893Y-64394110D01*
X207745011Y-64390684D01*
X207890684Y-64245011D01*
X208005289Y-64073817D01*
X208084459Y-63883623D01*
X208125179Y-63681673D01*
X208125500Y-63675337D01*
X208125499Y-62224664D01*
X208125179Y-62218327D01*
X208084459Y-62016377D01*
X208005289Y-61826183D01*
X207890684Y-61654989D01*
X207745011Y-61509316D01*
X207573817Y-61394711D01*
X207383623Y-61315541D01*
X207377590Y-61314325D01*
X207377585Y-61314323D01*
X207200363Y-61278589D01*
X207137540Y-61245517D01*
X207102570Y-61183730D01*
X207100775Y-61142621D01*
X207100226Y-61142589D01*
X207100395Y-61139660D01*
X207100395Y-61139656D01*
X207100500Y-61137837D01*
X207100500Y-61026500D01*
X207120502Y-60958379D01*
X207174158Y-60911886D01*
X207226500Y-60900500D01*
X207933931Y-60900499D01*
X208226954Y-60900499D01*
X208295075Y-60920501D01*
X208316049Y-60937404D01*
X208337595Y-60958950D01*
X208371621Y-61021262D01*
X208374500Y-61048045D01*
X208374501Y-61470156D01*
X208374501Y-61775336D01*
X208374821Y-61781673D01*
X208415541Y-61983623D01*
X208494711Y-62173817D01*
X208609316Y-62345011D01*
X208754989Y-62490684D01*
X208926183Y-62605289D01*
X209116377Y-62684459D01*
X209318327Y-62725179D01*
X209322993Y-62725415D01*
X209322998Y-62725416D01*
X209323075Y-62725420D01*
X209323093Y-62725420D01*
X209324663Y-62725500D01*
X209326260Y-62725500D01*
X210053422Y-62725499D01*
X210775336Y-62725499D01*
X210776892Y-62725420D01*
X210776909Y-62725420D01*
X210777003Y-62725415D01*
X210777005Y-62725415D01*
X210781673Y-62725179D01*
X210983623Y-62684459D01*
X211173817Y-62605289D01*
X211328406Y-62501800D01*
X211396141Y-62480526D01*
X211464624Y-62499249D01*
X211512113Y-62552025D01*
X211524500Y-62606504D01*
X211524500Y-62674455D01*
X211504498Y-62742576D01*
X211487595Y-62763550D01*
X206511552Y-67739593D01*
X206449240Y-67773619D01*
X206412572Y-67776110D01*
X206164931Y-67756621D01*
X206164930Y-67756621D01*
X206160000Y-67756233D01*
X205902858Y-67776470D01*
X205898049Y-67777624D01*
X205898046Y-67777625D01*
X205862408Y-67786181D01*
X205791500Y-67782634D01*
X205788746Y-67780663D01*
X205757410Y-67808617D01*
X205732836Y-67817288D01*
X205656865Y-67835527D01*
X205656847Y-67835533D01*
X205652048Y-67836685D01*
X205647485Y-67838575D01*
X205647479Y-67838577D01*
X205418319Y-67933498D01*
X205418315Y-67933500D01*
X205413745Y-67935393D01*
X205193818Y-68070165D01*
X204997681Y-68237681D01*
X204830165Y-68433818D01*
X204695393Y-68653745D01*
X204693500Y-68658314D01*
X204693500Y-68658315D01*
X204683719Y-68681929D01*
X204656405Y-68722806D01*
X203992021Y-69387189D01*
X203984408Y-69401132D01*
X203984539Y-69402966D01*
X203988790Y-69409580D01*
X204656405Y-70077194D01*
X204683719Y-70118070D01*
X204695393Y-70146255D01*
X204830165Y-70366182D01*
X204997681Y-70562319D01*
X205017269Y-70579049D01*
X205190330Y-70726856D01*
X205229139Y-70786306D01*
X205234500Y-70822667D01*
X205234500Y-72727242D01*
X205232949Y-72746951D01*
X205230677Y-72761297D01*
X205231022Y-72767884D01*
X205231022Y-72767889D01*
X205234327Y-72830942D01*
X205234500Y-72837536D01*
X205234500Y-72858504D01*
X205234844Y-72861776D01*
X205234844Y-72861778D01*
X205236692Y-72879364D01*
X205237209Y-72885938D01*
X205238425Y-72909131D01*
X205240859Y-72955578D01*
X205244618Y-72969607D01*
X205248221Y-72989049D01*
X205249738Y-73003482D01*
X205251778Y-73009760D01*
X205251778Y-73009761D01*
X205271285Y-73069797D01*
X205273157Y-73076115D01*
X205291212Y-73143497D01*
X205294208Y-73149377D01*
X205297805Y-73156437D01*
X205305370Y-73174700D01*
X205309856Y-73188508D01*
X205313156Y-73194224D01*
X205313157Y-73194226D01*
X205344734Y-73248919D01*
X205347882Y-73254717D01*
X205379535Y-73316840D01*
X205383690Y-73321972D01*
X205383692Y-73321974D01*
X205388674Y-73328127D01*
X205399867Y-73344412D01*
X205407130Y-73356992D01*
X205411550Y-73361901D01*
X205411553Y-73361905D01*
X205453796Y-73408821D01*
X205458080Y-73413836D01*
X205471275Y-73430130D01*
X205486090Y-73444945D01*
X205490631Y-73449729D01*
X205532431Y-73496152D01*
X205537308Y-73501569D01*
X205549063Y-73510109D01*
X205564085Y-73522940D01*
X207737054Y-75695909D01*
X207749893Y-75710941D01*
X207758431Y-75722692D01*
X207763333Y-75727105D01*
X207763334Y-75727107D01*
X207810271Y-75769369D01*
X207815055Y-75773910D01*
X207829870Y-75788725D01*
X207832434Y-75790801D01*
X207846164Y-75801920D01*
X207851179Y-75806204D01*
X207898095Y-75848447D01*
X207898099Y-75848450D01*
X207903008Y-75852870D01*
X207915588Y-75860133D01*
X207931873Y-75871326D01*
X207938026Y-75876308D01*
X207943160Y-75880465D01*
X207949044Y-75883463D01*
X208005283Y-75912118D01*
X208011081Y-75915266D01*
X208065774Y-75946843D01*
X208065776Y-75946844D01*
X208071492Y-75950144D01*
X208085299Y-75954630D01*
X208103563Y-75962195D01*
X208106362Y-75963621D01*
X208116503Y-75968788D01*
X208183885Y-75986843D01*
X208190196Y-75988713D01*
X208256518Y-76010262D01*
X208270951Y-76011779D01*
X208290393Y-76015382D01*
X208304422Y-76019141D01*
X208311014Y-76019486D01*
X208311017Y-76019487D01*
X208374062Y-76022791D01*
X208380636Y-76023308D01*
X208398222Y-76025156D01*
X208398224Y-76025156D01*
X208401496Y-76025500D01*
X208422464Y-76025500D01*
X208429058Y-76025673D01*
X208492111Y-76028978D01*
X208492116Y-76028978D01*
X208498703Y-76029323D01*
X208513049Y-76027051D01*
X208532758Y-76025500D01*
X209078002Y-76025500D01*
X209146123Y-76045502D01*
X209192616Y-76099158D01*
X209202720Y-76169432D01*
X209179091Y-76226713D01*
X209080421Y-76359330D01*
X208972705Y-76571193D01*
X208971124Y-76576284D01*
X208971123Y-76576287D01*
X208909661Y-76774228D01*
X208902225Y-76798176D01*
X208901524Y-76803465D01*
X208872018Y-77026081D01*
X208870996Y-77033789D01*
X208871196Y-77039118D01*
X208871196Y-77039119D01*
X208873248Y-77093773D01*
X208855816Y-77162596D01*
X208803942Y-77211069D01*
X208747337Y-77224500D01*
X195041500Y-77224500D01*
X194973379Y-77204498D01*
X194926886Y-77150842D01*
X194915500Y-77098500D01*
X194915499Y-76626246D01*
X194915499Y-76624664D01*
X194915179Y-76618327D01*
X194874459Y-76416377D01*
X194795289Y-76226183D01*
X194680684Y-76054989D01*
X194535011Y-75909316D01*
X194363817Y-75794711D01*
X194173623Y-75715541D01*
X193982108Y-75676925D01*
X193976261Y-75675746D01*
X193976260Y-75675746D01*
X193971673Y-75674821D01*
X193967007Y-75674585D01*
X193967002Y-75674584D01*
X193966925Y-75674580D01*
X193966907Y-75674580D01*
X193965337Y-75674500D01*
X193963740Y-75674500D01*
X193236578Y-75674501D01*
X192514664Y-75674501D01*
X192513108Y-75674580D01*
X192513091Y-75674580D01*
X192512997Y-75674585D01*
X192512995Y-75674585D01*
X192508327Y-75674821D01*
X192503740Y-75675746D01*
X192503739Y-75675746D01*
X192497892Y-75676925D01*
X192306377Y-75715541D01*
X192116183Y-75794711D01*
X191944989Y-75909316D01*
X191799316Y-76054989D01*
X191795893Y-76060102D01*
X191795889Y-76060107D01*
X191731025Y-76157000D01*
X191676508Y-76202480D01*
X191674791Y-76202694D01*
X191673889Y-76250850D01*
X191670003Y-76261515D01*
X191607910Y-76410684D01*
X191607908Y-76410691D01*
X191605541Y-76416377D01*
X191564821Y-76618327D01*
X191564500Y-76624663D01*
X191564501Y-76984036D01*
X191564501Y-77323500D01*
X191544499Y-77391621D01*
X191490843Y-77438114D01*
X191438501Y-77449500D01*
X190981121Y-77449500D01*
X190266499Y-77449501D01*
X190198378Y-77429499D01*
X190151885Y-77375843D01*
X190140499Y-77323501D01*
X190140499Y-77212164D01*
X190140226Y-77207411D01*
X190099827Y-77032423D01*
X190021664Y-76870734D01*
X189989232Y-76830107D01*
X189962365Y-76764393D01*
X189975292Y-76694583D01*
X190023908Y-76642844D01*
X190087704Y-76625500D01*
X190659274Y-76625499D01*
X190665336Y-76625499D01*
X190666892Y-76625420D01*
X190666909Y-76625420D01*
X190667003Y-76625415D01*
X190667005Y-76625415D01*
X190671673Y-76625179D01*
X190682029Y-76623091D01*
X190728409Y-76613739D01*
X190873623Y-76584459D01*
X191063817Y-76505289D01*
X191235011Y-76390684D01*
X191380684Y-76245011D01*
X191384107Y-76239898D01*
X191384111Y-76239893D01*
X191448975Y-76143000D01*
X191503492Y-76097520D01*
X191505209Y-76097306D01*
X191506111Y-76049150D01*
X191509997Y-76038485D01*
X191572090Y-75889316D01*
X191572093Y-75889307D01*
X191574459Y-75883623D01*
X191615179Y-75681673D01*
X191615500Y-75675337D01*
X191615499Y-74224664D01*
X191615179Y-74218327D01*
X191609415Y-74189738D01*
X191602309Y-74154498D01*
X191574459Y-74016377D01*
X191495289Y-73826183D01*
X191380684Y-73654989D01*
X191235011Y-73509316D01*
X191063817Y-73394711D01*
X190873623Y-73315541D01*
X190671673Y-73274821D01*
X190667007Y-73274585D01*
X190667002Y-73274584D01*
X190666925Y-73274580D01*
X190666907Y-73274580D01*
X190665337Y-73274500D01*
X190663740Y-73274500D01*
X190250553Y-73274501D01*
X189839664Y-73274501D01*
X189838108Y-73274580D01*
X189838091Y-73274580D01*
X189837997Y-73274585D01*
X189837995Y-73274585D01*
X189833327Y-73274821D01*
X189631377Y-73315541D01*
X189441183Y-73394711D01*
X189269989Y-73509316D01*
X189124316Y-73654989D01*
X189009711Y-73826183D01*
X188930541Y-74016377D01*
X188929324Y-74022415D01*
X188913514Y-74100822D01*
X188880442Y-74163645D01*
X188818656Y-74198615D01*
X188747771Y-74194630D01*
X188690294Y-74152954D01*
X188666486Y-74100822D01*
X188650676Y-74022415D01*
X188649459Y-74016377D01*
X188570289Y-73826183D01*
X188455684Y-73654989D01*
X188310011Y-73509316D01*
X188138817Y-73394711D01*
X187948623Y-73315541D01*
X187746673Y-73274821D01*
X187742007Y-73274585D01*
X187742002Y-73274584D01*
X187741925Y-73274580D01*
X187741907Y-73274580D01*
X187740337Y-73274500D01*
X187738740Y-73274500D01*
X187325553Y-73274501D01*
X186914664Y-73274501D01*
X186913108Y-73274580D01*
X186913091Y-73274580D01*
X186912997Y-73274585D01*
X186912995Y-73274585D01*
X186908327Y-73274821D01*
X186706377Y-73315541D01*
X186516183Y-73394711D01*
X186344989Y-73509316D01*
X186199316Y-73654989D01*
X186084711Y-73826183D01*
X186005541Y-74016377D01*
X185977691Y-74154498D01*
X185970586Y-74189738D01*
X185964821Y-74218327D01*
X185964500Y-74224663D01*
X185964501Y-75675336D01*
X185964821Y-75681673D01*
X186005541Y-75883623D01*
X186084711Y-76073817D01*
X186199316Y-76245011D01*
X186344989Y-76390684D01*
X186350107Y-76394110D01*
X186354875Y-76398027D01*
X186353254Y-76400001D01*
X186391582Y-76445960D01*
X186402000Y-76496128D01*
X186402000Y-78054742D01*
X186400449Y-78074451D01*
X186398177Y-78088797D01*
X186398522Y-78095384D01*
X186398522Y-78095389D01*
X186401827Y-78158442D01*
X186402000Y-78165036D01*
X186402000Y-78186004D01*
X186402344Y-78189276D01*
X186402344Y-78189278D01*
X186404192Y-78206864D01*
X186404709Y-78213438D01*
X186407803Y-78272466D01*
X186408359Y-78283078D01*
X186412118Y-78297107D01*
X186415721Y-78316549D01*
X186417238Y-78330982D01*
X186419278Y-78337260D01*
X186419278Y-78337261D01*
X186438785Y-78397297D01*
X186440657Y-78403615D01*
X186458712Y-78470997D01*
X186461708Y-78476877D01*
X186465305Y-78483937D01*
X186472870Y-78502200D01*
X186477356Y-78516008D01*
X186480656Y-78521724D01*
X186480657Y-78521726D01*
X186512234Y-78576419D01*
X186515382Y-78582217D01*
X186547035Y-78644340D01*
X186551190Y-78649472D01*
X186551192Y-78649474D01*
X186556174Y-78655627D01*
X186567367Y-78671912D01*
X186574630Y-78684492D01*
X186579050Y-78689401D01*
X186579053Y-78689405D01*
X186621296Y-78736321D01*
X186625580Y-78741336D01*
X186638775Y-78757630D01*
X186653590Y-78772445D01*
X186658131Y-78777229D01*
X186704808Y-78829069D01*
X186716563Y-78837609D01*
X186731579Y-78850434D01*
X187202597Y-79321452D01*
X187236621Y-79383762D01*
X187239500Y-79410545D01*
X187239501Y-79648670D01*
X187239501Y-79887836D01*
X187239774Y-79892589D01*
X187280173Y-80067577D01*
X187283239Y-80073919D01*
X187341004Y-80193412D01*
X187358336Y-80229266D01*
X187470380Y-80369620D01*
X187610734Y-80481664D01*
X187648661Y-80499998D01*
X187693339Y-80521597D01*
X187745964Y-80569254D01*
X187764500Y-80635037D01*
X187764500Y-83037042D01*
X187744498Y-83105163D01*
X187686718Y-83153451D01*
X187638319Y-83173498D01*
X187638315Y-83173500D01*
X187633745Y-83175393D01*
X187413818Y-83310165D01*
X187217681Y-83477681D01*
X187214468Y-83481443D01*
X187205811Y-83491579D01*
X187146361Y-83530389D01*
X187075366Y-83530896D01*
X187014189Y-83491579D01*
X187005532Y-83481443D01*
X187002319Y-83477681D01*
X186806182Y-83310165D01*
X186586255Y-83175393D01*
X186581685Y-83173500D01*
X186581681Y-83173498D01*
X186352521Y-83078577D01*
X186352515Y-83078575D01*
X186347952Y-83076685D01*
X186343152Y-83075533D01*
X186343147Y-83075531D01*
X186182829Y-83037042D01*
X186097142Y-83016470D01*
X185840000Y-82996233D01*
X185582858Y-83016470D01*
X185497171Y-83037042D01*
X185336853Y-83075531D01*
X185336848Y-83075533D01*
X185332048Y-83076685D01*
X185327485Y-83078575D01*
X185327479Y-83078577D01*
X185098319Y-83173498D01*
X185098315Y-83173500D01*
X185093745Y-83175393D01*
X184873818Y-83310165D01*
X184677681Y-83477681D01*
X184674468Y-83481443D01*
X184665811Y-83491579D01*
X184606361Y-83530389D01*
X184535366Y-83530896D01*
X184474189Y-83491579D01*
X184465532Y-83481443D01*
X184462319Y-83477681D01*
X184266182Y-83310165D01*
X184046255Y-83175393D01*
X184041685Y-83173500D01*
X184041681Y-83173498D01*
X183812521Y-83078577D01*
X183812515Y-83078575D01*
X183807952Y-83076685D01*
X183803152Y-83075533D01*
X183803147Y-83075531D01*
X183642829Y-83037042D01*
X183557142Y-83016470D01*
X183300000Y-82996233D01*
X183042858Y-83016470D01*
X182957171Y-83037042D01*
X182796853Y-83075531D01*
X182796848Y-83075533D01*
X182792048Y-83076685D01*
X182787485Y-83078575D01*
X182787479Y-83078577D01*
X182558319Y-83173498D01*
X182558315Y-83173500D01*
X182553745Y-83175393D01*
X182333818Y-83310165D01*
X182137681Y-83477681D01*
X182134468Y-83481443D01*
X182125811Y-83491579D01*
X182066361Y-83530389D01*
X181995366Y-83530896D01*
X181934189Y-83491579D01*
X181925532Y-83481443D01*
X181922319Y-83477681D01*
X181726182Y-83310165D01*
X181506255Y-83175393D01*
X181501685Y-83173500D01*
X181501681Y-83173498D01*
X181272521Y-83078577D01*
X181272515Y-83078575D01*
X181267952Y-83076685D01*
X181263152Y-83075533D01*
X181263147Y-83075531D01*
X181102829Y-83037042D01*
X181017142Y-83016470D01*
X180760000Y-82996233D01*
X180502858Y-83016470D01*
X180417171Y-83037042D01*
X180256853Y-83075531D01*
X180256848Y-83075533D01*
X180252048Y-83076685D01*
X180247485Y-83078575D01*
X180247479Y-83078577D01*
X180018319Y-83173498D01*
X180018315Y-83173500D01*
X180013745Y-83175393D01*
X179793818Y-83310165D01*
X179597681Y-83477681D01*
X179594468Y-83481443D01*
X179585811Y-83491579D01*
X179526361Y-83530389D01*
X179455366Y-83530896D01*
X179394189Y-83491579D01*
X179385532Y-83481443D01*
X179382319Y-83477681D01*
X179186182Y-83310165D01*
X178966255Y-83175393D01*
X178961685Y-83173500D01*
X178961681Y-83173498D01*
X178732521Y-83078577D01*
X178732515Y-83078575D01*
X178727952Y-83076685D01*
X178723152Y-83075533D01*
X178723147Y-83075531D01*
X178562829Y-83037042D01*
X178477142Y-83016470D01*
X178220000Y-82996233D01*
X177962858Y-83016470D01*
X177877171Y-83037042D01*
X177716853Y-83075531D01*
X177716848Y-83075533D01*
X177712048Y-83076685D01*
X177707485Y-83078575D01*
X177707479Y-83078577D01*
X177478319Y-83173498D01*
X177478315Y-83173500D01*
X177473745Y-83175393D01*
X177253818Y-83310165D01*
X177057681Y-83477681D01*
X177054468Y-83481443D01*
X177045811Y-83491579D01*
X176986361Y-83530389D01*
X176915366Y-83530896D01*
X176854189Y-83491579D01*
X176845532Y-83481443D01*
X176842319Y-83477681D01*
X176646182Y-83310165D01*
X176426255Y-83175393D01*
X176421685Y-83173500D01*
X176421681Y-83173498D01*
X176192521Y-83078577D01*
X176192515Y-83078575D01*
X176187952Y-83076685D01*
X176183152Y-83075533D01*
X176183147Y-83075531D01*
X176022829Y-83037042D01*
X175937142Y-83016470D01*
X175680000Y-82996233D01*
X175422858Y-83016470D01*
X175337171Y-83037042D01*
X175176853Y-83075531D01*
X175176848Y-83075533D01*
X175172048Y-83076685D01*
X175167485Y-83078575D01*
X175167479Y-83078577D01*
X174938319Y-83173498D01*
X174938315Y-83173500D01*
X174933745Y-83175393D01*
X174713818Y-83310165D01*
X174517681Y-83477681D01*
X174514468Y-83481443D01*
X174505811Y-83491579D01*
X174446361Y-83530389D01*
X174375366Y-83530896D01*
X174314191Y-83491582D01*
X174311174Y-83488049D01*
X174282143Y-83423262D01*
X174292747Y-83353061D01*
X174321397Y-83315517D01*
X174320605Y-83314711D01*
X174323939Y-83311434D01*
X174327506Y-83308415D01*
X174444164Y-83175393D01*
X174489996Y-83123132D01*
X174490000Y-83123127D01*
X174493078Y-83119617D01*
X174546192Y-83037042D01*
X174626396Y-82912351D01*
X174626399Y-82912346D01*
X174628924Y-82908420D01*
X174732062Y-82679463D01*
X174733332Y-82674960D01*
X174798955Y-82442281D01*
X174798956Y-82442278D01*
X174800225Y-82437777D01*
X174816345Y-82311064D01*
X174831517Y-82191801D01*
X174831517Y-82191795D01*
X174831915Y-82188670D01*
X174834237Y-82100000D01*
X174815627Y-81849576D01*
X174760207Y-81604653D01*
X174758514Y-81600299D01*
X174670886Y-81374965D01*
X174670885Y-81374963D01*
X174669193Y-81370612D01*
X174544586Y-81152595D01*
X174498481Y-81094110D01*
X174482832Y-81074260D01*
X174389123Y-80955390D01*
X174385722Y-80952191D01*
X174385715Y-80952183D01*
X174354138Y-80922479D01*
X174318225Y-80861236D01*
X174321124Y-80790298D01*
X174345738Y-80747626D01*
X174489996Y-80583132D01*
X174490000Y-80583127D01*
X174493078Y-80579617D01*
X174554111Y-80484731D01*
X174626396Y-80372351D01*
X174626399Y-80372346D01*
X174628924Y-80368420D01*
X174732062Y-80139463D01*
X174745194Y-80092901D01*
X174798955Y-79902281D01*
X174798956Y-79902278D01*
X174800225Y-79897777D01*
X174809005Y-79828757D01*
X174831517Y-79651801D01*
X174831517Y-79651795D01*
X174831915Y-79648670D01*
X174834237Y-79560000D01*
X174823651Y-79417548D01*
X174815973Y-79314228D01*
X174815972Y-79314224D01*
X174815627Y-79309576D01*
X174760207Y-79064653D01*
X174749453Y-79037000D01*
X174670886Y-78834965D01*
X174670885Y-78834963D01*
X174669193Y-78830612D01*
X174628816Y-78759966D01*
X174615301Y-78736321D01*
X174544586Y-78612595D01*
X174518313Y-78579267D01*
X174457559Y-78502201D01*
X174389123Y-78415390D01*
X174385722Y-78412191D01*
X174385715Y-78412183D01*
X174354138Y-78382479D01*
X174318225Y-78321236D01*
X174321124Y-78250298D01*
X174345738Y-78207626D01*
X174489996Y-78043132D01*
X174490000Y-78043127D01*
X174493078Y-78039617D01*
X174508403Y-78015792D01*
X174626396Y-77832351D01*
X174626399Y-77832346D01*
X174628924Y-77828420D01*
X174732062Y-77599463D01*
X174741149Y-77567242D01*
X174798955Y-77362281D01*
X174798956Y-77362278D01*
X174800225Y-77357777D01*
X174816345Y-77231064D01*
X174831517Y-77111801D01*
X174831517Y-77111795D01*
X174831915Y-77108670D01*
X174832182Y-77098500D01*
X174833876Y-77033789D01*
X174834237Y-77020000D01*
X174823616Y-76877078D01*
X174815973Y-76774228D01*
X174815972Y-76774224D01*
X174815627Y-76769576D01*
X174760207Y-76524653D01*
X174749114Y-76496128D01*
X174670886Y-76294965D01*
X174670885Y-76294963D01*
X174669193Y-76290612D01*
X174544586Y-76072595D01*
X174536060Y-76061779D01*
X174464098Y-75970496D01*
X174389123Y-75875390D01*
X174385722Y-75872191D01*
X174385715Y-75872183D01*
X174354138Y-75842479D01*
X174318225Y-75781236D01*
X174321124Y-75710298D01*
X174345738Y-75667626D01*
X174489996Y-75503132D01*
X174490000Y-75503127D01*
X174493078Y-75499617D01*
X174529878Y-75442405D01*
X174626396Y-75292351D01*
X174626399Y-75292346D01*
X174628924Y-75288420D01*
X174732062Y-75059463D01*
X174733332Y-75054960D01*
X174798955Y-74822281D01*
X174798956Y-74822278D01*
X174800225Y-74817777D01*
X174802723Y-74798139D01*
X174831517Y-74571801D01*
X174831517Y-74571795D01*
X174831915Y-74568670D01*
X174832634Y-74541238D01*
X174834154Y-74483160D01*
X174834237Y-74480000D01*
X174828985Y-74409330D01*
X174815973Y-74234228D01*
X174815972Y-74234224D01*
X174815627Y-74229576D01*
X174760207Y-73984653D01*
X174737039Y-73925076D01*
X174670886Y-73754965D01*
X174670885Y-73754963D01*
X174669193Y-73750612D01*
X174645224Y-73708674D01*
X174595859Y-73622305D01*
X174544586Y-73532595D01*
X174536980Y-73522946D01*
X174465651Y-73432466D01*
X174389123Y-73335390D01*
X174206218Y-73163331D01*
X174080507Y-73076122D01*
X174003732Y-73022861D01*
X174003729Y-73022859D01*
X173999890Y-73020196D01*
X173978730Y-73009761D01*
X173778860Y-72911196D01*
X173778857Y-72911195D01*
X173774672Y-72909131D01*
X173535512Y-72832575D01*
X173530905Y-72831825D01*
X173530902Y-72831824D01*
X173292273Y-72792961D01*
X173292274Y-72792961D01*
X173287662Y-72792210D01*
X173165729Y-72790614D01*
X173041246Y-72788984D01*
X173041243Y-72788984D01*
X173036569Y-72788923D01*
X172787748Y-72822786D01*
X172783262Y-72824094D01*
X172783260Y-72824094D01*
X172748441Y-72834243D01*
X172546666Y-72893055D01*
X172542413Y-72895015D01*
X172542412Y-72895016D01*
X172507315Y-72911196D01*
X172318618Y-72998187D01*
X172314713Y-73000747D01*
X172314708Y-73000750D01*
X172112527Y-73133305D01*
X172112522Y-73133309D01*
X172108614Y-73135871D01*
X172105122Y-73138988D01*
X171951898Y-73275746D01*
X171921268Y-73303084D01*
X171894035Y-73335828D01*
X171799305Y-73449729D01*
X171760695Y-73496152D01*
X171758269Y-73500149D01*
X171757184Y-73501671D01*
X171701341Y-73545512D01*
X171654607Y-73554500D01*
X171052758Y-73554500D01*
X171033049Y-73552949D01*
X171018703Y-73550677D01*
X171012116Y-73551022D01*
X171012111Y-73551022D01*
X170949058Y-73554327D01*
X170942464Y-73554500D01*
X170921496Y-73554500D01*
X170918224Y-73554844D01*
X170918222Y-73554844D01*
X170900636Y-73556692D01*
X170894062Y-73557209D01*
X170831017Y-73560513D01*
X170831014Y-73560514D01*
X170824422Y-73560859D01*
X170810393Y-73564618D01*
X170790951Y-73568221D01*
X170776518Y-73569738D01*
X170710196Y-73591287D01*
X170703885Y-73593157D01*
X170636503Y-73611212D01*
X170630623Y-73614208D01*
X170623563Y-73617805D01*
X170605300Y-73625370D01*
X170591492Y-73629856D01*
X170585776Y-73633156D01*
X170585774Y-73633157D01*
X170531081Y-73664734D01*
X170525283Y-73667882D01*
X170463160Y-73699535D01*
X170458028Y-73703690D01*
X170458026Y-73703692D01*
X170451873Y-73708674D01*
X170435588Y-73719867D01*
X170423008Y-73727130D01*
X170418099Y-73731550D01*
X170418095Y-73731553D01*
X170371179Y-73773796D01*
X170366164Y-73778080D01*
X170363840Y-73779962D01*
X170349870Y-73791275D01*
X170335055Y-73806090D01*
X170330271Y-73810631D01*
X170278431Y-73857308D01*
X170269890Y-73869064D01*
X170257053Y-73884092D01*
X170170869Y-73970276D01*
X170108557Y-74004302D01*
X170037742Y-73999237D01*
X170019442Y-73990683D01*
X169814567Y-73874061D01*
X169591156Y-73792966D01*
X169570324Y-73789199D01*
X169361359Y-73751412D01*
X169361352Y-73751411D01*
X169357275Y-73750674D01*
X169339009Y-73749813D01*
X169333869Y-73749570D01*
X169333862Y-73749570D01*
X169332381Y-73749500D01*
X168615320Y-73749500D01*
X168532974Y-73756487D01*
X168443488Y-73764080D01*
X168443484Y-73764081D01*
X168438177Y-73764531D01*
X168433022Y-73765869D01*
X168433016Y-73765870D01*
X168269024Y-73808434D01*
X168208126Y-73824240D01*
X168191188Y-73831870D01*
X167996285Y-73919667D01*
X167996282Y-73919668D01*
X167991424Y-73921857D01*
X167794268Y-74054591D01*
X167790411Y-74058270D01*
X167790409Y-74058272D01*
X167754701Y-74092336D01*
X167622295Y-74218645D01*
X167480421Y-74409330D01*
X167372705Y-74621193D01*
X167302225Y-74848176D01*
X167270996Y-75083789D01*
X167279913Y-75321295D01*
X167328719Y-75553904D01*
X167330677Y-75558863D01*
X167330678Y-75558865D01*
X167405974Y-75749524D01*
X167416020Y-75774963D01*
X167418787Y-75779522D01*
X167418788Y-75779525D01*
X167539319Y-75978153D01*
X167538241Y-75978807D01*
X167560172Y-76039932D01*
X167544212Y-76109111D01*
X167493385Y-76158680D01*
X167423827Y-76172901D01*
X167357623Y-76147259D01*
X167345295Y-76136440D01*
X165812405Y-74603550D01*
X165778379Y-74541238D01*
X165775500Y-74514455D01*
X165775500Y-70247095D01*
X167467001Y-70247095D01*
X167467338Y-70253614D01*
X167477257Y-70349206D01*
X167480149Y-70362600D01*
X167531588Y-70516784D01*
X167537761Y-70529962D01*
X167623063Y-70667807D01*
X167632099Y-70679208D01*
X167746829Y-70793739D01*
X167758240Y-70802751D01*
X167896243Y-70887816D01*
X167909424Y-70893963D01*
X168063710Y-70945138D01*
X168077086Y-70948005D01*
X168171438Y-70957672D01*
X168177854Y-70958000D01*
X168577885Y-70958000D01*
X168593124Y-70953525D01*
X168594329Y-70952135D01*
X168596000Y-70944452D01*
X168596000Y-70122115D01*
X168591525Y-70106876D01*
X168590135Y-70105671D01*
X168582452Y-70104000D01*
X167485116Y-70104000D01*
X167469877Y-70108475D01*
X167468672Y-70109865D01*
X167467001Y-70117548D01*
X167467001Y-70247095D01*
X165775500Y-70247095D01*
X165775500Y-60535545D01*
X165795502Y-60467424D01*
X165812405Y-60446450D01*
X171046450Y-55212405D01*
X171108762Y-55178379D01*
X171135545Y-55175500D01*
X172520087Y-55175500D01*
X172588208Y-55195502D01*
X172624791Y-55231406D01*
X172730889Y-55389893D01*
X172730893Y-55389898D01*
X172734316Y-55395011D01*
X172879989Y-55540684D01*
X173051183Y-55655289D01*
X173074644Y-55665055D01*
X173075615Y-55665459D01*
X173130818Y-55710104D01*
X173153121Y-55777506D01*
X173135444Y-55846267D01*
X173105803Y-55880255D01*
X173025035Y-55944732D01*
X172980380Y-55980380D01*
X172868336Y-56120734D01*
X172865270Y-56127077D01*
X172865269Y-56127078D01*
X172841059Y-56177159D01*
X172790173Y-56282423D01*
X172788589Y-56289284D01*
X172751706Y-56449044D01*
X172749774Y-56457411D01*
X172749500Y-56462163D01*
X172749501Y-58637836D01*
X172749774Y-58642589D01*
X172790173Y-58817577D01*
X172868336Y-58979266D01*
X172980380Y-59119620D01*
X173120734Y-59231664D01*
X173282423Y-59309827D01*
X173289284Y-59311411D01*
X173452212Y-59349026D01*
X173452215Y-59349026D01*
X173457411Y-59350226D01*
X173462163Y-59350500D01*
X173463987Y-59350500D01*
X174307180Y-59350499D01*
X175137836Y-59350499D01*
X175142589Y-59350226D01*
X175317577Y-59309827D01*
X175479266Y-59231664D01*
X175619620Y-59119620D01*
X175628399Y-59108623D01*
X175636218Y-59098829D01*
X175694350Y-59058071D01*
X175748295Y-59052176D01*
X175798512Y-59057631D01*
X175805328Y-59058000D01*
X176327885Y-59058000D01*
X176343124Y-59053525D01*
X176344329Y-59052135D01*
X176346000Y-59044452D01*
X176346000Y-56060116D01*
X176341525Y-56044877D01*
X176340135Y-56043672D01*
X176332452Y-56042001D01*
X175805331Y-56042001D01*
X175798512Y-56042370D01*
X175748294Y-56047825D01*
X175678412Y-56035296D01*
X175636218Y-56001171D01*
X175619620Y-55980380D01*
X175479266Y-55868336D01*
X175464259Y-55861081D01*
X175367807Y-55814455D01*
X175317577Y-55790173D01*
X175310717Y-55788589D01*
X175309646Y-55788212D01*
X175252038Y-55746718D01*
X175226008Y-55680666D01*
X175225500Y-55669367D01*
X175225500Y-55604728D01*
X175245502Y-55536607D01*
X175299158Y-55490114D01*
X175364342Y-55479384D01*
X175396437Y-55482672D01*
X175402854Y-55483000D01*
X175427885Y-55483000D01*
X175443124Y-55478525D01*
X175444329Y-55477135D01*
X175446000Y-55469452D01*
X175446000Y-55464884D01*
X175954000Y-55464884D01*
X175958475Y-55480123D01*
X175959865Y-55481328D01*
X175967548Y-55482999D01*
X175997095Y-55482999D01*
X176003614Y-55482662D01*
X176099206Y-55472743D01*
X176112600Y-55469851D01*
X176266784Y-55418412D01*
X176279962Y-55412239D01*
X176417807Y-55326937D01*
X176429208Y-55317901D01*
X176512252Y-55234713D01*
X176574535Y-55200634D01*
X176645355Y-55205637D01*
X176700171Y-55245468D01*
X176707094Y-55254203D01*
X176821829Y-55368739D01*
X176833240Y-55377751D01*
X176971243Y-55462816D01*
X176984424Y-55468963D01*
X177138710Y-55520138D01*
X177152086Y-55523005D01*
X177246438Y-55532672D01*
X177252854Y-55533000D01*
X177277885Y-55533000D01*
X177293124Y-55528525D01*
X177294329Y-55527135D01*
X177296000Y-55519452D01*
X177296000Y-54572115D01*
X177291525Y-54556876D01*
X177290135Y-54555671D01*
X177282452Y-54554000D01*
X176598905Y-54554000D01*
X176530784Y-54533998D01*
X176516393Y-54523225D01*
X176496135Y-54505671D01*
X176488452Y-54504000D01*
X175972115Y-54504000D01*
X175956876Y-54508475D01*
X175955671Y-54509865D01*
X175954000Y-54517548D01*
X175954000Y-55464884D01*
X175446000Y-55464884D01*
X175446000Y-53977885D01*
X175954000Y-53977885D01*
X175958475Y-53993124D01*
X175959865Y-53994329D01*
X175967548Y-53996000D01*
X176651095Y-53996000D01*
X176719216Y-54016002D01*
X176733607Y-54026775D01*
X176753865Y-54044329D01*
X176761548Y-54046000D01*
X177277885Y-54046000D01*
X177293124Y-54041525D01*
X177294329Y-54040135D01*
X177296000Y-54032452D01*
X177296000Y-53085116D01*
X177291525Y-53069877D01*
X177290135Y-53068672D01*
X177282452Y-53067001D01*
X177252905Y-53067001D01*
X177246386Y-53067338D01*
X177150794Y-53077257D01*
X177137400Y-53080149D01*
X176983216Y-53131588D01*
X176970038Y-53137761D01*
X176832193Y-53223063D01*
X176820792Y-53232099D01*
X176737748Y-53315287D01*
X176675465Y-53349366D01*
X176604645Y-53344363D01*
X176549829Y-53304532D01*
X176542906Y-53295797D01*
X176428171Y-53181261D01*
X176416760Y-53172249D01*
X176278757Y-53087184D01*
X176265576Y-53081037D01*
X176111290Y-53029862D01*
X176097914Y-53026995D01*
X176003562Y-53017328D01*
X175997145Y-53017000D01*
X175972115Y-53017000D01*
X175956876Y-53021475D01*
X175955671Y-53022865D01*
X175954000Y-53030548D01*
X175954000Y-53977885D01*
X175446000Y-53977885D01*
X175446000Y-53035116D01*
X175441525Y-53019877D01*
X175440135Y-53018672D01*
X175432452Y-53017001D01*
X175402905Y-53017001D01*
X175396386Y-53017338D01*
X175300794Y-53027257D01*
X175287400Y-53030149D01*
X175133216Y-53081588D01*
X175120042Y-53087759D01*
X175035221Y-53140249D01*
X174966769Y-53159087D01*
X174898999Y-53137926D01*
X174871555Y-53113083D01*
X174869110Y-53110106D01*
X174865684Y-53104989D01*
X174720011Y-52959316D01*
X174548817Y-52844711D01*
X174358623Y-52765541D01*
X174156673Y-52724821D01*
X174152007Y-52724585D01*
X174152002Y-52724584D01*
X174151925Y-52724580D01*
X174151907Y-52724580D01*
X174150337Y-52724500D01*
X174148740Y-52724500D01*
X173798347Y-52724501D01*
X173449664Y-52724501D01*
X173448108Y-52724580D01*
X173448091Y-52724580D01*
X173447997Y-52724585D01*
X173447995Y-52724585D01*
X173443327Y-52724821D01*
X173241377Y-52765541D01*
X173051183Y-52844711D01*
X172879989Y-52959316D01*
X172734316Y-53104989D01*
X172730893Y-53110102D01*
X172730889Y-53110107D01*
X172624791Y-53268594D01*
X172570274Y-53314074D01*
X172520087Y-53324500D01*
X170782758Y-53324500D01*
X170763049Y-53322949D01*
X170748703Y-53320677D01*
X170742116Y-53321022D01*
X170742111Y-53321022D01*
X170679058Y-53324327D01*
X170672464Y-53324500D01*
X170651496Y-53324500D01*
X170648224Y-53324844D01*
X170648222Y-53324844D01*
X170630636Y-53326692D01*
X170624062Y-53327209D01*
X170561017Y-53330513D01*
X170561014Y-53330514D01*
X170554422Y-53330859D01*
X170540393Y-53334618D01*
X170520951Y-53338221D01*
X170506518Y-53339738D01*
X170500240Y-53341778D01*
X170500239Y-53341778D01*
X170476886Y-53349366D01*
X170440196Y-53361287D01*
X170433885Y-53363157D01*
X170366503Y-53381212D01*
X170360623Y-53384208D01*
X170353563Y-53387805D01*
X170335300Y-53395370D01*
X170321492Y-53399856D01*
X170315776Y-53403156D01*
X170315774Y-53403157D01*
X170261081Y-53434734D01*
X170255283Y-53437882D01*
X170193160Y-53469535D01*
X170188028Y-53473690D01*
X170188026Y-53473692D01*
X170181873Y-53478674D01*
X170165588Y-53489867D01*
X170153008Y-53497130D01*
X170148099Y-53501550D01*
X170148095Y-53501553D01*
X170101179Y-53543796D01*
X170096164Y-53548080D01*
X170087525Y-53555076D01*
X170079870Y-53561275D01*
X170065055Y-53576090D01*
X170060271Y-53580631D01*
X170008431Y-53627308D01*
X169999890Y-53639064D01*
X169987053Y-53654092D01*
X164254092Y-59387053D01*
X164239064Y-59399890D01*
X164227308Y-59408431D01*
X164222895Y-59413333D01*
X164222893Y-59413334D01*
X164180631Y-59460271D01*
X164176090Y-59465055D01*
X164161275Y-59479870D01*
X164159199Y-59482434D01*
X164148080Y-59496164D01*
X164143796Y-59501179D01*
X164101553Y-59548095D01*
X164101550Y-59548099D01*
X164097130Y-59553008D01*
X164089869Y-59565585D01*
X164078674Y-59581873D01*
X164073692Y-59588026D01*
X164069535Y-59593160D01*
X164066537Y-59599044D01*
X164037882Y-59655283D01*
X164034734Y-59661081D01*
X164010772Y-59702585D01*
X163999856Y-59721492D01*
X163996998Y-59730289D01*
X163995370Y-59735299D01*
X163987805Y-59753563D01*
X163981212Y-59766503D01*
X163972103Y-59800500D01*
X163963159Y-59833878D01*
X163961287Y-59840196D01*
X163939738Y-59906518D01*
X163939048Y-59913084D01*
X163938221Y-59920951D01*
X163934618Y-59940393D01*
X163930859Y-59954422D01*
X163930514Y-59961014D01*
X163930513Y-59961017D01*
X163927209Y-60024062D01*
X163926692Y-60030636D01*
X163925662Y-60040442D01*
X163924500Y-60051496D01*
X163924500Y-60072464D01*
X163924327Y-60079058D01*
X163921308Y-60136672D01*
X163920677Y-60148703D01*
X163922561Y-60160595D01*
X163922949Y-60163047D01*
X163924500Y-60182758D01*
X163924500Y-74867242D01*
X163922949Y-74886951D01*
X163920677Y-74901297D01*
X163208000Y-74901297D01*
X163208000Y-45484000D01*
X163228002Y-45415879D01*
X163281658Y-45369386D01*
X163334000Y-45358000D01*
X216216000Y-45358000D01*
X216284121Y-45378002D01*
G37*
%TD.AperFunction*%
%TD*%
M02*
