%TF.GenerationSoftware,KiCad,Pcbnew,(6.0.1-0)*%
%TF.CreationDate,2022-06-13T09:57:48-07:00*%
%TF.ProjectId,BBEcent,42424563-656e-4742-9e6b-696361645f70,rev?*%
%TF.SameCoordinates,Original*%
%TF.FileFunction,Copper,L2,Bot*%
%TF.FilePolarity,Positive*%
%FSLAX46Y46*%
G04 Gerber Fmt 4.6, Leading zero omitted, Abs format (unit mm)*
G04 Created by KiCad (PCBNEW (6.0.1-0)) date 2022-06-13 09:57:48*
%MOMM*%
%LPD*%
G01*
G04 APERTURE LIST*
G04 Aperture macros list*
%AMRoundRect*
0 Rectangle with rounded corners*
0 $1 Rounding radius*
0 $2 $3 $4 $5 $6 $7 $8 $9 X,Y pos of 4 corners*
0 Add a 4 corners polygon primitive as box body*
4,1,4,$2,$3,$4,$5,$6,$7,$8,$9,$2,$3,0*
0 Add four circle primitives for the rounded corners*
1,1,$1+$1,$2,$3*
1,1,$1+$1,$4,$5*
1,1,$1+$1,$6,$7*
1,1,$1+$1,$8,$9*
0 Add four rect primitives between the rounded corners*
20,1,$1+$1,$2,$3,$4,$5,0*
20,1,$1+$1,$4,$5,$6,$7,0*
20,1,$1+$1,$6,$7,$8,$9,0*
20,1,$1+$1,$8,$9,$2,$3,0*%
G04 Aperture macros list end*
%TA.AperFunction,ComponentPad*%
%ADD10C,1.676400*%
%TD*%
%TA.AperFunction,ComponentPad*%
%ADD11RoundRect,0.250000X0.350000X0.625000X-0.350000X0.625000X-0.350000X-0.625000X0.350000X-0.625000X0*%
%TD*%
%TA.AperFunction,ComponentPad*%
%ADD12O,1.200000X1.750000*%
%TD*%
%TA.AperFunction,ComponentPad*%
%ADD13RoundRect,0.250000X0.625000X-0.350000X0.625000X0.350000X-0.625000X0.350000X-0.625000X-0.350000X0*%
%TD*%
%TA.AperFunction,ComponentPad*%
%ADD14O,1.750000X1.200000*%
%TD*%
%TA.AperFunction,ComponentPad*%
%ADD15RoundRect,0.250000X-0.625000X0.350000X-0.625000X-0.350000X0.625000X-0.350000X0.625000X0.350000X0*%
%TD*%
%TA.AperFunction,ComponentPad*%
%ADD16C,1.778000*%
%TD*%
G04 APERTURE END LIST*
D10*
%TO.P,,12*%
%TO.N,N/C*%
X178220000Y-69400000D03*
%TD*%
D11*
%TO.P,PWR1,1,Pin_1*%
%TO.N,GND*%
X168900000Y-50650000D03*
D12*
%TO.P,PWR1,2,Pin_2*%
%TO.N,HV*%
X166900000Y-50650000D03*
%TD*%
D11*
%TO.P,CapSensor1,1,Pin_1*%
%TO.N,GND*%
X187900000Y-50250000D03*
D12*
%TO.P,CapSensor1,2,Pin_2*%
%TO.N,HV*%
X185900000Y-50250000D03*
%TO.P,CapSensor1,3,Pin_3*%
%TO.N,Net-(Q4-Pad3)*%
X183900000Y-50250000D03*
%TD*%
D10*
%TO.P,,4*%
%TO.N,/D13*%
X198540000Y-69400000D03*
%TD*%
%TO.P,,7*%
%TO.N,/D10*%
X190920000Y-69400000D03*
%TD*%
D13*
%TO.P,TS1,1,1*%
%TO.N,GND*%
X168950000Y-79150000D03*
D14*
%TO.P,TS1,2,2*%
%TO.N,+3V3*%
X168950000Y-77150000D03*
%TO.P,TS1,3,3*%
%TO.N,N/C*%
X168950000Y-75150000D03*
%TD*%
D10*
%TO.P,,5*%
%TO.N,N/C*%
X196000000Y-69400000D03*
%TD*%
D15*
%TO.P,P1,1,Pin_1*%
%TO.N,GND*%
X210550000Y-73100000D03*
D14*
%TO.P,P1,2,Pin_2*%
%TO.N,HV*%
X210550000Y-75100000D03*
%TO.P,P1,3,Pin_3*%
%TO.N,Net-(P1-Pad3)*%
X210550000Y-77100000D03*
%TD*%
D10*
%TO.P,,1*%
%TO.N,HV*%
X206160000Y-69400000D03*
%TD*%
%TO.P,,4*%
%TO.N,N/C*%
X180760000Y-84640000D03*
%TD*%
%TO.P,,10*%
%TO.N,N/C*%
X196000000Y-84640000D03*
%TD*%
%TO.P,,2*%
%TO.N,N/C*%
X175680000Y-84640000D03*
%TD*%
%TO.P,,14*%
%TO.N,/RX*%
X173140000Y-69400000D03*
%TD*%
%TO.P,,12*%
%TO.N,+3V3*%
X201080000Y-84640000D03*
%TD*%
%TO.P,,11*%
%TO.N,N/C*%
X198540000Y-84640000D03*
%TD*%
%TO.P,,5*%
%TO.N,N/C*%
X183300000Y-84640000D03*
%TD*%
%TO.P,,6*%
%TO.N,/D11*%
X193460000Y-69400000D03*
%TD*%
%TO.P,,3*%
%TO.N,N/C*%
X201080000Y-69400000D03*
%TD*%
D16*
%TO.P,,2*%
%TO.N,N/C*%
X173140000Y-79560000D03*
%TD*%
D10*
%TO.P,,2*%
%TO.N,GND*%
X203620000Y-69400000D03*
%TD*%
D13*
%TO.P,J1,1,Pin_1*%
%TO.N,GND*%
X168850000Y-69850000D03*
D14*
%TO.P,J1,2,Pin_2*%
%TO.N,HV*%
X168850000Y-67850000D03*
%TO.P,J1,3,Pin_3*%
%TO.N,/TX*%
X168850000Y-65850000D03*
%TO.P,J1,4,Pin_4*%
%TO.N,/RX*%
X168850000Y-63850000D03*
%TD*%
D10*
%TO.P,,1*%
%TO.N,N/C*%
X173140000Y-84640000D03*
%TD*%
D11*
%TO.P,FM-OEM-C1,1,Pin_1*%
%TO.N,GND*%
X211000000Y-50300000D03*
D12*
%TO.P,FM-OEM-C1,2,Pin_2*%
%TO.N,HV*%
X209000000Y-50300000D03*
%TO.P,FM-OEM-C1,3,Pin_3*%
%TO.N,Net-(FM-OEM-C1-Pad3)*%
X207000000Y-50300000D03*
%TD*%
D10*
%TO.P,,10*%
%TO.N,N/C*%
X183300000Y-69400000D03*
%TD*%
%TO.P,,3*%
%TO.N,N/C*%
X178220000Y-84640000D03*
%TD*%
%TO.P,,9*%
%TO.N,N/C*%
X193460000Y-84640000D03*
%TD*%
D16*
%TO.P,,4*%
%TO.N,N/C*%
X173140000Y-74480000D03*
%TD*%
%TO.P,,1*%
%TO.N,N/C*%
X173140000Y-82100000D03*
%TD*%
D10*
%TO.P,,13*%
%TO.N,+3V3*%
X203620000Y-84640000D03*
%TD*%
D11*
%TO.P,F1-C1,1,Pin_1*%
%TO.N,GND*%
X200450000Y-50050000D03*
D12*
%TO.P,F1-C1,2,Pin_2*%
%TO.N,HV*%
X198450000Y-50050000D03*
%TO.P,F1-C1,3,Pin_3*%
%TO.N,Net-(F1-C1-Pad3)*%
X196450000Y-50050000D03*
%TD*%
D10*
%TO.P,,14*%
%TO.N,N/C*%
X206160000Y-84640000D03*
%TD*%
%TO.P,,9*%
%TO.N,/D7*%
X185840000Y-69400000D03*
%TD*%
%TO.P,,13*%
%TO.N,/TX*%
X175680000Y-69400000D03*
%TD*%
%TO.P,,8*%
%TO.N,N/C*%
X190920000Y-84640000D03*
%TD*%
%TO.P,,6*%
%TO.N,N/C*%
X185840000Y-84640000D03*
%TD*%
D16*
%TO.P,,3*%
%TO.N,N/C*%
X173140000Y-77020000D03*
%TD*%
D10*
%TO.P,,7*%
%TO.N,/A3*%
X188380000Y-84640000D03*
%TD*%
M02*
